<svg width="158" height="158" viewBox="0 0 158 158" fill="none" xmlns="http://www.w3.org/2000/svg">
<g clip-path="url(#clip0_77_88)">
<path d="M158 0H0V158H158V0Z" fill="white"/>
<path d="M12.6964 9.875H9.875V12.6964H12.6964V9.875Z" fill="black"/>
<path d="M15.5179 9.875H12.6964V12.6964H15.5179V9.875Z" fill="black"/>
<path d="M18.3393 9.875H15.5179V12.6964H18.3393V9.875Z" fill="black"/>
<path d="M21.1607 9.875H18.3393V12.6964H21.1607V9.875Z" fill="black"/>
<path d="M23.9821 9.875H21.1607V12.6964H23.9821V9.875Z" fill="black"/>
<path d="M26.8036 9.875H23.9821V12.6964H26.8036V9.875Z" fill="black"/>
<path d="M29.625 9.875H26.8036V12.6964H29.625V9.875Z" fill="black"/>
<path d="M35.2679 9.875H32.4464V12.6964H35.2679V9.875Z" fill="black"/>
<path d="M38.0893 9.875H35.2679V12.6964H38.0893V9.875Z" fill="black"/>
<path d="M40.9107 9.875H38.0893V12.6964H40.9107V9.875Z" fill="black"/>
<path d="M46.5536 9.875H43.7321V12.6964H46.5536V9.875Z" fill="black"/>
<path d="M49.375 9.875H46.5536V12.6964H49.375V9.875Z" fill="black"/>
<path d="M52.1964 9.875H49.375V12.6964H52.1964V9.875Z" fill="black"/>
<path d="M57.8393 9.875H55.0179V12.6964H57.8393V9.875Z" fill="black"/>
<path d="M71.9464 9.875H69.125V12.6964H71.9464V9.875Z" fill="black"/>
<path d="M74.7679 9.875H71.9464V12.6964H74.7679V9.875Z" fill="black"/>
<path d="M77.5893 9.875H74.7679V12.6964H77.5893V9.875Z" fill="black"/>
<path d="M80.4107 9.875H77.5893V12.6964H80.4107V9.875Z" fill="black"/>
<path d="M83.2321 9.875H80.4107V12.6964H83.2321V9.875Z" fill="black"/>
<path d="M86.0536 9.875H83.2321V12.6964H86.0536V9.875Z" fill="black"/>
<path d="M88.875 9.875H86.0536V12.6964H88.875V9.875Z" fill="black"/>
<path d="M91.6964 9.875H88.875V12.6964H91.6964V9.875Z" fill="black"/>
<path d="M94.5179 9.875H91.6964V12.6964H94.5179V9.875Z" fill="black"/>
<path d="M97.3393 9.875H94.5179V12.6964H97.3393V9.875Z" fill="black"/>
<path d="M102.982 9.875H100.161V12.6964H102.982V9.875Z" fill="black"/>
<path d="M105.804 9.875H102.982V12.6964H105.804V9.875Z" fill="black"/>
<path d="M108.625 9.875H105.804V12.6964H108.625V9.875Z" fill="black"/>
<path d="M111.446 9.875H108.625V12.6964H111.446V9.875Z" fill="black"/>
<path d="M114.268 9.875H111.446V12.6964H114.268V9.875Z" fill="black"/>
<path d="M125.554 9.875H122.732V12.6964H125.554V9.875Z" fill="black"/>
<path d="M131.196 9.875H128.375V12.6964H131.196V9.875Z" fill="black"/>
<path d="M134.018 9.875H131.196V12.6964H134.018V9.875Z" fill="black"/>
<path d="M136.839 9.875H134.018V12.6964H136.839V9.875Z" fill="black"/>
<path d="M139.661 9.875H136.839V12.6964H139.661V9.875Z" fill="black"/>
<path d="M142.482 9.875H139.661V12.6964H142.482V9.875Z" fill="black"/>
<path d="M145.304 9.875H142.482V12.6964H145.304V9.875Z" fill="black"/>
<path d="M148.125 9.875H145.304V12.6964H148.125V9.875Z" fill="black"/>
<path d="M12.6964 12.6964H9.875V15.5179H12.6964V12.6964Z" fill="black"/>
<path d="M29.625 12.6964H26.8036V15.5179H29.625V12.6964Z" fill="black"/>
<path d="M49.375 12.6964H46.5536V15.5179H49.375V12.6964Z" fill="black"/>
<path d="M52.1964 12.6964H49.375V15.5179H52.1964V12.6964Z" fill="black"/>
<path d="M55.0179 12.6964H52.1964V15.5179H55.0179V12.6964Z" fill="black"/>
<path d="M57.8393 12.6964H55.0179V15.5179H57.8393V12.6964Z" fill="black"/>
<path d="M66.3036 12.6964H63.4821V15.5179H66.3036V12.6964Z" fill="black"/>
<path d="M71.9464 12.6964H69.125V15.5179H71.9464V12.6964Z" fill="black"/>
<path d="M74.7679 12.6964H71.9464V15.5179H74.7679V12.6964Z" fill="black"/>
<path d="M91.6964 12.6964H88.875L88.875 15.5179H91.6964V12.6964Z" fill="black"/>
<path d="M94.5179 12.6964H91.6964V15.5179H94.5179V12.6964Z" fill="black"/>
<path d="M100.161 12.6964H97.3393L97.3393 15.5179H100.161L100.161 12.6964Z" fill="black"/>
<path d="M114.268 12.6964H111.446L111.446 15.5179H114.268V12.6964Z" fill="black"/>
<path d="M119.911 12.6964H117.089V15.5179H119.911V12.6964Z" fill="black"/>
<path d="M122.732 12.6964H119.911V15.5179H122.732L122.732 12.6964Z" fill="black"/>
<path d="M125.554 12.6964H122.732L122.732 15.5179H125.554V12.6964Z" fill="black"/>
<path d="M131.196 12.6964H128.375V15.5179H131.196V12.6964Z" fill="black"/>
<path d="M148.125 12.6964H145.304V15.5179H148.125V12.6964Z" fill="black"/>
<path d="M12.6964 15.5179H9.875V18.3393H12.6964V15.5179Z" fill="black"/>
<path d="M18.3393 15.5179H15.5179V18.3393H18.3393V15.5179Z" fill="black"/>
<path d="M21.1607 15.5179H18.3393V18.3393H21.1607V15.5179Z" fill="black"/>
<path d="M23.9821 15.5179H21.1607V18.3393H23.9821V15.5179Z" fill="black"/>
<path d="M29.625 15.5179H26.8036V18.3393H29.625V15.5179Z" fill="black"/>
<path d="M35.2679 15.5179H32.4464V18.3393H35.2679V15.5179Z" fill="black"/>
<path d="M40.9107 15.5179H38.0893V18.3393H40.9107V15.5179Z" fill="black"/>
<path d="M43.7321 15.5179H40.9107V18.3393H43.7321V15.5179Z" fill="black"/>
<path d="M49.375 15.5179H46.5536V18.3393H49.375V15.5179Z" fill="black"/>
<path d="M52.1964 15.5179H49.375V18.3393H52.1964V15.5179Z" fill="black"/>
<path d="M55.0179 15.5179H52.1964V18.3393H55.0179V15.5179Z" fill="black"/>
<path d="M57.8393 15.5179H55.0179V18.3393H57.8393V15.5179Z" fill="black"/>
<path d="M63.4821 15.5179H60.6607V18.3393H63.4821V15.5179Z" fill="black"/>
<path d="M66.3036 15.5179H63.4821V18.3393H66.3036V15.5179Z" fill="black"/>
<path d="M69.125 15.5179H66.3036V18.3393H69.125V15.5179Z" fill="black"/>
<path d="M74.7679 15.5179H71.9464V18.3393H74.7679V15.5179Z" fill="black"/>
<path d="M80.4107 15.5179H77.5893V18.3393H80.4107V15.5179Z" fill="black"/>
<path d="M83.2321 15.5179H80.4107V18.3393H83.2321V15.5179Z" fill="black"/>
<path d="M91.6964 15.5179H88.875V18.3393H91.6964V15.5179Z" fill="black"/>
<path d="M94.5179 15.5179H91.6964V18.3393H94.5179V15.5179Z" fill="black"/>
<path d="M97.3393 15.5179H94.5179V18.3393H97.3393L97.3393 15.5179Z" fill="black"/>
<path d="M102.982 15.5179H100.161L100.161 18.3393H102.982V15.5179Z" fill="black"/>
<path d="M105.804 15.5179H102.982V18.3393H105.804V15.5179Z" fill="black"/>
<path d="M108.625 15.5179H105.804V18.3393H108.625V15.5179Z" fill="black"/>
<path d="M122.732 15.5179H119.911L119.911 18.3393H122.732V15.5179Z" fill="black"/>
<path d="M125.554 15.5179H122.732V18.3393H125.554V15.5179Z" fill="black"/>
<path d="M131.196 15.5179H128.375V18.3393H131.196V15.5179Z" fill="black"/>
<path d="M136.839 15.5179H134.018V18.3393H136.839V15.5179Z" fill="black"/>
<path d="M139.661 15.5179H136.839V18.3393H139.661V15.5179Z" fill="black"/>
<path d="M142.482 15.5179H139.661V18.3393H142.482V15.5179Z" fill="black"/>
<path d="M148.125 15.5179H145.304V18.3393H148.125V15.5179Z" fill="black"/>
<path d="M12.6964 18.3393H9.875V21.1607H12.6964V18.3393Z" fill="black"/>
<path d="M18.3393 18.3393H15.5179V21.1607H18.3393V18.3393Z" fill="black"/>
<path d="M21.1607 18.3393H18.3393V21.1607H21.1607V18.3393Z" fill="black"/>
<path d="M23.9821 18.3393H21.1607V21.1607H23.9821V18.3393Z" fill="black"/>
<path d="M29.625 18.3393H26.8036V21.1607H29.625V18.3393Z" fill="black"/>
<path d="M35.2679 18.3393H32.4464V21.1607H35.2679V18.3393Z" fill="black"/>
<path d="M38.0893 18.3393H35.2679V21.1607H38.0893V18.3393Z" fill="black"/>
<path d="M49.375 18.3393H46.5536V21.1607H49.375V18.3393Z" fill="black"/>
<path d="M57.8393 18.3393H55.0179V21.1607H57.8393V18.3393Z" fill="black"/>
<path d="M60.6607 18.3393H57.8393V21.1607H60.6607V18.3393Z" fill="black"/>
<path d="M63.4821 18.3393H60.6607V21.1607H63.4821V18.3393Z" fill="black"/>
<path d="M77.5893 18.3393H74.7679V21.1607H77.5893V18.3393Z" fill="black"/>
<path d="M80.4107 18.3393H77.5893V21.1607H80.4107V18.3393Z" fill="black"/>
<path d="M86.0536 18.3393H83.2321V21.1607H86.0536V18.3393Z" fill="black"/>
<path d="M88.875 18.3393H86.0536V21.1607H88.875L88.875 18.3393Z" fill="black"/>
<path d="M91.6964 18.3393H88.875L88.875 21.1607H91.6964V18.3393Z" fill="black"/>
<path d="M94.5179 18.3393H91.6964V21.1607H94.5179V18.3393Z" fill="black"/>
<path d="M105.804 18.3393H102.982V21.1607H105.804V18.3393Z" fill="black"/>
<path d="M122.732 18.3393H119.911V21.1607H122.732V18.3393Z" fill="black"/>
<path d="M131.196 18.3393H128.375V21.1607H131.196V18.3393Z" fill="black"/>
<path d="M136.839 18.3393H134.018V21.1607H136.839V18.3393Z" fill="black"/>
<path d="M139.661 18.3393H136.839V21.1607H139.661V18.3393Z" fill="black"/>
<path d="M142.482 18.3393H139.661V21.1607H142.482V18.3393Z" fill="black"/>
<path d="M148.125 18.3393H145.304V21.1607H148.125V18.3393Z" fill="black"/>
<path d="M12.6964 21.1607H9.875V23.9821H12.6964V21.1607Z" fill="black"/>
<path d="M18.3393 21.1607H15.5179V23.9821H18.3393V21.1607Z" fill="black"/>
<path d="M21.1607 21.1607H18.3393V23.9821H21.1607V21.1607Z" fill="black"/>
<path d="M23.9821 21.1607H21.1607V23.9821H23.9821V21.1607Z" fill="black"/>
<path d="M29.625 21.1607H26.8036V23.9821H29.625V21.1607Z" fill="black"/>
<path d="M35.2679 21.1607H32.4464V23.9821H35.2679V21.1607Z" fill="black"/>
<path d="M40.9107 21.1607H38.0893V23.9821H40.9107V21.1607Z" fill="black"/>
<path d="M43.7321 21.1607H40.9107V23.9821H43.7321V21.1607Z" fill="black"/>
<path d="M49.375 21.1607H46.5536V23.9821H49.375V21.1607Z" fill="black"/>
<path d="M55.0179 21.1607H52.1964V23.9821H55.0179V21.1607Z" fill="black"/>
<path d="M66.3036 21.1607H63.4821V23.9821H66.3036V21.1607Z" fill="black"/>
<path d="M69.125 21.1607H66.3036V23.9821H69.125V21.1607Z" fill="black"/>
<path d="M74.7679 21.1607H71.9464V23.9821H74.7679V21.1607Z" fill="black"/>
<path d="M77.5893 21.1607H74.7679V23.9821H77.5893V21.1607Z" fill="black"/>
<path d="M80.4107 21.1607H77.5893V23.9821H80.4107V21.1607Z" fill="black"/>
<path d="M83.2321 21.1607H80.4107V23.9821H83.2321V21.1607Z" fill="black"/>
<path d="M86.0536 21.1607H83.2321V23.9821H86.0536V21.1607Z" fill="black"/>
<path d="M88.875 21.1607H86.0536V23.9821H88.875V21.1607Z" fill="black"/>
<path d="M91.6964 21.1607H88.875V23.9821H91.6964V21.1607Z" fill="black"/>
<path d="M97.3393 21.1607H94.5179L94.5179 23.9821H97.3393V21.1607Z" fill="black"/>
<path d="M100.161 21.1607H97.3393V23.9821H100.161V21.1607Z" fill="black"/>
<path d="M102.982 21.1607H100.161V23.9821H102.982V21.1607Z" fill="black"/>
<path d="M108.625 21.1607H105.804L105.804 23.9821H108.625V21.1607Z" fill="black"/>
<path d="M114.268 21.1607H111.446V23.9821H114.268V21.1607Z" fill="black"/>
<path d="M117.089 21.1607H114.268V23.9821H117.089V21.1607Z" fill="black"/>
<path d="M131.196 21.1607H128.375V23.9821H131.196V21.1607Z" fill="black"/>
<path d="M136.839 21.1607H134.018V23.9821H136.839V21.1607Z" fill="black"/>
<path d="M139.661 21.1607H136.839V23.9821H139.661V21.1607Z" fill="black"/>
<path d="M142.482 21.1607H139.661V23.9821H142.482V21.1607Z" fill="black"/>
<path d="M148.125 21.1607H145.304V23.9821H148.125V21.1607Z" fill="black"/>
<path d="M12.6964 23.9821H9.875V26.8036H12.6964V23.9821Z" fill="black"/>
<path d="M29.625 23.9821H26.8036V26.8036H29.625V23.9821Z" fill="black"/>
<path d="M35.2679 23.9821H32.4464V26.8036H35.2679V23.9821Z" fill="black"/>
<path d="M43.7321 23.9821H40.9107V26.8036H43.7321V23.9821Z" fill="black"/>
<path d="M52.1964 23.9821H49.375V26.8036H52.1964V23.9821Z" fill="black"/>
<path d="M55.0179 23.9821H52.1964V26.8036H55.0179V23.9821Z" fill="black"/>
<path d="M66.3036 23.9821H63.4821V26.8036H66.3036V23.9821Z" fill="black"/>
<path d="M69.125 23.9821H66.3036V26.8036H69.125V23.9821Z" fill="black"/>
<path d="M74.7679 23.9821H71.9464V26.8036H74.7679V23.9821Z" fill="black"/>
<path d="M86.0536 23.9821H83.2321V26.8036H86.0536V23.9821Z" fill="black"/>
<path d="M88.875 23.9821H86.0536V26.8036H88.875V23.9821Z" fill="black"/>
<path d="M91.6964 23.9821H88.875V26.8036H91.6964V23.9821Z" fill="black"/>
<path d="M100.161 23.9821H97.3393L97.3393 26.8036H100.161V23.9821Z" fill="black"/>
<path d="M102.982 23.9821H100.161V26.8036H102.982V23.9821Z" fill="black"/>
<path d="M111.446 23.9821H108.625L108.625 26.8036H111.446L111.446 23.9821Z" fill="black"/>
<path d="M119.911 23.9821H117.089L117.089 26.8036H119.911V23.9821Z" fill="black"/>
<path d="M131.196 23.9821H128.375V26.8036H131.196V23.9821Z" fill="black"/>
<path d="M148.125 23.9821H145.304V26.8036H148.125V23.9821Z" fill="black"/>
<path d="M12.6964 26.8036H9.875V29.625H12.6964V26.8036Z" fill="black"/>
<path d="M15.5179 26.8036H12.6964V29.625H15.5179V26.8036Z" fill="black"/>
<path d="M18.3393 26.8036H15.5179V29.625H18.3393V26.8036Z" fill="black"/>
<path d="M21.1607 26.8036H18.3393V29.625H21.1607V26.8036Z" fill="black"/>
<path d="M23.9821 26.8036H21.1607V29.625H23.9821V26.8036Z" fill="black"/>
<path d="M26.8036 26.8036H23.9821V29.625H26.8036V26.8036Z" fill="black"/>
<path d="M29.625 26.8036H26.8036V29.625H29.625V26.8036Z" fill="black"/>
<path d="M35.2679 26.8036H32.4464V29.625H35.2679V26.8036Z" fill="black"/>
<path d="M40.9107 26.8036H38.0893V29.625H40.9107V26.8036Z" fill="black"/>
<path d="M46.5536 26.8036H43.7321V29.625H46.5536V26.8036Z" fill="black"/>
<path d="M52.1964 26.8036H49.375V29.625H52.1964V26.8036Z" fill="black"/>
<path d="M57.8393 26.8036H55.0179V29.625H57.8393V26.8036Z" fill="black"/>
<path d="M63.4821 26.8036H60.6607V29.625H63.4821V26.8036Z" fill="black"/>
<path d="M69.125 26.8036H66.3036V29.625H69.125V26.8036Z" fill="black"/>
<path d="M74.7679 26.8036H71.9464V29.625H74.7679V26.8036Z" fill="black"/>
<path d="M80.4107 26.8036H77.5893V29.625H80.4107V26.8036Z" fill="black"/>
<path d="M86.0536 26.8036H83.2321V29.625H86.0536V26.8036Z" fill="black"/>
<path d="M91.6964 26.8036H88.875L88.875 29.625H91.6964V26.8036Z" fill="black"/>
<path d="M97.3393 26.8036H94.5179V29.625H97.3393L97.3393 26.8036Z" fill="black"/>
<path d="M102.982 26.8036H100.161L100.161 29.625H102.982V26.8036Z" fill="black"/>
<path d="M108.625 26.8036H105.804V29.625H108.625L108.625 26.8036Z" fill="black"/>
<path d="M114.268 26.8036H111.446L111.446 29.625H114.268V26.8036Z" fill="black"/>
<path d="M119.911 26.8036H117.089V29.625H119.911V26.8036Z" fill="black"/>
<path d="M125.554 26.8036H122.732V29.625H125.554V26.8036Z" fill="black"/>
<path d="M131.196 26.8036H128.375V29.625H131.196V26.8036Z" fill="black"/>
<path d="M134.018 26.8036H131.196V29.625H134.018V26.8036Z" fill="black"/>
<path d="M136.839 26.8036H134.018V29.625H136.839V26.8036Z" fill="black"/>
<path d="M139.661 26.8036H136.839V29.625H139.661V26.8036Z" fill="black"/>
<path d="M142.482 26.8036H139.661V29.625H142.482V26.8036Z" fill="black"/>
<path d="M145.304 26.8036H142.482V29.625H145.304V26.8036Z" fill="black"/>
<path d="M148.125 26.8036H145.304V29.625H148.125V26.8036Z" fill="black"/>
<path d="M46.5536 29.625H43.7321V32.4464H46.5536V29.625Z" fill="black"/>
<path d="M52.1964 29.625H49.375V32.4464H52.1964V29.625Z" fill="black"/>
<path d="M57.8393 29.625H55.0179V32.4464H57.8393V29.625Z" fill="black"/>
<path d="M66.3036 29.625H63.4821V32.4464H66.3036V29.625Z" fill="black"/>
<path d="M71.9464 29.625H69.125V32.4464H71.9464V29.625Z" fill="black"/>
<path d="M74.7679 29.625H71.9464V32.4464H74.7679V29.625Z" fill="black"/>
<path d="M86.0536 29.625H83.2321V32.4464H86.0536V29.625Z" fill="black"/>
<path d="M88.875 29.625H86.0536V32.4464H88.875L88.875 29.625Z" fill="black"/>
<path d="M100.161 29.625H97.3393L97.3393 32.4464H100.161L100.161 29.625Z" fill="black"/>
<path d="M108.625 29.625H105.804V32.4464H108.625V29.625Z" fill="black"/>
<path d="M111.446 29.625H108.625V32.4464H111.446L111.446 29.625Z" fill="black"/>
<path d="M117.089 29.625H114.268V32.4464H117.089L117.089 29.625Z" fill="black"/>
<path d="M122.732 29.625H119.911L119.911 32.4464H122.732L122.732 29.625Z" fill="black"/>
<path d="M125.554 29.625H122.732L122.732 32.4464H125.554V29.625Z" fill="black"/>
<path d="M18.3393 32.4464H15.5179V35.2679H18.3393V32.4464Z" fill="black"/>
<path d="M21.1607 32.4464H18.3393V35.2679H21.1607V32.4464Z" fill="black"/>
<path d="M23.9821 32.4464H21.1607V35.2679H23.9821V32.4464Z" fill="black"/>
<path d="M26.8036 32.4464H23.9821V35.2679H26.8036V32.4464Z" fill="black"/>
<path d="M29.625 32.4464H26.8036V35.2679H29.625V32.4464Z" fill="black"/>
<path d="M32.4464 32.4464H29.625V35.2679H32.4464V32.4464Z" fill="black"/>
<path d="M46.5536 32.4464H43.7321V35.2679H46.5536V32.4464Z" fill="black"/>
<path d="M49.375 32.4464H46.5536V35.2679H49.375V32.4464Z" fill="black"/>
<path d="M57.8393 32.4464H55.0179V35.2679H57.8393V32.4464Z" fill="black"/>
<path d="M60.6607 32.4464H57.8393V35.2679H60.6607V32.4464Z" fill="black"/>
<path d="M63.4821 32.4464H60.6607V35.2679H63.4821V32.4464Z" fill="black"/>
<path d="M74.7679 32.4464H71.9464V35.2679H74.7679V32.4464Z" fill="black"/>
<path d="M77.5893 32.4464H74.7679V35.2679H77.5893V32.4464Z" fill="black"/>
<path d="M80.4107 32.4464H77.5893V35.2679H80.4107V32.4464Z" fill="black"/>
<path d="M83.2321 32.4464H80.4107V35.2679H83.2321V32.4464Z" fill="black"/>
<path d="M86.0536 32.4464H83.2321V35.2679H86.0536V32.4464Z" fill="black"/>
<path d="M91.6964 32.4464H88.875L88.875 35.2679H91.6964V32.4464Z" fill="black"/>
<path d="M94.5179 32.4464H91.6964V35.2679H94.5179V32.4464Z" fill="black"/>
<path d="M97.3393 32.4464H94.5179V35.2679H97.3393L97.3393 32.4464Z" fill="black"/>
<path d="M102.982 32.4464H100.161L100.161 35.2679H102.982V32.4464Z" fill="black"/>
<path d="M105.804 32.4464H102.982V35.2679H105.804L105.804 32.4464Z" fill="black"/>
<path d="M108.625 32.4464H105.804L105.804 35.2679H108.625V32.4464Z" fill="black"/>
<path d="M117.089 32.4464H114.268V35.2679H117.089V32.4464Z" fill="black"/>
<path d="M119.911 32.4464H117.089V35.2679H119.911L119.911 32.4464Z" fill="black"/>
<path d="M122.732 32.4464H119.911L119.911 35.2679H122.732V32.4464Z" fill="black"/>
<path d="M125.554 32.4464H122.732V35.2679H125.554V32.4464Z" fill="black"/>
<path d="M128.375 32.4464H125.554V35.2679H128.375V32.4464Z" fill="black"/>
<path d="M134.018 32.4464H131.196V35.2679H134.018V32.4464Z" fill="black"/>
<path d="M136.839 32.4464H134.018V35.2679H136.839V32.4464Z" fill="black"/>
<path d="M139.661 32.4464H136.839V35.2679H139.661V32.4464Z" fill="black"/>
<path d="M142.482 32.4464H139.661V35.2679H142.482V32.4464Z" fill="black"/>
<path d="M148.125 32.4464H145.304V35.2679H148.125V32.4464Z" fill="black"/>
<path d="M12.6964 35.2679H9.875V38.0893H12.6964V35.2679Z" fill="black"/>
<path d="M15.5179 35.2679H12.6964V38.0893H15.5179V35.2679Z" fill="black"/>
<path d="M32.4464 35.2679H29.625V38.0893H32.4464V35.2679Z" fill="black"/>
<path d="M35.2679 35.2679H32.4464V38.0893H35.2679V35.2679Z" fill="black"/>
<path d="M52.1964 35.2679H49.375V38.0893H52.1964V35.2679Z" fill="black"/>
<path d="M60.6607 35.2679H57.8393V38.0893H60.6607V35.2679Z" fill="black"/>
<path d="M66.3036 35.2679H63.4821V38.0893H66.3036V35.2679Z" fill="black"/>
<path d="M69.125 35.2679H66.3036V38.0893H69.125V35.2679Z" fill="black"/>
<path d="M74.7679 35.2679H71.9464V38.0893H74.7679V35.2679Z" fill="black"/>
<path d="M77.5893 35.2679H74.7679V38.0893H77.5893V35.2679Z" fill="black"/>
<path d="M80.4107 35.2679H77.5893V38.0893H80.4107V35.2679Z" fill="black"/>
<path d="M83.2321 35.2679H80.4107V38.0893H83.2321V35.2679Z" fill="black"/>
<path d="M86.0536 35.2679H83.2321V38.0893H86.0536V35.2679Z" fill="black"/>
<path d="M91.6964 35.2679H88.875V38.0893H91.6964V35.2679Z" fill="black"/>
<path d="M114.268 35.2679H111.446V38.0893H114.268V35.2679Z" fill="black"/>
<path d="M117.089 35.2679H114.268V38.0893H117.089V35.2679Z" fill="black"/>
<path d="M119.911 35.2679H117.089V38.0893H119.911V35.2679Z" fill="black"/>
<path d="M125.554 35.2679H122.732L122.732 38.0893H125.554V35.2679Z" fill="black"/>
<path d="M128.375 35.2679H125.554V38.0893H128.375V35.2679Z" fill="black"/>
<path d="M131.196 35.2679H128.375V38.0893H131.196L131.196 35.2679Z" fill="black"/>
<path d="M136.839 35.2679H134.018L134.018 38.0893H136.839V35.2679Z" fill="black"/>
<path d="M142.482 35.2679H139.661V38.0893H142.482V35.2679Z" fill="black"/>
<path d="M145.304 35.2679H142.482V38.0893H145.304V35.2679Z" fill="black"/>
<path d="M12.6964 38.0893H9.875V40.9107H12.6964V38.0893Z" fill="black"/>
<path d="M15.5179 38.0893H12.6964V40.9107H15.5179V38.0893Z" fill="black"/>
<path d="M21.1607 38.0893H18.3393V40.9107H21.1607V38.0893Z" fill="black"/>
<path d="M23.9821 38.0893H21.1607V40.9107H23.9821V38.0893Z" fill="black"/>
<path d="M26.8036 38.0893H23.9821V40.9107H26.8036V38.0893Z" fill="black"/>
<path d="M29.625 38.0893H26.8036V40.9107H29.625V38.0893Z" fill="black"/>
<path d="M32.4464 38.0893H29.625V40.9107H32.4464V38.0893Z" fill="black"/>
<path d="M35.2679 38.0893H32.4464V40.9107H35.2679V38.0893Z" fill="black"/>
<path d="M38.0893 38.0893H35.2679V40.9107H38.0893V38.0893Z" fill="black"/>
<path d="M49.375 38.0893H46.5536V40.9107H49.375V38.0893Z" fill="black"/>
<path d="M52.1964 38.0893H49.375V40.9107H52.1964V38.0893Z" fill="black"/>
<path d="M63.4821 38.0893H60.6607V40.9107H63.4821V38.0893Z" fill="black"/>
<path d="M69.125 38.0893H66.3036V40.9107H69.125V38.0893Z" fill="black"/>
<path d="M71.9464 38.0893H69.125V40.9107H71.9464V38.0893Z" fill="black"/>
<path d="M74.7679 38.0893H71.9464V40.9107H74.7679V38.0893Z" fill="black"/>
<path d="M77.5893 38.0893H74.7679V40.9107H77.5893V38.0893Z" fill="black"/>
<path d="M80.4107 38.0893H77.5893V40.9107H80.4107V38.0893Z" fill="black"/>
<path d="M83.2321 38.0893H80.4107V40.9107H83.2321V38.0893Z" fill="black"/>
<path d="M88.875 38.0893H86.0536V40.9107H88.875L88.875 38.0893Z" fill="black"/>
<path d="M97.3393 38.0893H94.5179V40.9107H97.3393V38.0893Z" fill="black"/>
<path d="M100.161 38.0893H97.3393V40.9107H100.161V38.0893Z" fill="black"/>
<path d="M102.982 38.0893H100.161V40.9107H102.982V38.0893Z" fill="black"/>
<path d="M105.804 38.0893H102.982V40.9107H105.804V38.0893Z" fill="black"/>
<path d="M114.268 38.0893H111.446V40.9107H114.268V38.0893Z" fill="black"/>
<path d="M117.089 38.0893H114.268V40.9107H117.089V38.0893Z" fill="black"/>
<path d="M119.911 38.0893H117.089V40.9107H119.911V38.0893Z" fill="black"/>
<path d="M122.732 38.0893H119.911V40.9107H122.732L122.732 38.0893Z" fill="black"/>
<path d="M125.554 38.0893H122.732L122.732 40.9107H125.554V38.0893Z" fill="black"/>
<path d="M131.196 38.0893H128.375L128.375 40.9107H131.196V38.0893Z" fill="black"/>
<path d="M134.018 38.0893H131.196V40.9107H134.018L134.018 38.0893Z" fill="black"/>
<path d="M136.839 38.0893H134.018L134.018 40.9107H136.839V38.0893Z" fill="black"/>
<path d="M139.661 38.0893H136.839V40.9107H139.661V38.0893Z" fill="black"/>
<path d="M142.482 38.0893H139.661V40.9107H142.482V38.0893Z" fill="black"/>
<path d="M12.6964 40.9107H9.875V43.7321H12.6964V40.9107Z" fill="black"/>
<path d="M32.4464 40.9107H29.625V43.7321H32.4464V40.9107Z" fill="black"/>
<path d="M38.0893 40.9107H35.2679V43.7321H38.0893V40.9107Z" fill="black"/>
<path d="M46.5536 40.9107H43.7321V43.7321H46.5536V40.9107Z" fill="black"/>
<path d="M66.3036 40.9107H63.4821V43.7321H66.3036V40.9107Z" fill="black"/>
<path d="M69.125 40.9107H66.3036V43.7321H69.125V40.9107Z" fill="black"/>
<path d="M74.7679 40.9107H71.9464V43.7321H74.7679V40.9107Z" fill="black"/>
<path d="M77.5893 40.9107H74.7679V43.7321H77.5893V40.9107Z" fill="black"/>
<path d="M83.2321 40.9107H80.4107V43.7321H83.2321V40.9107Z" fill="black"/>
<path d="M86.0536 40.9107H83.2321V43.7321H86.0536V40.9107Z" fill="black"/>
<path d="M94.5179 40.9107H91.6964V43.7321H94.5179L94.5179 40.9107Z" fill="black"/>
<path d="M97.3393 40.9107H94.5179L94.5179 43.7321H97.3393V40.9107Z" fill="black"/>
<path d="M105.804 40.9107H102.982V43.7321H105.804V40.9107Z" fill="black"/>
<path d="M117.089 40.9107H114.268V43.7321H117.089V40.9107Z" fill="black"/>
<path d="M125.554 40.9107H122.732L122.732 43.7321H125.554V40.9107Z" fill="black"/>
<path d="M131.196 40.9107H128.375V43.7321H131.196V40.9107Z" fill="black"/>
<path d="M136.839 40.9107H134.018L134.018 43.7321H136.839V40.9107Z" fill="black"/>
<path d="M139.661 40.9107H136.839V43.7321H139.661V40.9107Z" fill="black"/>
<path d="M15.5179 43.7321H12.6964V46.5536H15.5179V43.7321Z" fill="black"/>
<path d="M21.1607 43.7321H18.3393V46.5536H21.1607V43.7321Z" fill="black"/>
<path d="M23.9821 43.7321H21.1607V46.5536H23.9821V43.7321Z" fill="black"/>
<path d="M29.625 43.7321H26.8036V46.5536H29.625V43.7321Z" fill="black"/>
<path d="M35.2679 43.7321H32.4464V46.5536H35.2679V43.7321Z" fill="black"/>
<path d="M43.7321 43.7321H40.9107V46.5536H43.7321V43.7321Z" fill="black"/>
<path d="M55.0179 43.7321H52.1964V46.5536H55.0179V43.7321Z" fill="black"/>
<path d="M57.8393 43.7321H55.0179V46.5536H57.8393V43.7321Z" fill="black"/>
<path d="M60.6607 43.7321H57.8393V46.5536H60.6607V43.7321Z" fill="black"/>
<path d="M66.3036 43.7321H63.4821V46.5536H66.3036V43.7321Z" fill="black"/>
<path d="M71.9464 43.7321H69.125V46.5536H71.9464V43.7321Z" fill="black"/>
<path d="M74.7679 43.7321H71.9464V46.5536H74.7679V43.7321Z" fill="black"/>
<path d="M83.2321 43.7321H80.4107V46.5536H83.2321V43.7321Z" fill="black"/>
<path d="M102.982 43.7321H100.161V46.5536H102.982V43.7321Z" fill="black"/>
<path d="M105.804 43.7321H102.982V46.5536H105.804V43.7321Z" fill="black"/>
<path d="M117.089 43.7321H114.268V46.5536H117.089V43.7321Z" fill="black"/>
<path d="M119.911 43.7321H117.089V46.5536H119.911V43.7321Z" fill="black"/>
<path d="M131.196 43.7321H128.375V46.5536H131.196V43.7321Z" fill="black"/>
<path d="M134.018 43.7321H131.196V46.5536H134.018L134.018 43.7321Z" fill="black"/>
<path d="M139.661 43.7321H136.839V46.5536H139.661V43.7321Z" fill="black"/>
<path d="M142.482 43.7321H139.661V46.5536H142.482V43.7321Z" fill="black"/>
<path d="M145.304 43.7321H142.482V46.5536H145.304V43.7321Z" fill="black"/>
<path d="M148.125 43.7321H145.304V46.5536H148.125V43.7321Z" fill="black"/>
<path d="M12.6964 46.5536H9.875V49.375H12.6964V46.5536Z" fill="black"/>
<path d="M18.3393 46.5536H15.5179V49.375H18.3393V46.5536Z" fill="black"/>
<path d="M21.1607 46.5536H18.3393V49.375H21.1607V46.5536Z" fill="black"/>
<path d="M23.9821 46.5536H21.1607V49.375H23.9821V46.5536Z" fill="black"/>
<path d="M26.8036 46.5536H23.9821V49.375H26.8036V46.5536Z" fill="black"/>
<path d="M32.4464 46.5536H29.625V49.375H32.4464V46.5536Z" fill="black"/>
<path d="M49.375 46.5536H46.5536V49.375H49.375V46.5536Z" fill="black"/>
<path d="M63.4821 46.5536H60.6607V49.375H63.4821V46.5536Z" fill="black"/>
<path d="M69.125 46.5536H66.3036V49.375H69.125V46.5536Z" fill="black"/>
<path d="M71.9464 46.5536H69.125V49.375H71.9464V46.5536Z" fill="black"/>
<path d="M83.2321 46.5536H80.4107V49.375H83.2321V46.5536Z" fill="black"/>
<path d="M86.0536 46.5536H83.2321V49.375H86.0536V46.5536Z" fill="black"/>
<path d="M88.875 46.5536H86.0536V49.375H88.875V46.5536Z" fill="black"/>
<path d="M94.5179 46.5536H91.6964V49.375H94.5179V46.5536Z" fill="black"/>
<path d="M102.982 46.5536H100.161V49.375H102.982V46.5536Z" fill="black"/>
<path d="M108.625 46.5536H105.804L105.804 49.375H108.625V46.5536Z" fill="black"/>
<path d="M111.446 46.5536H108.625V49.375H111.446V46.5536Z" fill="black"/>
<path d="M119.911 46.5536H117.089L117.089 49.375H119.911V46.5536Z" fill="black"/>
<path d="M128.375 46.5536H125.554V49.375H128.375L128.375 46.5536Z" fill="black"/>
<path d="M131.196 46.5536H128.375L128.375 49.375H131.196V46.5536Z" fill="black"/>
<path d="M139.661 46.5536H136.839V49.375H139.661V46.5536Z" fill="black"/>
<path d="M145.304 46.5536H142.482V49.375H145.304V46.5536Z" fill="black"/>
<path d="M15.5179 49.375H12.6964V52.1964H15.5179V49.375Z" fill="black"/>
<path d="M21.1607 49.375H18.3393V52.1964H21.1607V49.375Z" fill="black"/>
<path d="M26.8036 49.375H23.9821V52.1964H26.8036V49.375Z" fill="black"/>
<path d="M29.625 49.375H26.8036V52.1964H29.625V49.375Z" fill="black"/>
<path d="M46.5536 49.375H43.7321V52.1964H46.5536V49.375Z" fill="black"/>
<path d="M49.375 49.375H46.5536V52.1964H49.375V49.375Z" fill="black"/>
<path d="M52.1964 49.375H49.375V52.1964H52.1964V49.375Z" fill="black"/>
<path d="M55.0179 49.375H52.1964V52.1964H55.0179V49.375Z" fill="black"/>
<path d="M69.125 49.375H66.3036V52.1964H69.125V49.375Z" fill="black"/>
<path d="M80.4107 49.375H77.5893V52.1964H80.4107V49.375Z" fill="black"/>
<path d="M86.0536 49.375H83.2321V52.1964H86.0536V49.375Z" fill="black"/>
<path d="M88.875 49.375H86.0536V52.1964H88.875V49.375Z" fill="black"/>
<path d="M94.5179 49.375H91.6964V52.1964H94.5179V49.375Z" fill="black"/>
<path d="M100.161 49.375H97.3393V52.1964H100.161L100.161 49.375Z" fill="black"/>
<path d="M102.982 49.375H100.161L100.161 52.1964H102.982V49.375Z" fill="black"/>
<path d="M108.625 49.375H105.804V52.1964H108.625V49.375Z" fill="black"/>
<path d="M111.446 49.375H108.625V52.1964H111.446V49.375Z" fill="black"/>
<path d="M117.089 49.375H114.268V52.1964H117.089L117.089 49.375Z" fill="black"/>
<path d="M122.732 49.375H119.911L119.911 52.1964H122.732V49.375Z" fill="black"/>
<path d="M134.018 49.375H131.196L131.196 52.1964H134.018V49.375Z" fill="black"/>
<path d="M12.6964 52.1964H9.875V55.0179H12.6964V52.1964Z" fill="black"/>
<path d="M15.5179 52.1964H12.6964V55.0179H15.5179V52.1964Z" fill="black"/>
<path d="M21.1607 52.1964H18.3393V55.0179H21.1607V52.1964Z" fill="black"/>
<path d="M23.9821 52.1964H21.1607V55.0179H23.9821V52.1964Z" fill="black"/>
<path d="M32.4464 52.1964H29.625V55.0179H32.4464V52.1964Z" fill="black"/>
<path d="M38.0893 52.1964H35.2679V55.0179H38.0893V52.1964Z" fill="black"/>
<path d="M40.9107 52.1964H38.0893V55.0179H40.9107V52.1964Z" fill="black"/>
<path d="M43.7321 52.1964H40.9107V55.0179H43.7321V52.1964Z" fill="black"/>
<path d="M52.1964 52.1964H49.375V55.0179H52.1964V52.1964Z" fill="black"/>
<path d="M55.0179 52.1964H52.1964V55.0179H55.0179V52.1964Z" fill="black"/>
<path d="M60.6607 52.1964H57.8393V55.0179H60.6607V52.1964Z" fill="black"/>
<path d="M83.2321 52.1964H80.4107V55.0179H83.2321V52.1964Z" fill="black"/>
<path d="M88.875 52.1964H86.0536V55.0179H88.875V52.1964Z" fill="black"/>
<path d="M91.6964 52.1964H88.875V55.0179H91.6964V52.1964Z" fill="black"/>
<path d="M94.5179 52.1964H91.6964V55.0179H94.5179V52.1964Z" fill="black"/>
<path d="M97.3393 52.1964H94.5179V55.0179H97.3393L97.3393 52.1964Z" fill="black"/>
<path d="M114.268 52.1964H111.446L111.446 55.0179H114.268V52.1964Z" fill="black"/>
<path d="M122.732 52.1964H119.911V55.0179H122.732V52.1964Z" fill="black"/>
<path d="M131.196 52.1964H128.375V55.0179H131.196L131.196 52.1964Z" fill="black"/>
<path d="M134.018 52.1964H131.196L131.196 55.0179H134.018V52.1964Z" fill="black"/>
<path d="M139.661 52.1964H136.839V55.0179H139.661V52.1964Z" fill="black"/>
<path d="M145.304 52.1964H142.482V55.0179H145.304V52.1964Z" fill="black"/>
<path d="M15.5179 55.0179H12.6964V57.8393H15.5179V55.0179Z" fill="black"/>
<path d="M29.625 55.0179H26.8036V57.8393H29.625V55.0179Z" fill="black"/>
<path d="M38.0893 55.0179H35.2679V57.8393H38.0893V55.0179Z" fill="black"/>
<path d="M46.5536 55.0179H43.7321V57.8393H46.5536V55.0179Z" fill="black"/>
<path d="M49.375 55.0179H46.5536V57.8393H49.375V55.0179Z" fill="black"/>
<path d="M55.0179 55.0179H52.1964V57.8393H55.0179V55.0179Z" fill="black"/>
<path d="M63.4821 55.0179H60.6607V57.8393H63.4821V55.0179Z" fill="black"/>
<path d="M69.125 55.0179H66.3036V57.8393H69.125V55.0179Z" fill="black"/>
<path d="M71.9464 55.0179H69.125V57.8393H71.9464V55.0179Z" fill="black"/>
<path d="M74.7679 55.0179H71.9464V57.8393H74.7679V55.0179Z" fill="black"/>
<path d="M77.5893 55.0179H74.7679V57.8393H77.5893V55.0179Z" fill="black"/>
<path d="M83.2321 55.0179H80.4107V57.8393H83.2321V55.0179Z" fill="black"/>
<path d="M86.0536 55.0179H83.2321V57.8393H86.0536V55.0179Z" fill="black"/>
<path d="M91.6964 55.0179H88.875L88.875 57.8393H91.6964V55.0179Z" fill="black"/>
<path d="M94.5179 55.0179H91.6964V57.8393H94.5179V55.0179Z" fill="black"/>
<path d="M102.982 55.0179H100.161V57.8393H102.982V55.0179Z" fill="black"/>
<path d="M105.804 55.0179H102.982V57.8393H105.804V55.0179Z" fill="black"/>
<path d="M108.625 55.0179H105.804V57.8393H108.625V55.0179Z" fill="black"/>
<path d="M114.268 55.0179H111.446V57.8393H114.268V55.0179Z" fill="black"/>
<path d="M119.911 55.0179H117.089V57.8393H119.911L119.911 55.0179Z" fill="black"/>
<path d="M125.554 55.0179H122.732L122.732 57.8393H125.554V55.0179Z" fill="black"/>
<path d="M128.375 55.0179H125.554V57.8393H128.375L128.375 55.0179Z" fill="black"/>
<path d="M131.196 55.0179H128.375L128.375 57.8393H131.196V55.0179Z" fill="black"/>
<path d="M134.018 55.0179H131.196V57.8393H134.018V55.0179Z" fill="black"/>
<path d="M136.839 55.0179H134.018V57.8393H136.839V55.0179Z" fill="black"/>
<path d="M139.661 55.0179H136.839V57.8393H139.661V55.0179Z" fill="black"/>
<path d="M145.304 55.0179H142.482V57.8393H145.304V55.0179Z" fill="black"/>
<path d="M148.125 55.0179H145.304V57.8393H148.125V55.0179Z" fill="black"/>
<path d="M12.6964 57.8393H9.875V60.6607H12.6964V57.8393Z" fill="black"/>
<path d="M18.3393 57.8393H15.5179V60.6607H18.3393V57.8393Z" fill="black"/>
<path d="M23.9821 57.8393H21.1607V60.6607H23.9821V57.8393Z" fill="black"/>
<path d="M26.8036 57.8393H23.9821V60.6607H26.8036V57.8393Z" fill="black"/>
<path d="M32.4464 57.8393H29.625V60.6607H32.4464V57.8393Z" fill="black"/>
<path d="M35.2679 57.8393H32.4464V60.6607H35.2679V57.8393Z" fill="black"/>
<path d="M38.0893 57.8393H35.2679V60.6607H38.0893V57.8393Z" fill="black"/>
<path d="M46.5536 57.8393H43.7321V60.6607H46.5536V57.8393Z" fill="black"/>
<path d="M49.375 57.8393H46.5536V60.6607H49.375V57.8393Z" fill="black"/>
<path d="M55.0179 57.8393H52.1964V60.6607H55.0179V57.8393Z" fill="black"/>
<path d="M57.8393 57.8393H55.0179V60.6607H57.8393V57.8393Z" fill="black"/>
<path d="M60.6607 57.8393H57.8393V60.6607H60.6607V57.8393Z" fill="black"/>
<path d="M63.4821 57.8393H60.6607V60.6607H63.4821V57.8393Z" fill="black"/>
<path d="M74.7679 57.8393H71.9464V60.6607H74.7679V57.8393Z" fill="black"/>
<path d="M83.2321 57.8393H80.4107V60.6607H83.2321V57.8393Z" fill="black"/>
<path d="M86.0536 57.8393H83.2321V60.6607H86.0536V57.8393Z" fill="black"/>
<path d="M88.875 57.8393H86.0536V60.6607H88.875L88.875 57.8393Z" fill="black"/>
<path d="M91.6964 57.8393H88.875L88.875 60.6607H91.6964V57.8393Z" fill="black"/>
<path d="M94.5179 57.8393H91.6964V60.6607H94.5179V57.8393Z" fill="black"/>
<path d="M100.161 57.8393H97.3393V60.6607H100.161L100.161 57.8393Z" fill="black"/>
<path d="M102.982 57.8393H100.161L100.161 60.6607H102.982V57.8393Z" fill="black"/>
<path d="M111.446 57.8393H108.625L108.625 60.6607H111.446L111.446 57.8393Z" fill="black"/>
<path d="M128.375 57.8393H125.554V60.6607H128.375V57.8393Z" fill="black"/>
<path d="M134.018 57.8393H131.196L131.196 60.6607H134.018V57.8393Z" fill="black"/>
<path d="M139.661 57.8393H136.839V60.6607H139.661V57.8393Z" fill="black"/>
<path d="M145.304 57.8393H142.482V60.6607H145.304V57.8393Z" fill="black"/>
<path d="M15.5179 60.6607H12.6964V63.4821H15.5179V60.6607Z" fill="black"/>
<path d="M18.3393 60.6607H15.5179V63.4821H18.3393V60.6607Z" fill="black"/>
<path d="M21.1607 60.6607H18.3393V63.4821H21.1607V60.6607Z" fill="black"/>
<path d="M29.625 60.6607H26.8036V63.4821H29.625V60.6607Z" fill="black"/>
<path d="M32.4464 60.6607H29.625V63.4821H32.4464V60.6607Z" fill="black"/>
<path d="M35.2679 60.6607H32.4464V63.4821H35.2679V60.6607Z" fill="black"/>
<path d="M38.0893 60.6607H35.2679V63.4821H38.0893V60.6607Z" fill="black"/>
<path d="M46.5536 60.6607H43.7321V63.4821H46.5536V60.6607Z" fill="black"/>
<path d="M55.0179 60.6607H52.1964V63.4821H55.0179V60.6607Z" fill="black"/>
<path d="M57.8393 60.6607H55.0179V63.4821H57.8393V60.6607Z" fill="black"/>
<path d="M69.125 60.6607H66.3036V63.4821H69.125V60.6607Z" fill="black"/>
<path d="M71.9464 60.6607H69.125V63.4821H71.9464V60.6607Z" fill="black"/>
<path d="M80.4107 60.6607H77.5893V63.4821H80.4107V60.6607Z" fill="black"/>
<path d="M83.2321 60.6607H80.4107V63.4821H83.2321V60.6607Z" fill="black"/>
<path d="M86.0536 60.6607H83.2321V63.4821H86.0536V60.6607Z" fill="black"/>
<path d="M91.6964 60.6607H88.875L88.875 63.4821H91.6964V60.6607Z" fill="black"/>
<path d="M97.3393 60.6607H94.5179L94.5179 63.4821H97.3393L97.3393 60.6607Z" fill="black"/>
<path d="M100.161 60.6607H97.3393L97.3393 63.4821H100.161V60.6607Z" fill="black"/>
<path d="M111.446 60.6607H108.625V63.4821H111.446V60.6607Z" fill="black"/>
<path d="M119.911 60.6607H117.089V63.4821H119.911V60.6607Z" fill="black"/>
<path d="M125.554 60.6607H122.732V63.4821H125.554V60.6607Z" fill="black"/>
<path d="M128.375 60.6607H125.554V63.4821H128.375V60.6607Z" fill="black"/>
<path d="M134.018 60.6607H131.196V63.4821H134.018V60.6607Z" fill="black"/>
<path d="M142.482 60.6607H139.661V63.4821H142.482V60.6607Z" fill="black"/>
<path d="M145.304 60.6607H142.482V63.4821H145.304V60.6607Z" fill="black"/>
<path d="M148.125 60.6607H145.304V63.4821H148.125V60.6607Z" fill="black"/>
<path d="M12.6964 63.4821H9.875V66.3036H12.6964V63.4821Z" fill="black"/>
<path d="M23.9821 63.4821H21.1607V66.3036H23.9821V63.4821Z" fill="black"/>
<path d="M32.4464 63.4821H29.625V66.3036H32.4464V63.4821Z" fill="black"/>
<path d="M35.2679 63.4821H32.4464V66.3036H35.2679V63.4821Z" fill="black"/>
<path d="M38.0893 63.4821H35.2679V66.3036H38.0893V63.4821Z" fill="black"/>
<path d="M46.5536 63.4821H43.7321V66.3036H46.5536V63.4821Z" fill="black"/>
<path d="M52.1964 63.4821H49.375V66.3036H52.1964V63.4821Z" fill="black"/>
<path d="M60.6607 63.4821H57.8393V66.3036H60.6607V63.4821Z" fill="black"/>
<path d="M63.4821 63.4821H60.6607V66.3036H63.4821V63.4821Z" fill="black"/>
<path d="M71.9464 63.4821H69.125V66.3036H71.9464V63.4821Z" fill="black"/>
<path d="M74.7679 63.4821H71.9464V66.3036H74.7679V63.4821Z" fill="black"/>
<path d="M77.5893 63.4821H74.7679V66.3036H77.5893V63.4821Z" fill="black"/>
<path d="M80.4107 63.4821H77.5893V66.3036H80.4107V63.4821Z" fill="black"/>
<path d="M83.2321 63.4821H80.4107V66.3036H83.2321V63.4821Z" fill="black"/>
<path d="M86.0536 63.4821H83.2321V66.3036H86.0536V63.4821Z" fill="black"/>
<path d="M94.5179 63.4821H91.6964V66.3036H94.5179L94.5179 63.4821Z" fill="black"/>
<path d="M100.161 63.4821H97.3393L97.3393 66.3036H100.161V63.4821Z" fill="black"/>
<path d="M105.804 63.4821H102.982V66.3036H105.804V63.4821Z" fill="black"/>
<path d="M117.089 63.4821H114.268V66.3036H117.089L117.089 63.4821Z" fill="black"/>
<path d="M122.732 63.4821H119.911L119.911 66.3036H122.732L122.732 63.4821Z" fill="black"/>
<path d="M128.375 63.4821H125.554V66.3036H128.375V63.4821Z" fill="black"/>
<path d="M131.196 63.4821H128.375V66.3036H131.196L131.196 63.4821Z" fill="black"/>
<path d="M134.018 63.4821H131.196L131.196 66.3036H134.018V63.4821Z" fill="black"/>
<path d="M136.839 63.4821H134.018V66.3036H136.839V63.4821Z" fill="black"/>
<path d="M142.482 63.4821H139.661V66.3036H142.482V63.4821Z" fill="black"/>
<path d="M148.125 63.4821H145.304V66.3036H148.125V63.4821Z" fill="black"/>
<path d="M18.3393 66.3036H15.5179V69.125H18.3393V66.3036Z" fill="black"/>
<path d="M23.9821 66.3036H21.1607V69.125H23.9821V66.3036Z" fill="black"/>
<path d="M26.8036 66.3036H23.9821V69.125H26.8036V66.3036Z" fill="black"/>
<path d="M29.625 66.3036H26.8036V69.125H29.625V66.3036Z" fill="black"/>
<path d="M32.4464 66.3036H29.625V69.125H32.4464V66.3036Z" fill="black"/>
<path d="M43.7321 66.3036H40.9107V69.125H43.7321V66.3036Z" fill="black"/>
<path d="M57.8393 66.3036H55.0179V69.125H57.8393V66.3036Z" fill="black"/>
<path d="M63.4821 66.3036H60.6607V69.125H63.4821V66.3036Z" fill="black"/>
<path d="M66.3036 66.3036H63.4821V69.125H66.3036V66.3036Z" fill="black"/>
<path d="M69.125 66.3036H66.3036V69.125H69.125V66.3036Z" fill="black"/>
<path d="M74.7679 66.3036H71.9464V69.125H74.7679V66.3036Z" fill="black"/>
<path d="M77.5893 66.3036H74.7679V69.125H77.5893V66.3036Z" fill="black"/>
<path d="M80.4107 66.3036H77.5893V69.125H80.4107V66.3036Z" fill="black"/>
<path d="M88.875 66.3036H86.0536V69.125H88.875V66.3036Z" fill="black"/>
<path d="M94.5179 66.3036H91.6964V69.125H94.5179V66.3036Z" fill="black"/>
<path d="M97.3393 66.3036H94.5179V69.125H97.3393L97.3393 66.3036Z" fill="black"/>
<path d="M100.161 66.3036H97.3393L97.3393 69.125H100.161V66.3036Z" fill="black"/>
<path d="M114.268 66.3036H111.446V69.125H114.268V66.3036Z" fill="black"/>
<path d="M119.911 66.3036H117.089L117.089 69.125H119.911L119.911 66.3036Z" fill="black"/>
<path d="M122.732 66.3036H119.911L119.911 69.125H122.732V66.3036Z" fill="black"/>
<path d="M125.554 66.3036H122.732V69.125H125.554V66.3036Z" fill="black"/>
<path d="M148.125 66.3036H145.304V69.125H148.125V66.3036Z" fill="black"/>
<path d="M12.6964 69.125H9.875V71.9464H12.6964V69.125Z" fill="black"/>
<path d="M23.9821 69.125H21.1607V71.9464H23.9821V69.125Z" fill="black"/>
<path d="M35.2679 69.125H32.4464V71.9464H35.2679V69.125Z" fill="black"/>
<path d="M38.0893 69.125H35.2679V71.9464H38.0893V69.125Z" fill="black"/>
<path d="M40.9107 69.125H38.0893V71.9464H40.9107V69.125Z" fill="black"/>
<path d="M43.7321 69.125H40.9107V71.9464H43.7321V69.125Z" fill="black"/>
<path d="M49.375 69.125H46.5536V71.9464H49.375V69.125Z" fill="black"/>
<path d="M55.0179 69.125H52.1964V71.9464H55.0179V69.125Z" fill="black"/>
<path d="M60.6607 69.125H57.8393V71.9464H60.6607V69.125Z" fill="black"/>
<path d="M63.4821 69.125H60.6607V71.9464H63.4821V69.125Z" fill="black"/>
<path d="M69.125 69.125H66.3036V71.9464H69.125V69.125Z" fill="black"/>
<path d="M77.5893 69.125H74.7679V71.9464H77.5893V69.125Z" fill="black"/>
<path d="M80.4107 69.125H77.5893V71.9464H80.4107V69.125Z" fill="black"/>
<path d="M83.2321 69.125H80.4107V71.9464H83.2321V69.125Z" fill="black"/>
<path d="M88.875 69.125H86.0536V71.9464H88.875V69.125Z" fill="black"/>
<path d="M91.6964 69.125H88.875V71.9464H91.6964V69.125Z" fill="black"/>
<path d="M94.5179 69.125H91.6964V71.9464H94.5179V69.125Z" fill="black"/>
<path d="M108.625 69.125H105.804V71.9464H108.625V69.125Z" fill="black"/>
<path d="M117.089 69.125H114.268V71.9464H117.089L117.089 69.125Z" fill="black"/>
<path d="M122.732 69.125H119.911L119.911 71.9464H122.732V69.125Z" fill="black"/>
<path d="M131.196 69.125H128.375V71.9464H131.196V69.125Z" fill="black"/>
<path d="M134.018 69.125H131.196V71.9464H134.018V69.125Z" fill="black"/>
<path d="M139.661 69.125H136.839V71.9464H139.661V69.125Z" fill="black"/>
<path d="M142.482 69.125H139.661V71.9464H142.482V69.125Z" fill="black"/>
<path d="M145.304 69.125H142.482V71.9464H145.304V69.125Z" fill="black"/>
<path d="M15.5179 71.9464H12.6964V74.7679H15.5179V71.9464Z" fill="black"/>
<path d="M21.1607 71.9464H18.3393V74.7679H21.1607V71.9464Z" fill="black"/>
<path d="M23.9821 71.9464H21.1607V74.7679H23.9821V71.9464Z" fill="black"/>
<path d="M26.8036 71.9464H23.9821V74.7679H26.8036V71.9464Z" fill="black"/>
<path d="M29.625 71.9464H26.8036V74.7679H29.625V71.9464Z" fill="black"/>
<path d="M32.4464 71.9464H29.625V74.7679H32.4464V71.9464Z" fill="black"/>
<path d="M35.2679 71.9464H32.4464V74.7679H35.2679V71.9464Z" fill="black"/>
<path d="M38.0893 71.9464H35.2679V74.7679H38.0893V71.9464Z" fill="black"/>
<path d="M46.5536 71.9464H43.7321V74.7679H46.5536V71.9464Z" fill="black"/>
<path d="M69.125 71.9464H66.3036V74.7679H69.125V71.9464Z" fill="black"/>
<path d="M71.9464 71.9464H69.125V74.7679H71.9464V71.9464Z" fill="black"/>
<path d="M74.7679 71.9464H71.9464V74.7679H74.7679V71.9464Z" fill="black"/>
<path d="M77.5893 71.9464H74.7679V74.7679H77.5893V71.9464Z" fill="black"/>
<path d="M80.4107 71.9464H77.5893V74.7679H80.4107V71.9464Z" fill="black"/>
<path d="M83.2321 71.9464H80.4107V74.7679H83.2321V71.9464Z" fill="black"/>
<path d="M86.0536 71.9464H83.2321V74.7679H86.0536V71.9464Z" fill="black"/>
<path d="M94.5179 71.9464H91.6964V74.7679H94.5179V71.9464Z" fill="black"/>
<path d="M97.3393 71.9464H94.5179V74.7679H97.3393V71.9464Z" fill="black"/>
<path d="M100.161 71.9464H97.3393V74.7679H100.161V71.9464Z" fill="black"/>
<path d="M102.982 71.9464H100.161V74.7679H102.982V71.9464Z" fill="black"/>
<path d="M108.625 71.9464H105.804V74.7679H108.625V71.9464Z" fill="black"/>
<path d="M114.268 71.9464H111.446V74.7679H114.268V71.9464Z" fill="black"/>
<path d="M117.089 71.9464H114.268V74.7679H117.089V71.9464Z" fill="black"/>
<path d="M122.732 71.9464H119.911V74.7679H122.732V71.9464Z" fill="black"/>
<path d="M125.554 71.9464H122.732V74.7679H125.554V71.9464Z" fill="black"/>
<path d="M128.375 71.9464H125.554V74.7679H128.375L128.375 71.9464Z" fill="black"/>
<path d="M131.196 71.9464H128.375L128.375 74.7679H131.196V71.9464Z" fill="black"/>
<path d="M134.018 71.9464H131.196V74.7679H134.018V71.9464Z" fill="black"/>
<path d="M136.839 71.9464H134.018V74.7679H136.839V71.9464Z" fill="black"/>
<path d="M139.661 71.9464H136.839V74.7679H139.661V71.9464Z" fill="black"/>
<path d="M15.5179 74.7679H12.6964V77.5893H15.5179V74.7679Z" fill="black"/>
<path d="M21.1607 74.7679H18.3393V77.5893H21.1607V74.7679Z" fill="black"/>
<path d="M23.9821 74.7679H21.1607V77.5893H23.9821V74.7679Z" fill="black"/>
<path d="M35.2679 74.7679H32.4464V77.5893H35.2679V74.7679Z" fill="black"/>
<path d="M40.9107 74.7679H38.0893V77.5893H40.9107V74.7679Z" fill="black"/>
<path d="M46.5536 74.7679H43.7321V77.5893H46.5536V74.7679Z" fill="black"/>
<path d="M57.8393 74.7679H55.0179V77.5893H57.8393V74.7679Z" fill="black"/>
<path d="M60.6607 74.7679H57.8393V77.5893H60.6607V74.7679Z" fill="black"/>
<path d="M69.125 74.7679H66.3036V77.5893H69.125V74.7679Z" fill="black"/>
<path d="M74.7679 74.7679H71.9464V77.5893H74.7679V74.7679Z" fill="black"/>
<path d="M86.0536 74.7679H83.2321V77.5893H86.0536V74.7679Z" fill="black"/>
<path d="M91.6964 74.7679H88.875V77.5893H91.6964V74.7679Z" fill="black"/>
<path d="M97.3393 74.7679H94.5179L94.5179 77.5893H97.3393V74.7679Z" fill="black"/>
<path d="M102.982 74.7679H100.161L100.161 77.5893H102.982V74.7679Z" fill="black"/>
<path d="M105.804 74.7679H102.982V77.5893H105.804L105.804 74.7679Z" fill="black"/>
<path d="M111.446 74.7679H108.625L108.625 77.5893H111.446L111.446 74.7679Z" fill="black"/>
<path d="M117.089 74.7679H114.268V77.5893H117.089V74.7679Z" fill="black"/>
<path d="M119.911 74.7679H117.089V77.5893H119.911L119.911 74.7679Z" fill="black"/>
<path d="M125.554 74.7679H122.732L122.732 77.5893H125.554V74.7679Z" fill="black"/>
<path d="M136.839 74.7679H134.018L134.018 77.5893H136.839V74.7679Z" fill="black"/>
<path d="M142.482 74.7679H139.661V77.5893H142.482V74.7679Z" fill="black"/>
<path d="M12.6964 77.5893H9.875V80.4107H12.6964V77.5893Z" fill="black"/>
<path d="M18.3393 77.5893H15.5179V80.4107H18.3393V77.5893Z" fill="black"/>
<path d="M23.9821 77.5893H21.1607V80.4107H23.9821V77.5893Z" fill="black"/>
<path d="M29.625 77.5893H26.8036V80.4107H29.625V77.5893Z" fill="black"/>
<path d="M35.2679 77.5893H32.4464V80.4107H35.2679V77.5893Z" fill="black"/>
<path d="M43.7321 77.5893H40.9107V80.4107H43.7321V77.5893Z" fill="black"/>
<path d="M46.5536 77.5893H43.7321V80.4107H46.5536V77.5893Z" fill="black"/>
<path d="M49.375 77.5893H46.5536V80.4107H49.375V77.5893Z" fill="black"/>
<path d="M52.1964 77.5893H49.375V80.4107H52.1964V77.5893Z" fill="black"/>
<path d="M57.8393 77.5893H55.0179V80.4107H57.8393V77.5893Z" fill="black"/>
<path d="M60.6607 77.5893H57.8393V80.4107H60.6607V77.5893Z" fill="black"/>
<path d="M66.3036 77.5893H63.4821V80.4107H66.3036V77.5893Z" fill="black"/>
<path d="M69.125 77.5893H66.3036V80.4107H69.125V77.5893Z" fill="black"/>
<path d="M74.7679 77.5893H71.9464V80.4107H74.7679V77.5893Z" fill="black"/>
<path d="M80.4107 77.5893H77.5893V80.4107H80.4107V77.5893Z" fill="black"/>
<path d="M86.0536 77.5893H83.2321V80.4107H86.0536V77.5893Z" fill="black"/>
<path d="M91.6964 77.5893H88.875V80.4107H91.6964V77.5893Z" fill="black"/>
<path d="M94.5179 77.5893H91.6964V80.4107H94.5179L94.5179 77.5893Z" fill="black"/>
<path d="M97.3393 77.5893H94.5179L94.5179 80.4107H97.3393V77.5893Z" fill="black"/>
<path d="M100.161 77.5893H97.3393V80.4107H100.161L100.161 77.5893Z" fill="black"/>
<path d="M102.982 77.5893H100.161L100.161 80.4107H102.982V77.5893Z" fill="black"/>
<path d="M105.804 77.5893H102.982V80.4107H105.804V77.5893Z" fill="black"/>
<path d="M111.446 77.5893H108.625V80.4107H111.446V77.5893Z" fill="black"/>
<path d="M117.089 77.5893H114.268V80.4107H117.089V77.5893Z" fill="black"/>
<path d="M122.732 77.5893H119.911L119.911 80.4107H122.732L122.732 77.5893Z" fill="black"/>
<path d="M125.554 77.5893H122.732L122.732 80.4107H125.554V77.5893Z" fill="black"/>
<path d="M131.196 77.5893H128.375V80.4107H131.196V77.5893Z" fill="black"/>
<path d="M136.839 77.5893H134.018V80.4107H136.839V77.5893Z" fill="black"/>
<path d="M139.661 77.5893H136.839V80.4107H139.661V77.5893Z" fill="black"/>
<path d="M142.482 77.5893H139.661V80.4107H142.482V77.5893Z" fill="black"/>
<path d="M12.6964 80.4107H9.875V83.2321H12.6964V80.4107Z" fill="black"/>
<path d="M21.1607 80.4107H18.3393V83.2321H21.1607V80.4107Z" fill="black"/>
<path d="M23.9821 80.4107H21.1607V83.2321H23.9821V80.4107Z" fill="black"/>
<path d="M35.2679 80.4107H32.4464V83.2321H35.2679V80.4107Z" fill="black"/>
<path d="M38.0893 80.4107H35.2679V83.2321H38.0893V80.4107Z" fill="black"/>
<path d="M43.7321 80.4107H40.9107V83.2321H43.7321V80.4107Z" fill="black"/>
<path d="M49.375 80.4107H46.5536V83.2321H49.375V80.4107Z" fill="black"/>
<path d="M57.8393 80.4107H55.0179V83.2321H57.8393V80.4107Z" fill="black"/>
<path d="M60.6607 80.4107H57.8393V83.2321H60.6607V80.4107Z" fill="black"/>
<path d="M69.125 80.4107H66.3036V83.2321H69.125V80.4107Z" fill="black"/>
<path d="M74.7679 80.4107H71.9464V83.2321H74.7679V80.4107Z" fill="black"/>
<path d="M86.0536 80.4107H83.2321V83.2321H86.0536V80.4107Z" fill="black"/>
<path d="M88.875 80.4107H86.0536V83.2321H88.875L88.875 80.4107Z" fill="black"/>
<path d="M97.3393 80.4107H94.5179L94.5179 83.2321H97.3393V80.4107Z" fill="black"/>
<path d="M100.161 80.4107H97.3393V83.2321H100.161V80.4107Z" fill="black"/>
<path d="M102.982 80.4107H100.161V83.2321H102.982V80.4107Z" fill="black"/>
<path d="M105.804 80.4107H102.982V83.2321H105.804V80.4107Z" fill="black"/>
<path d="M108.625 80.4107H105.804V83.2321H108.625L108.625 80.4107Z" fill="black"/>
<path d="M111.446 80.4107H108.625L108.625 83.2321H111.446V80.4107Z" fill="black"/>
<path d="M114.268 80.4107H111.446V83.2321H114.268V80.4107Z" fill="black"/>
<path d="M117.089 80.4107H114.268V83.2321H117.089V80.4107Z" fill="black"/>
<path d="M119.911 80.4107H117.089V83.2321H119.911L119.911 80.4107Z" fill="black"/>
<path d="M122.732 80.4107H119.911L119.911 83.2321H122.732V80.4107Z" fill="black"/>
<path d="M125.554 80.4107H122.732V83.2321H125.554V80.4107Z" fill="black"/>
<path d="M136.839 80.4107H134.018V83.2321H136.839V80.4107Z" fill="black"/>
<path d="M139.661 80.4107H136.839V83.2321H139.661V80.4107Z" fill="black"/>
<path d="M145.304 80.4107H142.482V83.2321H145.304V80.4107Z" fill="black"/>
<path d="M12.6964 83.2321H9.875V86.0536H12.6964V83.2321Z" fill="black"/>
<path d="M21.1607 83.2321H18.3393V86.0536H21.1607V83.2321Z" fill="black"/>
<path d="M23.9821 83.2321H21.1607V86.0536H23.9821V83.2321Z" fill="black"/>
<path d="M26.8036 83.2321H23.9821V86.0536H26.8036V83.2321Z" fill="black"/>
<path d="M29.625 83.2321H26.8036V86.0536H29.625V83.2321Z" fill="black"/>
<path d="M32.4464 83.2321H29.625V86.0536H32.4464V83.2321Z" fill="black"/>
<path d="M35.2679 83.2321H32.4464V86.0536H35.2679V83.2321Z" fill="black"/>
<path d="M40.9107 83.2321H38.0893V86.0536H40.9107V83.2321Z" fill="black"/>
<path d="M52.1964 83.2321H49.375V86.0536H52.1964V83.2321Z" fill="black"/>
<path d="M74.7679 83.2321H71.9464V86.0536H74.7679V83.2321Z" fill="black"/>
<path d="M77.5893 83.2321H74.7679V86.0536H77.5893V83.2321Z" fill="black"/>
<path d="M80.4107 83.2321H77.5893V86.0536H80.4107V83.2321Z" fill="black"/>
<path d="M83.2321 83.2321H80.4107V86.0536H83.2321V83.2321Z" fill="black"/>
<path d="M86.0536 83.2321H83.2321V86.0536H86.0536V83.2321Z" fill="black"/>
<path d="M94.5179 83.2321H91.6964V86.0536H94.5179L94.5179 83.2321Z" fill="black"/>
<path d="M111.446 83.2321H108.625L108.625 86.0536H111.446V83.2321Z" fill="black"/>
<path d="M117.089 83.2321H114.268V86.0536H117.089V83.2321Z" fill="black"/>
<path d="M125.554 83.2321H122.732L122.732 86.0536H125.554V83.2321Z" fill="black"/>
<path d="M128.375 83.2321H125.554V86.0536H128.375V83.2321Z" fill="black"/>
<path d="M131.196 83.2321H128.375V86.0536H131.196V83.2321Z" fill="black"/>
<path d="M134.018 83.2321H131.196V86.0536H134.018L134.018 83.2321Z" fill="black"/>
<path d="M136.839 83.2321H134.018L134.018 86.0536H136.839V83.2321Z" fill="black"/>
<path d="M139.661 83.2321H136.839V86.0536H139.661V83.2321Z" fill="black"/>
<path d="M142.482 83.2321H139.661V86.0536H142.482V83.2321Z" fill="black"/>
<path d="M145.304 83.2321H142.482V86.0536H145.304V83.2321Z" fill="black"/>
<path d="M12.6964 86.0536H9.875V88.875H12.6964V86.0536Z" fill="black"/>
<path d="M18.3393 86.0536H15.5179V88.875H18.3393V86.0536Z" fill="black"/>
<path d="M32.4464 86.0536H29.625V88.875H32.4464V86.0536Z" fill="black"/>
<path d="M57.8393 86.0536H55.0179V88.875H57.8393V86.0536Z" fill="black"/>
<path d="M63.4821 86.0536H60.6607V88.875H63.4821V86.0536Z" fill="black"/>
<path d="M69.125 86.0536H66.3036V88.875H69.125V86.0536Z" fill="black"/>
<path d="M71.9464 86.0536H69.125V88.875H71.9464V86.0536Z" fill="black"/>
<path d="M80.4107 86.0536H77.5893V88.875H80.4107V86.0536Z" fill="black"/>
<path d="M88.875 86.0536H86.0536V88.875H88.875V86.0536Z" fill="black"/>
<path d="M91.6964 86.0536H88.875V88.875H91.6964V86.0536Z" fill="black"/>
<path d="M100.161 86.0536H97.3393V88.875H100.161V86.0536Z" fill="black"/>
<path d="M105.804 86.0536H102.982V88.875H105.804V86.0536Z" fill="black"/>
<path d="M117.089 86.0536H114.268V88.875H117.089V86.0536Z" fill="black"/>
<path d="M122.732 86.0536H119.911V88.875H122.732L122.732 86.0536Z" fill="black"/>
<path d="M128.375 86.0536H125.554V88.875H128.375V86.0536Z" fill="black"/>
<path d="M131.196 86.0536H128.375V88.875H131.196V86.0536Z" fill="black"/>
<path d="M134.018 86.0536H131.196V88.875H134.018V86.0536Z" fill="black"/>
<path d="M139.661 86.0536H136.839V88.875H139.661V86.0536Z" fill="black"/>
<path d="M148.125 86.0536H145.304V88.875H148.125V86.0536Z" fill="black"/>
<path d="M12.6964 88.875H9.875V91.6964H12.6964V88.875Z" fill="black"/>
<path d="M15.5179 88.875H12.6964V91.6964H15.5179V88.875Z" fill="black"/>
<path d="M26.8036 88.875H23.9821V91.6964H26.8036V88.875Z" fill="black"/>
<path d="M29.625 88.875L26.8036 88.875V91.6964H29.625V88.875Z" fill="black"/>
<path d="M32.4464 88.875H29.625V91.6964H32.4464V88.875Z" fill="black"/>
<path d="M40.9107 88.875H38.0893V91.6964H40.9107V88.875Z" fill="black"/>
<path d="M49.375 88.875H46.5536V91.6964H49.375V88.875Z" fill="black"/>
<path d="M52.1964 88.875H49.375V91.6964H52.1964V88.875Z" fill="black"/>
<path d="M66.3036 88.875H63.4821V91.6964H66.3036V88.875Z" fill="black"/>
<path d="M77.5893 88.875L74.7679 88.875V91.6964H77.5893V88.875Z" fill="black"/>
<path d="M88.875 88.875H86.0536V91.6964H88.875V88.875Z" fill="black"/>
<path d="M102.982 88.875H100.161L100.161 91.6964H102.982V88.875Z" fill="black"/>
<path d="M105.804 88.875H102.982V91.6964H105.804V88.875Z" fill="black"/>
<path d="M108.625 88.875L105.804 88.875V91.6964H108.625V88.875Z" fill="black"/>
<path d="M111.446 88.875H108.625V91.6964H111.446V88.875Z" fill="black"/>
<path d="M117.089 88.875H114.268V91.6964H117.089V88.875Z" fill="black"/>
<path d="M122.732 88.875H119.911V91.6964H122.732V88.875Z" fill="black"/>
<path d="M134.018 88.875H131.196L131.196 91.6964H134.018V88.875Z" fill="black"/>
<path d="M142.482 88.875L139.661 88.875V91.6964H142.482V88.875Z" fill="black"/>
<path d="M12.6964 91.6964H9.875V94.5179H12.6964V91.6964Z" fill="black"/>
<path d="M18.3393 91.6964H15.5179V94.5179H18.3393V91.6964Z" fill="black"/>
<path d="M21.1607 91.6964H18.3393V94.5179H21.1607V91.6964Z" fill="black"/>
<path d="M23.9821 91.6964H21.1607V94.5179H23.9821V91.6964Z" fill="black"/>
<path d="M32.4464 91.6964H29.625V94.5179H32.4464V91.6964Z" fill="black"/>
<path d="M35.2679 91.6964H32.4464V94.5179H35.2679V91.6964Z" fill="black"/>
<path d="M38.0893 91.6964H35.2679V94.5179H38.0893V91.6964Z" fill="black"/>
<path d="M40.9107 91.6964H38.0893V94.5179H40.9107V91.6964Z" fill="black"/>
<path d="M46.5536 91.6964H43.7321V94.5179H46.5536V91.6964Z" fill="black"/>
<path d="M49.375 91.6964H46.5536V94.5179H49.375V91.6964Z" fill="black"/>
<path d="M57.8393 91.6964H55.0179V94.5179H57.8393V91.6964Z" fill="black"/>
<path d="M63.4821 91.6964H60.6607V94.5179H63.4821V91.6964Z" fill="black"/>
<path d="M66.3036 91.6964H63.4821V94.5179H66.3036V91.6964Z" fill="black"/>
<path d="M71.9464 91.6964H69.125V94.5179H71.9464V91.6964Z" fill="black"/>
<path d="M77.5893 91.6964H74.7679V94.5179H77.5893V91.6964Z" fill="black"/>
<path d="M83.2321 91.6964H80.4107V94.5179H83.2321V91.6964Z" fill="black"/>
<path d="M86.0536 91.6964H83.2321V94.5179H86.0536V91.6964Z" fill="black"/>
<path d="M88.875 91.6964H86.0536V94.5179H88.875V91.6964Z" fill="black"/>
<path d="M91.6964 91.6964H88.875V94.5179H91.6964V91.6964Z" fill="black"/>
<path d="M94.5179 91.6964H91.6964V94.5179H94.5179V91.6964Z" fill="black"/>
<path d="M100.161 91.6964H97.3393V94.5179H100.161L100.161 91.6964Z" fill="black"/>
<path d="M105.804 91.6964H102.982V94.5179H105.804V91.6964Z" fill="black"/>
<path d="M114.268 91.6964H111.446L111.446 94.5179H114.268V91.6964Z" fill="black"/>
<path d="M117.089 91.6964H114.268V94.5179H117.089V91.6964Z" fill="black"/>
<path d="M125.554 91.6964H122.732L122.732 94.5179H125.554V91.6964Z" fill="black"/>
<path d="M128.375 91.6964H125.554V94.5179H128.375V91.6964Z" fill="black"/>
<path d="M131.196 91.6964H128.375V94.5179H131.196L131.196 91.6964Z" fill="black"/>
<path d="M134.018 91.6964H131.196L131.196 94.5179H134.018V91.6964Z" fill="black"/>
<path d="M148.125 91.6964H145.304V94.5179H148.125V91.6964Z" fill="black"/>
<path d="M15.5179 94.5179H12.6964V97.3393H15.5179V94.5179Z" fill="black"/>
<path d="M23.9821 94.5179H21.1607V97.3393H23.9821V94.5179Z" fill="black"/>
<path d="M29.625 94.5179L26.8036 94.5179V97.3393H29.625V94.5179Z" fill="black"/>
<path d="M38.0893 94.5179H35.2679V97.3393H38.0893V94.5179Z" fill="black"/>
<path d="M46.5536 94.5179H43.7321V97.3393H46.5536V94.5179Z" fill="black"/>
<path d="M49.375 94.5179H46.5536V97.3393H49.375V94.5179Z" fill="black"/>
<path d="M55.0179 94.5179L52.1964 94.5179V97.3393H55.0179V94.5179Z" fill="black"/>
<path d="M57.8393 94.5179H55.0179V97.3393H57.8393V94.5179Z" fill="black"/>
<path d="M60.6607 94.5179H57.8393V97.3393H60.6607V94.5179Z" fill="black"/>
<path d="M63.4821 94.5179H60.6607V97.3393H63.4821V94.5179Z" fill="black"/>
<path d="M66.3036 94.5179H63.4821V97.3393H66.3036V94.5179Z" fill="black"/>
<path d="M71.9464 94.5179H69.125V97.3393H71.9464V94.5179Z" fill="black"/>
<path d="M77.5893 94.5179H74.7679V97.3393H77.5893V94.5179Z" fill="black"/>
<path d="M80.4107 94.5179H77.5893V97.3393H80.4107V94.5179Z" fill="black"/>
<path d="M83.2321 94.5179H80.4107V97.3393H83.2321V94.5179Z" fill="black"/>
<path d="M88.875 94.5179H86.0536V97.3393H88.875V94.5179Z" fill="black"/>
<path d="M94.5179 94.5179H91.6964V97.3393H94.5179V94.5179Z" fill="black"/>
<path d="M108.625 94.5179L105.804 94.5179L105.804 97.3393H108.625V94.5179Z" fill="black"/>
<path d="M114.268 94.5179H111.446V97.3393H114.268V94.5179Z" fill="black"/>
<path d="M117.089 94.5179H114.268V97.3393H117.089V94.5179Z" fill="black"/>
<path d="M125.554 94.5179H122.732V97.3393H125.554V94.5179Z" fill="black"/>
<path d="M128.375 94.5179H125.554V97.3393H128.375V94.5179Z" fill="black"/>
<path d="M139.661 94.5179H136.839V97.3393H139.661V94.5179Z" fill="black"/>
<path d="M145.304 94.5179L142.482 94.5179V97.3393H145.304V94.5179Z" fill="black"/>
<path d="M148.125 94.5179H145.304V97.3393H148.125V94.5179Z" fill="black"/>
<path d="M15.5179 97.3393H12.6964V100.161H15.5179V97.3393Z" fill="black"/>
<path d="M21.1607 97.3393L18.3393 97.3393V100.161H21.1607V97.3393Z" fill="black"/>
<path d="M23.9821 97.3393H21.1607V100.161H23.9821V97.3393Z" fill="black"/>
<path d="M32.4464 97.3393L29.625 97.3393V100.161H32.4464V97.3393Z" fill="black"/>
<path d="M38.0893 97.3393H35.2679V100.161H38.0893V97.3393Z" fill="black"/>
<path d="M40.9107 97.3393L38.0893 97.3393V100.161H40.9107V97.3393Z" fill="black"/>
<path d="M49.375 97.3393H46.5536V100.161H49.375V97.3393Z" fill="black"/>
<path d="M52.1964 97.3393H49.375V100.161H52.1964V97.3393Z" fill="black"/>
<path d="M55.0179 97.3393H52.1964V100.161H55.0179V97.3393Z" fill="black"/>
<path d="M60.6607 97.3393H57.8393V100.161H60.6607V97.3393Z" fill="black"/>
<path d="M66.3036 97.3393H63.4821V100.161H66.3036V97.3393Z" fill="black"/>
<path d="M69.125 97.3393H66.3036V100.161H69.125V97.3393Z" fill="black"/>
<path d="M71.9464 97.3393H69.125V100.161H71.9464V97.3393Z" fill="black"/>
<path d="M74.7679 97.3393H71.9464V100.161H74.7679V97.3393Z" fill="black"/>
<path d="M80.4107 97.3393H77.5893V100.161H80.4107V97.3393Z" fill="black"/>
<path d="M91.6964 97.3393H88.875L88.875 100.161H91.6964V97.3393Z" fill="black"/>
<path d="M94.5179 97.3393H91.6964V100.161H94.5179V97.3393Z" fill="black"/>
<path d="M97.3393 97.3393L94.5179 97.3393V100.161H97.3393V97.3393Z" fill="black"/>
<path d="M102.982 97.3393H100.161V100.161H102.982V97.3393Z" fill="black"/>
<path d="M108.625 97.3393H105.804V100.161H108.625V97.3393Z" fill="black"/>
<path d="M114.268 97.3393H111.446V100.161H114.268V97.3393Z" fill="black"/>
<path d="M119.911 97.3393L117.089 97.3393L117.089 100.161H119.911V97.3393Z" fill="black"/>
<path d="M122.732 97.3393L119.911 97.3393V100.161H122.732L122.732 97.3393Z" fill="black"/>
<path d="M125.554 97.3393H122.732L122.732 100.161H125.554V97.3393Z" fill="black"/>
<path d="M128.375 97.3393H125.554V100.161H128.375V97.3393Z" fill="black"/>
<path d="M136.839 97.3393L134.018 97.3393V100.161H136.839V97.3393Z" fill="black"/>
<path d="M139.661 97.3393H136.839V100.161H139.661V97.3393Z" fill="black"/>
<path d="M145.304 97.3393H142.482V100.161H145.304V97.3393Z" fill="black"/>
<path d="M12.6964 100.161L9.875 100.161V102.982H12.6964V100.161Z" fill="black"/>
<path d="M15.5179 100.161H12.6964V102.982H15.5179V100.161Z" fill="black"/>
<path d="M18.3393 100.161H15.5179V102.982H18.3393V100.161Z" fill="black"/>
<path d="M23.9821 100.161H21.1607V102.982H23.9821V100.161Z" fill="black"/>
<path d="M29.625 100.161L26.8036 100.161V102.982H29.625V100.161Z" fill="black"/>
<path d="M32.4464 100.161H29.625V102.982H32.4464V100.161Z" fill="black"/>
<path d="M43.7321 100.161L40.9107 100.161V102.982H43.7321V100.161Z" fill="black"/>
<path d="M52.1964 100.161H49.375V102.982H52.1964V100.161Z" fill="black"/>
<path d="M66.3036 100.161H63.4821V102.982H66.3036V100.161Z" fill="black"/>
<path d="M77.5893 100.161H74.7679V102.982H77.5893V100.161Z" fill="black"/>
<path d="M88.875 100.161L86.0536 100.161V102.982H88.875L88.875 100.161Z" fill="black"/>
<path d="M94.5179 100.161H91.6964V102.982H94.5179V100.161Z" fill="black"/>
<path d="M97.3393 100.161H94.5179V102.982H97.3393V100.161Z" fill="black"/>
<path d="M102.982 100.161H100.161V102.982H102.982V100.161Z" fill="black"/>
<path d="M105.804 100.161H102.982V102.982H105.804L105.804 100.161Z" fill="black"/>
<path d="M108.625 100.161H105.804L105.804 102.982H108.625V100.161Z" fill="black"/>
<path d="M111.446 100.161H108.625V102.982H111.446L111.446 100.161Z" fill="black"/>
<path d="M122.732 100.161H119.911L119.911 102.982H122.732V100.161Z" fill="black"/>
<path d="M131.196 100.161L128.375 100.161L128.375 102.982H131.196V100.161Z" fill="black"/>
<path d="M134.018 100.161L131.196 100.161V102.982H134.018L134.018 100.161Z" fill="black"/>
<path d="M139.661 100.161H136.839V102.982H139.661V100.161Z" fill="black"/>
<path d="M15.5179 102.982H12.6964V105.804H15.5179V102.982Z" fill="black"/>
<path d="M26.8036 102.982H23.9821V105.804H26.8036V102.982Z" fill="black"/>
<path d="M35.2679 102.982H32.4464V105.804H35.2679V102.982Z" fill="black"/>
<path d="M40.9107 102.982H38.0893V105.804H40.9107V102.982Z" fill="black"/>
<path d="M46.5536 102.982H43.7321V105.804H46.5536V102.982Z" fill="black"/>
<path d="M52.1964 102.982H49.375V105.804H52.1964V102.982Z" fill="black"/>
<path d="M55.0179 102.982H52.1964V105.804H55.0179V102.982Z" fill="black"/>
<path d="M60.6607 102.982H57.8393V105.804H60.6607V102.982Z" fill="black"/>
<path d="M66.3036 102.982H63.4821V105.804H66.3036V102.982Z" fill="black"/>
<path d="M71.9464 102.982H69.125V105.804H71.9464V102.982Z" fill="black"/>
<path d="M74.7679 102.982H71.9464V105.804H74.7679V102.982Z" fill="black"/>
<path d="M94.5179 102.982H91.6964V105.804H94.5179V102.982Z" fill="black"/>
<path d="M102.982 102.982H100.161V105.804H102.982V102.982Z" fill="black"/>
<path d="M108.625 102.982H105.804L105.804 105.804H108.625V102.982Z" fill="black"/>
<path d="M114.268 102.982H111.446L111.446 105.804H114.268V102.982Z" fill="black"/>
<path d="M119.911 102.982H117.089V105.804H119.911L119.911 102.982Z" fill="black"/>
<path d="M125.554 102.982H122.732L122.732 105.804H125.554V102.982Z" fill="black"/>
<path d="M142.482 102.982H139.661V105.804H142.482V102.982Z" fill="black"/>
<path d="M145.304 102.982H142.482V105.804H145.304V102.982Z" fill="black"/>
<path d="M12.6964 105.804L9.875 105.804V108.625H12.6964V105.804Z" fill="black"/>
<path d="M18.3393 105.804L15.5179 105.804V108.625H18.3393V105.804Z" fill="black"/>
<path d="M26.8036 105.804H23.9821V108.625H26.8036V105.804Z" fill="black"/>
<path d="M29.625 105.804L26.8036 105.804V108.625H29.625V105.804Z" fill="black"/>
<path d="M40.9107 105.804H38.0893V108.625H40.9107V105.804Z" fill="black"/>
<path d="M52.1964 105.804H49.375V108.625H52.1964V105.804Z" fill="black"/>
<path d="M74.7679 105.804H71.9464V108.625H74.7679V105.804Z" fill="black"/>
<path d="M77.5893 105.804L74.7679 105.804V108.625H77.5893V105.804Z" fill="black"/>
<path d="M80.4107 105.804H77.5893V108.625H80.4107V105.804Z" fill="black"/>
<path d="M86.0536 105.804H83.2321V108.625H86.0536V105.804Z" fill="black"/>
<path d="M97.3393 105.804L94.5179 105.804L94.5179 108.625H97.3393V105.804Z" fill="black"/>
<path d="M100.161 105.804L97.3393 105.804V108.625H100.161L100.161 105.804Z" fill="black"/>
<path d="M102.982 105.804H100.161L100.161 108.625H102.982V105.804Z" fill="black"/>
<path d="M105.804 105.804H102.982V108.625H105.804L105.804 105.804Z" fill="black"/>
<path d="M111.446 105.804H108.625L108.625 108.625H111.446L111.446 105.804Z" fill="black"/>
<path d="M114.268 105.804H111.446L111.446 108.625H114.268V105.804Z" fill="black"/>
<path d="M119.911 105.804H117.089V108.625H119.911V105.804Z" fill="black"/>
<path d="M131.196 105.804H128.375V108.625H131.196V105.804Z" fill="black"/>
<path d="M134.018 105.804H131.196V108.625H134.018V105.804Z" fill="black"/>
<path d="M142.482 105.804H139.661V108.625H142.482V105.804Z" fill="black"/>
<path d="M15.5179 108.625H12.6964V111.446H15.5179V108.625Z" fill="black"/>
<path d="M21.1607 108.625L18.3393 108.625V111.446H21.1607V108.625Z" fill="black"/>
<path d="M23.9821 108.625L21.1607 108.625V111.446H23.9821V108.625Z" fill="black"/>
<path d="M26.8036 108.625H23.9821V111.446H26.8036V108.625Z" fill="black"/>
<path d="M32.4464 108.625L29.625 108.625V111.446H32.4464V108.625Z" fill="black"/>
<path d="M35.2679 108.625H32.4464V111.446H35.2679V108.625Z" fill="black"/>
<path d="M38.0893 108.625L35.2679 108.625V111.446H38.0893V108.625Z" fill="black"/>
<path d="M40.9107 108.625H38.0893V111.446H40.9107V108.625Z" fill="black"/>
<path d="M46.5536 108.625H43.7321V111.446H46.5536V108.625Z" fill="black"/>
<path d="M49.375 108.625L46.5536 108.625V111.446H49.375V108.625Z" fill="black"/>
<path d="M52.1964 108.625H49.375V111.446H52.1964V108.625Z" fill="black"/>
<path d="M55.0179 108.625L52.1964 108.625V111.446H55.0179V108.625Z" fill="black"/>
<path d="M60.6607 108.625H57.8393V111.446H60.6607V108.625Z" fill="black"/>
<path d="M69.125 108.625H66.3036V111.446H69.125V108.625Z" fill="black"/>
<path d="M71.9464 108.625L69.125 108.625V111.446H71.9464V108.625Z" fill="black"/>
<path d="M74.7679 108.625H71.9464V111.446H74.7679V108.625Z" fill="black"/>
<path d="M80.4107 108.625H77.5893V111.446H80.4107V108.625Z" fill="black"/>
<path d="M91.6964 108.625H88.875V111.446H91.6964V108.625Z" fill="black"/>
<path d="M94.5179 108.625L91.6964 108.625V111.446H94.5179L94.5179 108.625Z" fill="black"/>
<path d="M102.982 108.625H100.161L100.161 111.446H102.982V108.625Z" fill="black"/>
<path d="M108.625 108.625H105.804L105.804 111.446H108.625L108.625 108.625Z" fill="black"/>
<path d="M114.268 108.625H111.446L111.446 111.446H114.268V108.625Z" fill="black"/>
<path d="M119.911 108.625H117.089V111.446H119.911V108.625Z" fill="black"/>
<path d="M122.732 108.625L119.911 108.625V111.446H122.732V108.625Z" fill="black"/>
<path d="M125.554 108.625H122.732V111.446H125.554V108.625Z" fill="black"/>
<path d="M136.839 108.625L134.018 108.625L134.018 111.446H136.839V108.625Z" fill="black"/>
<path d="M142.482 108.625H139.661V111.446H142.482V108.625Z" fill="black"/>
<path d="M145.304 108.625L142.482 108.625V111.446H145.304V108.625Z" fill="black"/>
<path d="M21.1607 111.446H18.3393V114.268H21.1607V111.446Z" fill="black"/>
<path d="M29.625 111.446H26.8036V114.268H29.625V111.446Z" fill="black"/>
<path d="M35.2679 111.446H32.4464V114.268H35.2679V111.446Z" fill="black"/>
<path d="M46.5536 111.446H43.7321V114.268H46.5536V111.446Z" fill="black"/>
<path d="M52.1964 111.446H49.375V114.268H52.1964V111.446Z" fill="black"/>
<path d="M55.0179 111.446H52.1964V114.268H55.0179V111.446Z" fill="black"/>
<path d="M57.8393 111.446H55.0179V114.268H57.8393V111.446Z" fill="black"/>
<path d="M60.6607 111.446H57.8393V114.268H60.6607V111.446Z" fill="black"/>
<path d="M63.4821 111.446L60.6607 111.446V114.268H63.4821V111.446Z" fill="black"/>
<path d="M69.125 111.446H66.3036V114.268H69.125V111.446Z" fill="black"/>
<path d="M71.9464 111.446H69.125V114.268H71.9464V111.446Z" fill="black"/>
<path d="M80.4107 111.446H77.5893V114.268H80.4107V111.446Z" fill="black"/>
<path d="M86.0536 111.446H83.2321V114.268H86.0536V111.446Z" fill="black"/>
<path d="M91.6964 111.446H88.875V114.268H91.6964V111.446Z" fill="black"/>
<path d="M94.5179 111.446H91.6964V114.268H94.5179V111.446Z" fill="black"/>
<path d="M100.161 111.446L97.3393 111.446V114.268H100.161L100.161 111.446Z" fill="black"/>
<path d="M114.268 111.446H111.446V114.268H114.268V111.446Z" fill="black"/>
<path d="M119.911 111.446H117.089V114.268H119.911V111.446Z" fill="black"/>
<path d="M125.554 111.446H122.732L122.732 114.268H125.554V111.446Z" fill="black"/>
<path d="M128.375 111.446L125.554 111.446V114.268H128.375V111.446Z" fill="black"/>
<path d="M131.196 111.446H128.375V114.268H131.196V111.446Z" fill="black"/>
<path d="M136.839 111.446H134.018V114.268H136.839V111.446Z" fill="black"/>
<path d="M142.482 111.446H139.661V114.268H142.482V111.446Z" fill="black"/>
<path d="M145.304 111.446H142.482V114.268H145.304V111.446Z" fill="black"/>
<path d="M148.125 111.446L145.304 111.446V114.268H148.125V111.446Z" fill="black"/>
<path d="M12.6964 114.268H9.875V117.089H12.6964V114.268Z" fill="black"/>
<path d="M15.5179 114.268H12.6964V117.089H15.5179V114.268Z" fill="black"/>
<path d="M21.1607 114.268H18.3393V117.089H21.1607V114.268Z" fill="black"/>
<path d="M23.9821 114.268H21.1607V117.089H23.9821V114.268Z" fill="black"/>
<path d="M26.8036 114.268H23.9821V117.089H26.8036V114.268Z" fill="black"/>
<path d="M32.4464 114.268H29.625V117.089H32.4464V114.268Z" fill="black"/>
<path d="M35.2679 114.268H32.4464V117.089H35.2679V114.268Z" fill="black"/>
<path d="M38.0893 114.268H35.2679V117.089H38.0893V114.268Z" fill="black"/>
<path d="M52.1964 114.268H49.375V117.089H52.1964V114.268Z" fill="black"/>
<path d="M57.8393 114.268H55.0179V117.089H57.8393V114.268Z" fill="black"/>
<path d="M63.4821 114.268H60.6607V117.089H63.4821V114.268Z" fill="black"/>
<path d="M66.3036 114.268H63.4821V117.089H66.3036V114.268Z" fill="black"/>
<path d="M69.125 114.268H66.3036V117.089H69.125V114.268Z" fill="black"/>
<path d="M88.875 114.268H86.0536V117.089H88.875L88.875 114.268Z" fill="black"/>
<path d="M91.6964 114.268H88.875L88.875 117.089H91.6964V114.268Z" fill="black"/>
<path d="M97.3393 114.268H94.5179L94.5179 117.089H97.3393L97.3393 114.268Z" fill="black"/>
<path d="M100.161 114.268H97.3393L97.3393 117.089H100.161V114.268Z" fill="black"/>
<path d="M105.804 114.268H102.982V117.089H105.804V114.268Z" fill="black"/>
<path d="M111.446 114.268H108.625V117.089H111.446L111.446 114.268Z" fill="black"/>
<path d="M117.089 114.268H114.268V117.089H117.089L117.089 114.268Z" fill="black"/>
<path d="M122.732 114.268H119.911L119.911 117.089H122.732L122.732 114.268Z" fill="black"/>
<path d="M125.554 114.268H122.732L122.732 117.089H125.554V114.268Z" fill="black"/>
<path d="M128.375 114.268H125.554V117.089H128.375V114.268Z" fill="black"/>
<path d="M131.196 114.268H128.375V117.089H131.196V114.268Z" fill="black"/>
<path d="M148.125 114.268H145.304V117.089H148.125V114.268Z" fill="black"/>
<path d="M15.5179 117.089H12.6964V119.911H15.5179V117.089Z" fill="black"/>
<path d="M26.8036 117.089H23.9821V119.911H26.8036V117.089Z" fill="black"/>
<path d="M29.625 117.089H26.8036V119.911H29.625V117.089Z" fill="black"/>
<path d="M35.2679 117.089H32.4464V119.911H35.2679V117.089Z" fill="black"/>
<path d="M43.7321 117.089H40.9107V119.911H43.7321V117.089Z" fill="black"/>
<path d="M52.1964 117.089H49.375V119.911H52.1964V117.089Z" fill="black"/>
<path d="M69.125 117.089H66.3036V119.911H69.125V117.089Z" fill="black"/>
<path d="M74.7679 117.089H71.9464V119.911H74.7679V117.089Z" fill="black"/>
<path d="M80.4107 117.089H77.5893V119.911H80.4107V117.089Z" fill="black"/>
<path d="M86.0536 117.089L83.2321 117.089V119.911H86.0536V117.089Z" fill="black"/>
<path d="M91.6964 117.089H88.875L88.875 119.911H91.6964V117.089Z" fill="black"/>
<path d="M97.3393 117.089H94.5179V119.911H97.3393V117.089Z" fill="black"/>
<path d="M100.161 117.089H97.3393V119.911H100.161V117.089Z" fill="black"/>
<path d="M102.982 117.089H100.161V119.911H102.982V117.089Z" fill="black"/>
<path d="M105.804 117.089H102.982V119.911H105.804V117.089Z" fill="black"/>
<path d="M111.446 117.089H108.625V119.911H111.446V117.089Z" fill="black"/>
<path d="M114.268 117.089H111.446V119.911H114.268V117.089Z" fill="black"/>
<path d="M119.911 117.089H117.089L117.089 119.911H119.911L119.911 117.089Z" fill="black"/>
<path d="M122.732 117.089H119.911L119.911 119.911H122.732V117.089Z" fill="black"/>
<path d="M125.554 117.089H122.732V119.911H125.554V117.089Z" fill="black"/>
<path d="M136.839 117.089H134.018V119.911H136.839V117.089Z" fill="black"/>
<path d="M142.482 117.089H139.661V119.911H142.482V117.089Z" fill="black"/>
<path d="M15.5179 119.911H12.6964V122.732H15.5179V119.911Z" fill="black"/>
<path d="M18.3393 119.911L15.5179 119.911V122.732H18.3393V119.911Z" fill="black"/>
<path d="M21.1607 119.911H18.3393V122.732H21.1607V119.911Z" fill="black"/>
<path d="M35.2679 119.911H32.4464V122.732H35.2679V119.911Z" fill="black"/>
<path d="M40.9107 119.911L38.0893 119.911V122.732H40.9107V119.911Z" fill="black"/>
<path d="M49.375 119.911L46.5536 119.911V122.732H49.375V119.911Z" fill="black"/>
<path d="M52.1964 119.911H49.375V122.732H52.1964V119.911Z" fill="black"/>
<path d="M55.0179 119.911L52.1964 119.911V122.732H55.0179V119.911Z" fill="black"/>
<path d="M60.6607 119.911H57.8393V122.732H60.6607V119.911Z" fill="black"/>
<path d="M63.4821 119.911H60.6607V122.732H63.4821V119.911Z" fill="black"/>
<path d="M66.3036 119.911L63.4821 119.911V122.732H66.3036V119.911Z" fill="black"/>
<path d="M83.2321 119.911H80.4107V122.732H83.2321V119.911Z" fill="black"/>
<path d="M88.875 119.911H86.0536V122.732H88.875L88.875 119.911Z" fill="black"/>
<path d="M91.6964 119.911H88.875L88.875 122.732H91.6964V119.911Z" fill="black"/>
<path d="M94.5179 119.911H91.6964V122.732H94.5179L94.5179 119.911Z" fill="black"/>
<path d="M97.3393 119.911H94.5179L94.5179 122.732H97.3393V119.911Z" fill="black"/>
<path d="M102.982 119.911H100.161L100.161 122.732H102.982V119.911Z" fill="black"/>
<path d="M108.625 119.911H105.804L105.804 122.732H108.625L108.625 119.911Z" fill="black"/>
<path d="M111.446 119.911H108.625L108.625 122.732H111.446V119.911Z" fill="black"/>
<path d="M114.268 119.911H111.446V122.732H114.268V119.911Z" fill="black"/>
<path d="M117.089 119.911H114.268V122.732H117.089L117.089 119.911Z" fill="black"/>
<path d="M119.911 119.911H117.089L117.089 122.732H119.911V119.911Z" fill="black"/>
<path d="M125.554 119.911H122.732L122.732 122.732H125.554V119.911Z" fill="black"/>
<path d="M139.661 119.911H136.839V122.732H139.661V119.911Z" fill="black"/>
<path d="M145.304 119.911L142.482 119.911V122.732H145.304V119.911Z" fill="black"/>
<path d="M12.6964 122.732L9.875 122.732V125.554H12.6964V122.732Z" fill="black"/>
<path d="M15.5179 122.732H12.6964V125.554H15.5179V122.732Z" fill="black"/>
<path d="M18.3393 122.732H15.5179V125.554H18.3393V122.732Z" fill="black"/>
<path d="M29.625 122.732H26.8036V125.554H29.625V122.732Z" fill="black"/>
<path d="M38.0893 122.732H35.2679V125.554H38.0893V122.732Z" fill="black"/>
<path d="M40.9107 122.732H38.0893V125.554H40.9107V122.732Z" fill="black"/>
<path d="M43.7321 122.732L40.9107 122.732V125.554H43.7321V122.732Z" fill="black"/>
<path d="M46.5536 122.732L43.7321 122.732V125.554H46.5536V122.732Z" fill="black"/>
<path d="M57.8393 122.732H55.0179V125.554H57.8393V122.732Z" fill="black"/>
<path d="M63.4821 122.732H60.6607V125.554H63.4821V122.732Z" fill="black"/>
<path d="M66.3036 122.732H63.4821V125.554H66.3036V122.732Z" fill="black"/>
<path d="M69.125 122.732L66.3036 122.732V125.554H69.125V122.732Z" fill="black"/>
<path d="M74.7679 122.732H71.9464V125.554H74.7679V122.732Z" fill="black"/>
<path d="M77.5893 122.732H74.7679V125.554H77.5893V122.732Z" fill="black"/>
<path d="M80.4107 122.732L77.5893 122.732V125.554H80.4107V122.732Z" fill="black"/>
<path d="M83.2321 122.732H80.4107V125.554H83.2321V122.732Z" fill="black"/>
<path d="M86.0536 122.732H83.2321V125.554H86.0536V122.732Z" fill="black"/>
<path d="M91.6964 122.732H88.875L88.875 125.554H91.6964V122.732Z" fill="black"/>
<path d="M97.3393 122.732H94.5179L94.5179 125.554H97.3393V122.732Z" fill="black"/>
<path d="M111.446 122.732H108.625L108.625 125.554H111.446V122.732Z" fill="black"/>
<path d="M119.911 122.732H117.089L117.089 125.554H119.911V122.732Z" fill="black"/>
<path d="M122.732 122.732H119.911V125.554H122.732L122.732 122.732Z" fill="black"/>
<path d="M125.554 122.732H122.732L122.732 125.554H125.554V122.732Z" fill="black"/>
<path d="M128.375 122.732L125.554 122.732V125.554H128.375V122.732Z" fill="black"/>
<path d="M131.196 122.732H128.375V125.554H131.196V122.732Z" fill="black"/>
<path d="M134.018 122.732H131.196V125.554H134.018V122.732Z" fill="black"/>
<path d="M136.839 122.732L134.018 122.732V125.554H136.839V122.732Z" fill="black"/>
<path d="M142.482 122.732H139.661V125.554H142.482V122.732Z" fill="black"/>
<path d="M145.304 122.732H142.482V125.554H145.304V122.732Z" fill="black"/>
<path d="M148.125 122.732L145.304 122.732V125.554H148.125V122.732Z" fill="black"/>
<path d="M40.9107 125.554H38.0893V128.375H40.9107V125.554Z" fill="black"/>
<path d="M55.0179 125.554H52.1964V128.375H55.0179V125.554Z" fill="black"/>
<path d="M60.6607 125.554H57.8393V128.375H60.6607V125.554Z" fill="black"/>
<path d="M66.3036 125.554H63.4821V128.375H66.3036V125.554Z" fill="black"/>
<path d="M69.125 125.554H66.3036V128.375H69.125V125.554Z" fill="black"/>
<path d="M74.7679 125.554H71.9464V128.375H74.7679V125.554Z" fill="black"/>
<path d="M86.0536 125.554H83.2321V128.375H86.0536V125.554Z" fill="black"/>
<path d="M102.982 125.554H100.161V128.375H102.982V125.554Z" fill="black"/>
<path d="M105.804 125.554H102.982V128.375H105.804V125.554Z" fill="black"/>
<path d="M122.732 125.554H119.911L119.911 128.375H122.732V125.554Z" fill="black"/>
<path d="M125.554 125.554H122.732V128.375H125.554V125.554Z" fill="black"/>
<path d="M136.839 125.554H134.018L134.018 128.375H136.839V125.554Z" fill="black"/>
<path d="M139.661 125.554H136.839V128.375H139.661V125.554Z" fill="black"/>
<path d="M142.482 125.554H139.661V128.375H142.482V125.554Z" fill="black"/>
<path d="M148.125 125.554H145.304V128.375H148.125V125.554Z" fill="black"/>
<path d="M12.6964 128.375H9.875V131.196H12.6964V128.375Z" fill="black"/>
<path d="M15.5179 128.375H12.6964V131.196H15.5179V128.375Z" fill="black"/>
<path d="M18.3393 128.375H15.5179V131.196H18.3393V128.375Z" fill="black"/>
<path d="M21.1607 128.375H18.3393V131.196H21.1607V128.375Z" fill="black"/>
<path d="M23.9821 128.375H21.1607V131.196H23.9821V128.375Z" fill="black"/>
<path d="M26.8036 128.375H23.9821V131.196H26.8036V128.375Z" fill="black"/>
<path d="M29.625 128.375H26.8036V131.196H29.625V128.375Z" fill="black"/>
<path d="M35.2679 128.375H32.4464V131.196H35.2679V128.375Z" fill="black"/>
<path d="M38.0893 128.375L35.2679 128.375V131.196H38.0893V128.375Z" fill="black"/>
<path d="M49.375 128.375H46.5536V131.196H49.375V128.375Z" fill="black"/>
<path d="M55.0179 128.375H52.1964V131.196H55.0179V128.375Z" fill="black"/>
<path d="M60.6607 128.375H57.8393V131.196H60.6607V128.375Z" fill="black"/>
<path d="M63.4821 128.375H60.6607V131.196H63.4821V128.375Z" fill="black"/>
<path d="M66.3036 128.375H63.4821V131.196H66.3036V128.375Z" fill="black"/>
<path d="M71.9464 128.375H69.125V131.196H71.9464V128.375Z" fill="black"/>
<path d="M74.7679 128.375H71.9464V131.196H74.7679V128.375Z" fill="black"/>
<path d="M80.4107 128.375H77.5893V131.196H80.4107V128.375Z" fill="black"/>
<path d="M86.0536 128.375H83.2321V131.196H86.0536V128.375Z" fill="black"/>
<path d="M91.6964 128.375H88.875V131.196H91.6964V128.375Z" fill="black"/>
<path d="M94.5179 128.375H91.6964V131.196H94.5179V128.375Z" fill="black"/>
<path d="M97.3393 128.375H94.5179V131.196H97.3393V128.375Z" fill="black"/>
<path d="M100.161 128.375L97.3393 128.375V131.196H100.161L100.161 128.375Z" fill="black"/>
<path d="M108.625 128.375L105.804 128.375L105.804 131.196H108.625V128.375Z" fill="black"/>
<path d="M117.089 128.375H114.268V131.196H117.089V128.375Z" fill="black"/>
<path d="M119.911 128.375L117.089 128.375V131.196H119.911L119.911 128.375Z" fill="black"/>
<path d="M125.554 128.375H122.732L122.732 131.196H125.554V128.375Z" fill="black"/>
<path d="M131.196 128.375H128.375V131.196H131.196V128.375Z" fill="black"/>
<path d="M136.839 128.375H134.018V131.196H136.839V128.375Z" fill="black"/>
<path d="M142.482 128.375H139.661V131.196H142.482V128.375Z" fill="black"/>
<path d="M145.304 128.375H142.482V131.196H145.304V128.375Z" fill="black"/>
<path d="M12.6964 131.196H9.875V134.018H12.6964V131.196Z" fill="black"/>
<path d="M29.625 131.196H26.8036V134.018H29.625V131.196Z" fill="black"/>
<path d="M35.2679 131.196H32.4464V134.018H35.2679V131.196Z" fill="black"/>
<path d="M38.0893 131.196H35.2679V134.018H38.0893V131.196Z" fill="black"/>
<path d="M40.9107 131.196L38.0893 131.196V134.018H40.9107V131.196Z" fill="black"/>
<path d="M43.7321 131.196H40.9107V134.018H43.7321V131.196Z" fill="black"/>
<path d="M57.8393 131.196H55.0179V134.018H57.8393V131.196Z" fill="black"/>
<path d="M63.4821 131.196H60.6607V134.018H63.4821V131.196Z" fill="black"/>
<path d="M66.3036 131.196H63.4821V134.018H66.3036V131.196Z" fill="black"/>
<path d="M71.9464 131.196H69.125V134.018H71.9464V131.196Z" fill="black"/>
<path d="M74.7679 131.196H71.9464V134.018H74.7679V131.196Z" fill="black"/>
<path d="M86.0536 131.196H83.2321V134.018H86.0536V131.196Z" fill="black"/>
<path d="M102.982 131.196L100.161 131.196L100.161 134.018H102.982V131.196Z" fill="black"/>
<path d="M108.625 131.196H105.804V134.018H108.625V131.196Z" fill="black"/>
<path d="M111.446 131.196L108.625 131.196V134.018H111.446V131.196Z" fill="black"/>
<path d="M114.268 131.196L111.446 131.196V134.018H114.268V131.196Z" fill="black"/>
<path d="M119.911 131.196H117.089L117.089 134.018H119.911V131.196Z" fill="black"/>
<path d="M125.554 131.196H122.732V134.018H125.554V131.196Z" fill="black"/>
<path d="M136.839 131.196H134.018V134.018H136.839V131.196Z" fill="black"/>
<path d="M139.661 131.196H136.839V134.018H139.661V131.196Z" fill="black"/>
<path d="M142.482 131.196H139.661V134.018H142.482V131.196Z" fill="black"/>
<path d="M12.6964 134.018H9.875V136.839H12.6964V134.018Z" fill="black"/>
<path d="M18.3393 134.018H15.5179V136.839H18.3393V134.018Z" fill="black"/>
<path d="M21.1607 134.018H18.3393V136.839H21.1607V134.018Z" fill="black"/>
<path d="M23.9821 134.018H21.1607V136.839H23.9821V134.018Z" fill="black"/>
<path d="M29.625 134.018H26.8036V136.839H29.625V134.018Z" fill="black"/>
<path d="M35.2679 134.018H32.4464V136.839H35.2679V134.018Z" fill="black"/>
<path d="M40.9107 134.018H38.0893V136.839H40.9107V134.018Z" fill="black"/>
<path d="M43.7321 134.018H40.9107V136.839H43.7321V134.018Z" fill="black"/>
<path d="M49.375 134.018H46.5536V136.839H49.375V134.018Z" fill="black"/>
<path d="M60.6607 134.018H57.8393V136.839H60.6607V134.018Z" fill="black"/>
<path d="M66.3036 134.018H63.4821V136.839H66.3036V134.018Z" fill="black"/>
<path d="M71.9464 134.018H69.125V136.839H71.9464V134.018Z" fill="black"/>
<path d="M74.7679 134.018H71.9464V136.839H74.7679V134.018Z" fill="black"/>
<path d="M77.5893 134.018L74.7679 134.018V136.839H77.5893V134.018Z" fill="black"/>
<path d="M80.4107 134.018H77.5893V136.839H80.4107V134.018Z" fill="black"/>
<path d="M83.2321 134.018L80.4107 134.018V136.839H83.2321V134.018Z" fill="black"/>
<path d="M86.0536 134.018H83.2321V136.839H86.0536V134.018Z" fill="black"/>
<path d="M91.6964 134.018H88.875V136.839H91.6964V134.018Z" fill="black"/>
<path d="M97.3393 134.018H94.5179V136.839H97.3393V134.018Z" fill="black"/>
<path d="M102.982 134.018H100.161V136.839H102.982V134.018Z" fill="black"/>
<path d="M111.446 134.018H108.625L108.625 136.839H111.446V134.018Z" fill="black"/>
<path d="M114.268 134.018H111.446V136.839H114.268V134.018Z" fill="black"/>
<path d="M119.911 134.018H117.089V136.839H119.911V134.018Z" fill="black"/>
<path d="M125.554 134.018H122.732V136.839H125.554V134.018Z" fill="black"/>
<path d="M128.375 134.018L125.554 134.018V136.839H128.375V134.018Z" fill="black"/>
<path d="M131.196 134.018H128.375V136.839H131.196V134.018Z" fill="black"/>
<path d="M134.018 134.018L131.196 134.018V136.839H134.018L134.018 134.018Z" fill="black"/>
<path d="M136.839 134.018H134.018L134.018 136.839H136.839V134.018Z" fill="black"/>
<path d="M139.661 134.018H136.839V136.839H139.661V134.018Z" fill="black"/>
<path d="M12.6964 136.839H9.875V139.661H12.6964V136.839Z" fill="black"/>
<path d="M18.3393 136.839H15.5179V139.661H18.3393V136.839Z" fill="black"/>
<path d="M21.1607 136.839H18.3393V139.661H21.1607V136.839Z" fill="black"/>
<path d="M23.9821 136.839H21.1607V139.661H23.9821V136.839Z" fill="black"/>
<path d="M29.625 136.839H26.8036V139.661H29.625V136.839Z" fill="black"/>
<path d="M35.2679 136.839H32.4464V139.661H35.2679V136.839Z" fill="black"/>
<path d="M46.5536 136.839H43.7321V139.661H46.5536V136.839Z" fill="black"/>
<path d="M49.375 136.839H46.5536V139.661H49.375V136.839Z" fill="black"/>
<path d="M52.1964 136.839H49.375V139.661H52.1964V136.839Z" fill="black"/>
<path d="M63.4821 136.839H60.6607V139.661H63.4821V136.839Z" fill="black"/>
<path d="M71.9464 136.839H69.125V139.661H71.9464V136.839Z" fill="black"/>
<path d="M83.2321 136.839H80.4107V139.661H83.2321V136.839Z" fill="black"/>
<path d="M91.6964 136.839H88.875V139.661H91.6964V136.839Z" fill="black"/>
<path d="M102.982 136.839H100.161V139.661H102.982V136.839Z" fill="black"/>
<path d="M108.625 136.839H105.804V139.661H108.625L108.625 136.839Z" fill="black"/>
<path d="M117.089 136.839H114.268V139.661H117.089L117.089 136.839Z" fill="black"/>
<path d="M119.911 136.839H117.089L117.089 139.661H119.911V136.839Z" fill="black"/>
<path d="M125.554 136.839H122.732V139.661H125.554V136.839Z" fill="black"/>
<path d="M131.196 136.839H128.375L128.375 139.661H131.196V136.839Z" fill="black"/>
<path d="M134.018 136.839H131.196V139.661H134.018V136.839Z" fill="black"/>
<path d="M145.304 136.839H142.482V139.661H145.304V136.839Z" fill="black"/>
<path d="M12.6964 139.661H9.875V142.482H12.6964V139.661Z" fill="black"/>
<path d="M18.3393 139.661H15.5179V142.482H18.3393V139.661Z" fill="black"/>
<path d="M21.1607 139.661H18.3393V142.482H21.1607V139.661Z" fill="black"/>
<path d="M23.9821 139.661H21.1607V142.482H23.9821V139.661Z" fill="black"/>
<path d="M29.625 139.661H26.8036V142.482H29.625V139.661Z" fill="black"/>
<path d="M35.2679 139.661H32.4464V142.482H35.2679V139.661Z" fill="black"/>
<path d="M38.0893 139.661H35.2679V142.482H38.0893V139.661Z" fill="black"/>
<path d="M46.5536 139.661H43.7321V142.482H46.5536V139.661Z" fill="black"/>
<path d="M49.375 139.661H46.5536V142.482H49.375V139.661Z" fill="black"/>
<path d="M69.125 139.661H66.3036V142.482H69.125V139.661Z" fill="black"/>
<path d="M83.2321 139.661H80.4107V142.482H83.2321V139.661Z" fill="black"/>
<path d="M91.6964 139.661H88.875V142.482H91.6964V139.661Z" fill="black"/>
<path d="M114.268 139.661H111.446V142.482H114.268V139.661Z" fill="black"/>
<path d="M117.089 139.661H114.268V142.482H117.089V139.661Z" fill="black"/>
<path d="M136.839 139.661H134.018L134.018 142.482H136.839V139.661Z" fill="black"/>
<path d="M142.482 139.661H139.661V142.482H142.482V139.661Z" fill="black"/>
<path d="M148.125 139.661H145.304V142.482H148.125V139.661Z" fill="black"/>
<path d="M12.6964 142.482H9.875V145.304H12.6964V142.482Z" fill="black"/>
<path d="M29.625 142.482H26.8036V145.304H29.625V142.482Z" fill="black"/>
<path d="M38.0893 142.482H35.2679V145.304H38.0893V142.482Z" fill="black"/>
<path d="M49.375 142.482H46.5536V145.304H49.375V142.482Z" fill="black"/>
<path d="M52.1964 142.482H49.375V145.304H52.1964V142.482Z" fill="black"/>
<path d="M63.4821 142.482H60.6607V145.304H63.4821V142.482Z" fill="black"/>
<path d="M66.3036 142.482H63.4821V145.304H66.3036V142.482Z" fill="black"/>
<path d="M77.5893 142.482H74.7679V145.304H77.5893V142.482Z" fill="black"/>
<path d="M80.4107 142.482H77.5893V145.304H80.4107V142.482Z" fill="black"/>
<path d="M83.2321 142.482H80.4107V145.304H83.2321V142.482Z" fill="black"/>
<path d="M86.0536 142.482H83.2321V145.304H86.0536V142.482Z" fill="black"/>
<path d="M88.875 142.482H86.0536V145.304H88.875L88.875 142.482Z" fill="black"/>
<path d="M97.3393 142.482H94.5179V145.304H97.3393V142.482Z" fill="black"/>
<path d="M100.161 142.482H97.3393V145.304H100.161V142.482Z" fill="black"/>
<path d="M105.804 142.482H102.982V145.304H105.804V142.482Z" fill="black"/>
<path d="M108.625 142.482H105.804V145.304H108.625V142.482Z" fill="black"/>
<path d="M119.911 142.482H117.089L117.089 145.304H119.911V142.482Z" fill="black"/>
<path d="M125.554 142.482H122.732V145.304H125.554V142.482Z" fill="black"/>
<path d="M131.196 142.482H128.375V145.304H131.196V142.482Z" fill="black"/>
<path d="M134.018 142.482H131.196V145.304H134.018L134.018 142.482Z" fill="black"/>
<path d="M136.839 142.482H134.018L134.018 145.304H136.839V142.482Z" fill="black"/>
<path d="M139.661 142.482H136.839V145.304H139.661V142.482Z" fill="black"/>
<path d="M142.482 142.482H139.661V145.304H142.482V142.482Z" fill="black"/>
<path d="M148.125 142.482H145.304V145.304H148.125V142.482Z" fill="black"/>
<path d="M12.6964 145.304H9.875V148.125H12.6964V145.304Z" fill="black"/>
<path d="M15.5179 145.304H12.6964V148.125H15.5179V145.304Z" fill="black"/>
<path d="M18.3393 145.304H15.5179V148.125H18.3393V145.304Z" fill="black"/>
<path d="M21.1607 145.304H18.3393V148.125H21.1607V145.304Z" fill="black"/>
<path d="M23.9821 145.304H21.1607V148.125H23.9821V145.304Z" fill="black"/>
<path d="M26.8036 145.304H23.9821V148.125H26.8036V145.304Z" fill="black"/>
<path d="M29.625 145.304H26.8036V148.125H29.625V145.304Z" fill="black"/>
<path d="M40.9107 145.304H38.0893V148.125H40.9107V145.304Z" fill="black"/>
<path d="M46.5536 145.304H43.7321V148.125H46.5536V145.304Z" fill="black"/>
<path d="M52.1964 145.304H49.375V148.125H52.1964V145.304Z" fill="black"/>
<path d="M55.0179 145.304H52.1964V148.125H55.0179V145.304Z" fill="black"/>
<path d="M63.4821 145.304H60.6607V148.125H63.4821V145.304Z" fill="black"/>
<path d="M66.3036 145.304H63.4821V148.125H66.3036V145.304Z" fill="black"/>
<path d="M69.125 145.304H66.3036V148.125H69.125V145.304Z" fill="black"/>
<path d="M74.7679 145.304H71.9464V148.125H74.7679V145.304Z" fill="black"/>
<path d="M77.5893 145.304H74.7679V148.125H77.5893V145.304Z" fill="black"/>
<path d="M80.4107 145.304H77.5893V148.125H80.4107V145.304Z" fill="black"/>
<path d="M86.0536 145.304H83.2321V148.125H86.0536V145.304Z" fill="black"/>
<path d="M91.6964 145.304H88.875L88.875 148.125H91.6964V145.304Z" fill="black"/>
<path d="M97.3393 145.304H94.5179V148.125H97.3393V145.304Z" fill="black"/>
<path d="M100.161 145.304H97.3393V148.125H100.161V145.304Z" fill="black"/>
<path d="M108.625 145.304H105.804L105.804 148.125H108.625V145.304Z" fill="black"/>
<path d="M119.911 145.304H117.089V148.125H119.911V145.304Z" fill="black"/>
<path d="M122.732 145.304H119.911V148.125H122.732L122.732 145.304Z" fill="black"/>
<path d="M125.554 145.304H122.732L122.732 148.125H125.554V145.304Z" fill="black"/>
<path d="M128.375 145.304H125.554V148.125H128.375L128.375 145.304Z" fill="black"/>
<path d="M131.196 145.304H128.375L128.375 148.125H131.196V145.304Z" fill="black"/>
<path d="M134.018 145.304H131.196V148.125H134.018V145.304Z" fill="black"/>
<path d="M136.839 145.304H134.018V148.125H136.839V145.304Z" fill="black"/>
<path d="M142.482 145.304H139.661V148.125H142.482V145.304Z" fill="black"/>
<path d="M145.304 145.304H142.482V148.125H145.304V145.304Z" fill="black"/>
<path d="M148.125 145.304H145.304V148.125H148.125V145.304Z" fill="black"/>
</g>
<defs>
<clipPath id="clip0_77_88">
<rect width="158" height="158" rx="15" fill="white"/>
</clipPath>
</defs>
</svg>
