<svg width="158" height="156" viewBox="0 0 158 156" fill="none" xmlns="http://www.w3.org/2000/svg">
<g clip-path="url(#clip0_15_24)">
<path d="M158 0H0V156H158V0Z" fill="#F5F5F5"/>
<path d="M12.9472 9.75H9.875V12.7833H12.9472V9.75Z" fill="#0E0E0E"/>
<path d="M16.0194 9.75H12.9472V12.7833H16.0194V9.75Z" fill="#0E0E0E"/>
<path d="M19.0917 9.75H16.0194V12.7833H19.0917V9.75Z" fill="#0E0E0E"/>
<path d="M22.1639 9.75H19.0917V12.7833H22.1639V9.75Z" fill="#0E0E0E"/>
<path d="M25.2361 9.75H22.1639V12.7833H25.2361V9.75Z" fill="#0E0E0E"/>
<path d="M28.3083 9.75H25.2361V12.7833H28.3083V9.75Z" fill="#0E0E0E"/>
<path d="M31.3806 9.75H28.3083V12.7833H31.3806V9.75Z" fill="#0E0E0E"/>
<path d="M37.525 9.75H34.4528V12.7833H37.525V9.75Z" fill="#0E0E0E"/>
<path d="M46.7417 9.75H43.6694V12.7833H46.7417V9.75Z" fill="#0E0E0E"/>
<path d="M49.8139 9.75H46.7417V12.7833H49.8139V9.75Z" fill="#0E0E0E"/>
<path d="M52.8861 9.75H49.8139V12.7833H52.8861V9.75Z" fill="#0E0E0E"/>
<path d="M55.9583 9.75H52.8861V12.7833H55.9583V9.75Z" fill="#0E0E0E"/>
<path d="M65.175 9.75H62.1028V12.7833H65.175V9.75Z" fill="#0E0E0E"/>
<path d="M74.3917 9.75H71.3194V12.7833H74.3917V9.75Z" fill="#0E0E0E"/>
<path d="M77.4639 9.75H74.3917V12.7833H77.4639V9.75Z" fill="#0E0E0E"/>
<path d="M80.5361 9.75H77.4639V12.7833H80.5361V9.75Z" fill="#0E0E0E"/>
<path d="M89.7528 9.75H86.6805V12.7833H89.7528V9.75Z" fill="#0E0E0E"/>
<path d="M102.042 9.75H98.9694V12.7833H102.042V9.75Z" fill="#0E0E0E"/>
<path d="M105.114 9.75H102.042V12.7833H105.114V9.75Z" fill="#0E0E0E"/>
<path d="M108.186 9.75H105.114V12.7833H108.186V9.75Z" fill="#0E0E0E"/>
<path d="M114.331 9.75H111.258V12.7833H114.331V9.75Z" fill="#0E0E0E"/>
<path d="M123.547 9.75H120.475V12.7833H123.547V9.75Z" fill="#0E0E0E"/>
<path d="M129.692 9.75H126.619V12.7833H129.692V9.75Z" fill="#0E0E0E"/>
<path d="M132.764 9.75H129.692V12.7833H132.764V9.75Z" fill="#0E0E0E"/>
<path d="M135.836 9.75H132.764V12.7833H135.836V9.75Z" fill="#0E0E0E"/>
<path d="M138.908 9.75H135.836V12.7833H138.908V9.75Z" fill="#0E0E0E"/>
<path d="M141.981 9.75H138.908V12.7833H141.981V9.75Z" fill="#0E0E0E"/>
<path d="M145.053 9.75H141.981V12.7833H145.053V9.75Z" fill="#0E0E0E"/>
<path d="M148.125 9.75H145.053V12.7833H148.125V9.75Z" fill="#0E0E0E"/>
<path d="M12.9472 12.7833H9.875V15.8167H12.9472V12.7833Z" fill="#0E0E0E"/>
<path d="M31.3806 12.7833H28.3083V15.8167H31.3806V12.7833Z" fill="#0E0E0E"/>
<path d="M49.8139 12.7833H46.7417V15.8167H49.8139V12.7833Z" fill="#0E0E0E"/>
<path d="M52.8861 12.7833H49.8139V15.8167H52.8861V12.7833Z" fill="#0E0E0E"/>
<path d="M65.175 12.7833H62.1028V15.8167H65.175V12.7833Z" fill="#0E0E0E"/>
<path d="M77.4639 12.7833H74.3917V15.8167H77.4639V12.7833Z" fill="#0E0E0E"/>
<path d="M80.5361 12.7833H77.4639V15.8167H80.5361V12.7833Z" fill="#0E0E0E"/>
<path d="M83.6083 12.7833H80.5361V15.8167H83.6083V12.7833Z" fill="#0E0E0E"/>
<path d="M95.8972 12.7833H92.825V15.8167H95.8972V12.7833Z" fill="#0E0E0E"/>
<path d="M98.9694 12.7833H95.8972V15.8167H98.9694V12.7833Z" fill="#0E0E0E"/>
<path d="M111.258 12.7833H108.186V15.8167H111.258V12.7833Z" fill="#0E0E0E"/>
<path d="M114.331 12.7833H111.258V15.8167H114.331V12.7833Z" fill="#0E0E0E"/>
<path d="M120.475 12.7833H117.403V15.8167H120.475V12.7833Z" fill="#0E0E0E"/>
<path d="M129.692 12.7833H126.619V15.8167H129.692V12.7833Z" fill="#0E0E0E"/>
<path d="M148.125 12.7833H145.053V15.8167H148.125V12.7833Z" fill="#0E0E0E"/>
<path d="M12.9472 15.8167H9.875V18.85H12.9472V15.8167Z" fill="#0E0E0E"/>
<path d="M19.0917 15.8167H16.0194V18.85H19.0917V15.8167Z" fill="#0E0E0E"/>
<path d="M22.1639 15.8167H19.0917V18.85H22.1639V15.8167Z" fill="#0E0E0E"/>
<path d="M25.2361 15.8167H22.1639V18.85H25.2361V15.8167Z" fill="#0E0E0E"/>
<path d="M31.3806 15.8167H28.3083V18.85H31.3806V15.8167Z" fill="#0E0E0E"/>
<path d="M43.6694 15.8167H40.5972V18.85H43.6694V15.8167Z" fill="#0E0E0E"/>
<path d="M46.7417 15.8167H43.6694V18.85H46.7417V15.8167Z" fill="#0E0E0E"/>
<path d="M52.8861 15.8167H49.8139V18.85H52.8861V15.8167Z" fill="#0E0E0E"/>
<path d="M62.1028 15.8167H59.0306V18.85H62.1028V15.8167Z" fill="#0E0E0E"/>
<path d="M68.2472 15.8167H65.175V18.85H68.2472V15.8167Z" fill="#0E0E0E"/>
<path d="M71.3194 15.8167H68.2472V18.85H71.3194V15.8167Z" fill="#0E0E0E"/>
<path d="M74.3917 15.8167H71.3194V18.85H74.3917V15.8167Z" fill="#0E0E0E"/>
<path d="M86.6805 15.8167H83.6083V18.85H86.6805V15.8167Z" fill="#0E0E0E"/>
<path d="M89.7528 15.8167H86.6805V18.85H89.7528V15.8167Z" fill="#0E0E0E"/>
<path d="M92.825 15.8167H89.7528V18.85H92.825V15.8167Z" fill="#0E0E0E"/>
<path d="M98.9694 15.8167H95.8972V18.85H98.9694V15.8167Z" fill="#0E0E0E"/>
<path d="M120.475 15.8167H117.403V18.85H120.475V15.8167Z" fill="#0E0E0E"/>
<path d="M129.692 15.8167H126.619V18.85H129.692V15.8167Z" fill="#0E0E0E"/>
<path d="M135.836 15.8167H132.764V18.85H135.836V15.8167Z" fill="#0E0E0E"/>
<path d="M138.908 15.8167H135.836V18.85H138.908V15.8167Z" fill="#0E0E0E"/>
<path d="M141.981 15.8167H138.908V18.85H141.981V15.8167Z" fill="#0E0E0E"/>
<path d="M148.125 15.8167H145.053V18.85H148.125V15.8167Z" fill="#0E0E0E"/>
<path d="M12.9472 18.85H9.875V21.8833H12.9472V18.85Z" fill="#0E0E0E"/>
<path d="M19.0917 18.85H16.0194V21.8833H19.0917V18.85Z" fill="#0E0E0E"/>
<path d="M22.1639 18.85H19.0917V21.8833H22.1639V18.85Z" fill="#0E0E0E"/>
<path d="M25.2361 18.85H22.1639V21.8833H25.2361V18.85Z" fill="#0E0E0E"/>
<path d="M31.3806 18.85H28.3083V21.8833H31.3806V18.85Z" fill="#0E0E0E"/>
<path d="M40.5972 18.85H37.525V21.8833H40.5972V18.85Z" fill="#0E0E0E"/>
<path d="M43.6694 18.85H40.5972V21.8833H43.6694V18.85Z" fill="#0E0E0E"/>
<path d="M55.9583 18.85H52.8861V21.8833H55.9583V18.85Z" fill="#0E0E0E"/>
<path d="M59.0306 18.85H55.9583V21.8833H59.0306V18.85Z" fill="#0E0E0E"/>
<path d="M62.1028 18.85H59.0306V21.8833H62.1028V18.85Z" fill="#0E0E0E"/>
<path d="M68.2472 18.85H65.175V21.8833H68.2472V18.85Z" fill="#0E0E0E"/>
<path d="M71.3194 18.85H68.2472V21.8833H71.3194V18.85Z" fill="#0E0E0E"/>
<path d="M77.4639 18.85H74.3917V21.8833H77.4639V18.85Z" fill="#0E0E0E"/>
<path d="M80.5361 18.85H77.4639V21.8833H80.5361V18.85Z" fill="#0E0E0E"/>
<path d="M89.7528 18.85H86.6805V21.8833H89.7528V18.85Z" fill="#0E0E0E"/>
<path d="M111.258 18.85H108.186V21.8833H111.258V18.85Z" fill="#0E0E0E"/>
<path d="M120.475 18.85H117.403V21.8833H120.475V18.85Z" fill="#0E0E0E"/>
<path d="M123.547 18.85H120.475V21.8833H123.547V18.85Z" fill="#0E0E0E"/>
<path d="M129.692 18.85H126.619V21.8833H129.692V18.85Z" fill="#0E0E0E"/>
<path d="M135.836 18.85H132.764V21.8833H135.836V18.85Z" fill="#0E0E0E"/>
<path d="M138.908 18.85H135.836V21.8833H138.908V18.85Z" fill="#0E0E0E"/>
<path d="M141.981 18.85H138.908V21.8833H141.981V18.85Z" fill="#0E0E0E"/>
<path d="M148.125 18.85H145.053V21.8833H148.125V18.85Z" fill="#0E0E0E"/>
<path d="M12.9472 21.8833H9.875V24.9167H12.9472V21.8833Z" fill="#0E0E0E"/>
<path d="M19.0917 21.8833H16.0194V24.9167H19.0917V21.8833Z" fill="#0E0E0E"/>
<path d="M22.1639 21.8833H19.0917V24.9167H22.1639V21.8833Z" fill="#0E0E0E"/>
<path d="M25.2361 21.8833H22.1639V24.9167H25.2361V21.8833Z" fill="#0E0E0E"/>
<path d="M31.3806 21.8833H28.3083V24.9167H31.3806V21.8833Z" fill="#0E0E0E"/>
<path d="M37.525 21.8833H34.4528V24.9167H37.525V21.8833Z" fill="#0E0E0E"/>
<path d="M43.6694 21.8833H40.5972V24.9167H43.6694V21.8833Z" fill="#0E0E0E"/>
<path d="M46.7417 21.8833H43.6694V24.9167H46.7417V21.8833Z" fill="#0E0E0E"/>
<path d="M55.9583 21.8833H52.8861V24.9167H55.9583V21.8833Z" fill="#0E0E0E"/>
<path d="M74.3917 21.8833H71.3194V24.9167H74.3917V21.8833Z" fill="#0E0E0E"/>
<path d="M77.4639 21.8833H74.3917V24.9167H77.4639V21.8833Z" fill="#0E0E0E"/>
<path d="M80.5361 21.8833H77.4639V24.9167H80.5361V21.8833Z" fill="#0E0E0E"/>
<path d="M83.6083 21.8833H80.5361V24.9167H83.6083V21.8833Z" fill="#0E0E0E"/>
<path d="M86.6805 21.8833H83.6083V24.9167H86.6805V21.8833Z" fill="#0E0E0E"/>
<path d="M92.825 21.8833H89.7528V24.9167H92.825V21.8833Z" fill="#0E0E0E"/>
<path d="M95.8972 21.8833H92.825V24.9167H95.8972V21.8833Z" fill="#0E0E0E"/>
<path d="M102.042 21.8833H98.9694V24.9167H102.042V21.8833Z" fill="#0E0E0E"/>
<path d="M108.186 21.8833H105.114V24.9167H108.186V21.8833Z" fill="#0E0E0E"/>
<path d="M111.258 21.8833H108.186V24.9167H111.258V21.8833Z" fill="#0E0E0E"/>
<path d="M117.403 21.8833H114.331V24.9167H117.403V21.8833Z" fill="#0E0E0E"/>
<path d="M120.475 21.8833H117.403V24.9167H120.475V21.8833Z" fill="#0E0E0E"/>
<path d="M123.547 21.8833H120.475V24.9167H123.547V21.8833Z" fill="#0E0E0E"/>
<path d="M129.692 21.8833H126.619V24.9167H129.692V21.8833Z" fill="#0E0E0E"/>
<path d="M135.836 21.8833H132.764V24.9167H135.836V21.8833Z" fill="#0E0E0E"/>
<path d="M138.908 21.8833H135.836V24.9167H138.908V21.8833Z" fill="#0E0E0E"/>
<path d="M141.981 21.8833H138.908V24.9167H141.981V21.8833Z" fill="#0E0E0E"/>
<path d="M148.125 21.8833H145.053V24.9167H148.125V21.8833Z" fill="#0E0E0E"/>
<path d="M12.9472 24.9167H9.875V27.95H12.9472V24.9167Z" fill="#0E0E0E"/>
<path d="M31.3806 24.9167H28.3083V27.95H31.3806V24.9167Z" fill="#0E0E0E"/>
<path d="M40.5972 24.9167H37.525V27.95H40.5972V24.9167Z" fill="#0E0E0E"/>
<path d="M46.7417 24.9167H43.6694V27.95H46.7417V24.9167Z" fill="#0E0E0E"/>
<path d="M65.175 24.9167H62.1028V27.95H65.175V24.9167Z" fill="#0E0E0E"/>
<path d="M68.2472 24.9167H65.175V27.95H68.2472V24.9167Z" fill="#0E0E0E"/>
<path d="M71.3194 24.9167H68.2472V27.95H71.3194V24.9167Z" fill="#0E0E0E"/>
<path d="M74.3917 24.9167H71.3194V27.95H74.3917V24.9167Z" fill="#0E0E0E"/>
<path d="M86.6805 24.9167H83.6083V27.95H86.6805V24.9167Z" fill="#0E0E0E"/>
<path d="M92.825 24.9167H89.7528V27.95H92.825V24.9167Z" fill="#0E0E0E"/>
<path d="M95.8972 24.9167H92.825V27.95H95.8972V24.9167Z" fill="#0E0E0E"/>
<path d="M98.9694 24.9167H95.8972V27.95H98.9694V24.9167Z" fill="#0E0E0E"/>
<path d="M105.114 24.9167H102.042V27.95H105.114V24.9167Z" fill="#0E0E0E"/>
<path d="M111.258 24.9167H108.186V27.95H111.258V24.9167Z" fill="#0E0E0E"/>
<path d="M129.692 24.9167H126.619V27.95H129.692V24.9167Z" fill="#0E0E0E"/>
<path d="M148.125 24.9167H145.053V27.95H148.125V24.9167Z" fill="#0E0E0E"/>
<path d="M12.9472 27.95H9.875V30.9833H12.9472V27.95Z" fill="#0E0E0E"/>
<path d="M16.0194 27.95H12.9472V30.9833H16.0194V27.95Z" fill="#0E0E0E"/>
<path d="M19.0917 27.95H16.0194V30.9833H19.0917V27.95Z" fill="#0E0E0E"/>
<path d="M22.1639 27.95H19.0917V30.9833H22.1639V27.95Z" fill="#0E0E0E"/>
<path d="M25.2361 27.95H22.1639V30.9833H25.2361V27.95Z" fill="#0E0E0E"/>
<path d="M28.3083 27.95H25.2361V30.9833H28.3083V27.95Z" fill="#0E0E0E"/>
<path d="M31.3806 27.95H28.3083V30.9833H31.3806V27.95Z" fill="#0E0E0E"/>
<path d="M37.525 27.95H34.4528V30.9833H37.525V27.95Z" fill="#0E0E0E"/>
<path d="M43.6694 27.95H40.5972V30.9833H43.6694V27.95Z" fill="#0E0E0E"/>
<path d="M49.8139 27.95H46.7417V30.9833H49.8139V27.95Z" fill="#0E0E0E"/>
<path d="M55.9583 27.95H52.8861V30.9833H55.9583V27.95Z" fill="#0E0E0E"/>
<path d="M62.1028 27.95H59.0306V30.9833H62.1028V27.95Z" fill="#0E0E0E"/>
<path d="M68.2472 27.95H65.175V30.9833H68.2472V27.95Z" fill="#0E0E0E"/>
<path d="M74.3917 27.95H71.3194V30.9833H74.3917V27.95Z" fill="#0E0E0E"/>
<path d="M80.5361 27.95H77.4639V30.9833H80.5361V27.95Z" fill="#0E0E0E"/>
<path d="M86.6805 27.95H83.6083V30.9833H86.6805V27.95Z" fill="#0E0E0E"/>
<path d="M92.825 27.95H89.7528V30.9833H92.825V27.95Z" fill="#0E0E0E"/>
<path d="M98.9694 27.95H95.8972V30.9833H98.9694V27.95Z" fill="#0E0E0E"/>
<path d="M105.114 27.95H102.042V30.9833H105.114V27.95Z" fill="#0E0E0E"/>
<path d="M111.258 27.95H108.186V30.9833H111.258V27.95Z" fill="#0E0E0E"/>
<path d="M117.403 27.95H114.331V30.9833H117.403V27.95Z" fill="#0E0E0E"/>
<path d="M123.547 27.95H120.475V30.9833H123.547V27.95Z" fill="#0E0E0E"/>
<path d="M129.692 27.95H126.619V30.9833H129.692V27.95Z" fill="#0E0E0E"/>
<path d="M132.764 27.95H129.692V30.9833H132.764V27.95Z" fill="#0E0E0E"/>
<path d="M135.836 27.95H132.764V30.9833H135.836V27.95Z" fill="#0E0E0E"/>
<path d="M138.908 27.95H135.836V30.9833H138.908V27.95Z" fill="#0E0E0E"/>
<path d="M141.981 27.95H138.908V30.9833H141.981V27.95Z" fill="#0E0E0E"/>
<path d="M145.053 27.95H141.981V30.9833H145.053V27.95Z" fill="#0E0E0E"/>
<path d="M148.125 27.95H145.053V30.9833H148.125V27.95Z" fill="#0E0E0E"/>
<path d="M37.525 30.9833H34.4528V34.0167H37.525V30.9833Z" fill="#0E0E0E"/>
<path d="M40.5972 30.9833H37.525V34.0167H40.5972V30.9833Z" fill="#0E0E0E"/>
<path d="M43.6694 30.9833H40.5972V34.0167H43.6694V30.9833Z" fill="#0E0E0E"/>
<path d="M46.7417 30.9833H43.6694V34.0167H46.7417V30.9833Z" fill="#0E0E0E"/>
<path d="M52.8861 30.9833H49.8139V34.0167H52.8861V30.9833Z" fill="#0E0E0E"/>
<path d="M55.9583 30.9833H52.8861V34.0167H55.9583V30.9833Z" fill="#0E0E0E"/>
<path d="M59.0306 30.9833H55.9583V34.0167H59.0306V30.9833Z" fill="#0E0E0E"/>
<path d="M62.1028 30.9833H59.0306V34.0167H62.1028V30.9833Z" fill="#0E0E0E"/>
<path d="M68.2472 30.9833H65.175V34.0167H68.2472V30.9833Z" fill="#0E0E0E"/>
<path d="M71.3194 30.9833H68.2472V34.0167H71.3194V30.9833Z" fill="#0E0E0E"/>
<path d="M74.3917 30.9833H71.3194V34.0167H74.3917V30.9833Z" fill="#0E0E0E"/>
<path d="M86.6805 30.9833H83.6083V34.0167H86.6805V30.9833Z" fill="#0E0E0E"/>
<path d="M89.7528 30.9833H86.6805V34.0167H89.7528V30.9833Z" fill="#0E0E0E"/>
<path d="M92.825 30.9833H89.7528V34.0167H92.825V30.9833Z" fill="#0E0E0E"/>
<path d="M98.9694 30.9833H95.8972V34.0167H98.9694V30.9833Z" fill="#0E0E0E"/>
<path d="M105.114 30.9833H102.042V34.0167H105.114V30.9833Z" fill="#0E0E0E"/>
<path d="M108.186 30.9833H105.114V34.0167H108.186V30.9833Z" fill="#0E0E0E"/>
<path d="M114.331 30.9833H111.258V34.0167H114.331V30.9833Z" fill="#0E0E0E"/>
<path d="M120.475 30.9833H117.403V34.0167H120.475V30.9833Z" fill="#0E0E0E"/>
<path d="M12.9472 34.0167H9.875V37.05H12.9472V34.0167Z" fill="#0E0E0E"/>
<path d="M22.1639 34.0167H19.0917V37.05H22.1639V34.0167Z" fill="#0E0E0E"/>
<path d="M25.2361 34.0167H22.1639V37.05H25.2361V34.0167Z" fill="#0E0E0E"/>
<path d="M28.3083 34.0167H25.2361V37.05H28.3083V34.0167Z" fill="#0E0E0E"/>
<path d="M31.3806 34.0167H28.3083V37.05H31.3806V34.0167Z" fill="#0E0E0E"/>
<path d="M34.4528 34.0167H31.3806V37.05H34.4528V34.0167Z" fill="#0E0E0E"/>
<path d="M37.525 34.0167H34.4528V37.05H37.525V34.0167Z" fill="#0E0E0E"/>
<path d="M40.5972 34.0167H37.525V37.05H40.5972V34.0167Z" fill="#0E0E0E"/>
<path d="M43.6694 34.0167H40.5972V37.05H43.6694V34.0167Z" fill="#0E0E0E"/>
<path d="M49.8139 34.0167H46.7417V37.05H49.8139V34.0167Z" fill="#0E0E0E"/>
<path d="M52.8861 34.0167H49.8139V37.05H52.8861V34.0167Z" fill="#0E0E0E"/>
<path d="M55.9583 34.0167H52.8861V37.05H55.9583V34.0167Z" fill="#0E0E0E"/>
<path d="M71.3194 34.0167H68.2472V37.05H71.3194V34.0167Z" fill="#0E0E0E"/>
<path d="M74.3917 34.0167H71.3194V37.05H74.3917V34.0167Z" fill="#0E0E0E"/>
<path d="M77.4639 34.0167H74.3917V37.05H77.4639V34.0167Z" fill="#0E0E0E"/>
<path d="M80.5361 34.0167H77.4639V37.05H80.5361V34.0167Z" fill="#0E0E0E"/>
<path d="M83.6083 34.0167H80.5361V37.05H83.6083V34.0167Z" fill="#0E0E0E"/>
<path d="M86.6805 34.0167H83.6083V37.05H86.6805V34.0167Z" fill="#0E0E0E"/>
<path d="M92.825 34.0167H89.7528V37.05H92.825V34.0167Z" fill="#0E0E0E"/>
<path d="M95.8972 34.0167H92.825V37.05H95.8972V34.0167Z" fill="#0E0E0E"/>
<path d="M98.9694 34.0167H95.8972V37.05H98.9694V34.0167Z" fill="#0E0E0E"/>
<path d="M114.331 34.0167H111.258V37.05H114.331V34.0167Z" fill="#0E0E0E"/>
<path d="M117.403 34.0167H114.331V37.05H117.403V34.0167Z" fill="#0E0E0E"/>
<path d="M126.619 34.0167H123.547V37.05H126.619V34.0167Z" fill="#0E0E0E"/>
<path d="M129.692 34.0167H126.619V37.05H129.692V34.0167Z" fill="#0E0E0E"/>
<path d="M135.836 34.0167H132.764V37.05H135.836V34.0167Z" fill="#0E0E0E"/>
<path d="M148.125 34.0167H145.053V37.05H148.125V34.0167Z" fill="#0E0E0E"/>
<path d="M22.1639 37.05H19.0917V40.0833H22.1639V37.05Z" fill="#0E0E0E"/>
<path d="M28.3083 37.05H25.2361V40.0833H28.3083V37.05Z" fill="#0E0E0E"/>
<path d="M46.7417 37.05H43.6694V40.0833H46.7417V37.05Z" fill="#0E0E0E"/>
<path d="M59.0306 37.05H55.9583V40.0833H59.0306V37.05Z" fill="#0E0E0E"/>
<path d="M62.1028 37.05H59.0306V40.0833H62.1028V37.05Z" fill="#0E0E0E"/>
<path d="M65.175 37.05H62.1028V40.0833H65.175V37.05Z" fill="#0E0E0E"/>
<path d="M74.3917 37.05H71.3194V40.0833H74.3917V37.05Z" fill="#0E0E0E"/>
<path d="M77.4639 37.05H74.3917V40.0833H77.4639V37.05Z" fill="#0E0E0E"/>
<path d="M86.6805 37.05H83.6083V40.0833H86.6805V37.05Z" fill="#0E0E0E"/>
<path d="M89.7528 37.05H86.6805V40.0833H89.7528V37.05Z" fill="#0E0E0E"/>
<path d="M92.825 37.05H89.7528V40.0833H92.825V37.05Z" fill="#0E0E0E"/>
<path d="M95.8972 37.05H92.825V40.0833H95.8972V37.05Z" fill="#0E0E0E"/>
<path d="M98.9694 37.05H95.8972V40.0833H98.9694V37.05Z" fill="#0E0E0E"/>
<path d="M114.331 37.05H111.258V40.0833H114.331V37.05Z" fill="#0E0E0E"/>
<path d="M117.403 37.05H114.331V40.0833H117.403V37.05Z" fill="#0E0E0E"/>
<path d="M132.764 37.05H129.692V40.0833H132.764V37.05Z" fill="#0E0E0E"/>
<path d="M135.836 37.05H132.764V40.0833H135.836V37.05Z" fill="#0E0E0E"/>
<path d="M138.908 37.05H135.836V40.0833H138.908V37.05Z" fill="#0E0E0E"/>
<path d="M148.125 37.05H145.053V40.0833H148.125V37.05Z" fill="#0E0E0E"/>
<path d="M12.9472 40.0833H9.875V43.1167H12.9472V40.0833Z" fill="#0E0E0E"/>
<path d="M19.0917 40.0833H16.0194V43.1167H19.0917V40.0833Z" fill="#0E0E0E"/>
<path d="M22.1639 40.0833H19.0917V43.1167H22.1639V40.0833Z" fill="#0E0E0E"/>
<path d="M25.2361 40.0833H22.1639V43.1167H25.2361V40.0833Z" fill="#0E0E0E"/>
<path d="M31.3806 40.0833H28.3083V43.1167H31.3806V40.0833Z" fill="#0E0E0E"/>
<path d="M34.4528 40.0833H31.3806V43.1167H34.4528V40.0833Z" fill="#0E0E0E"/>
<path d="M43.6694 40.0833H40.5972V43.1167H43.6694V40.0833Z" fill="#0E0E0E"/>
<path d="M46.7417 40.0833H43.6694V43.1167H46.7417V40.0833Z" fill="#0E0E0E"/>
<path d="M52.8861 40.0833H49.8139V43.1167H52.8861V40.0833Z" fill="#0E0E0E"/>
<path d="M59.0306 40.0833H55.9583V43.1167H59.0306V40.0833Z" fill="#0E0E0E"/>
<path d="M68.2472 40.0833H65.175V43.1167H68.2472V40.0833Z" fill="#0E0E0E"/>
<path d="M71.3194 40.0833H68.2472V43.1167H71.3194V40.0833Z" fill="#0E0E0E"/>
<path d="M74.3917 40.0833H71.3194V43.1167H74.3917V40.0833Z" fill="#0E0E0E"/>
<path d="M77.4639 40.0833H74.3917V43.1167H77.4639V40.0833Z" fill="#0E0E0E"/>
<path d="M83.6083 40.0833H80.5361V43.1167H83.6083V40.0833Z" fill="#0E0E0E"/>
<path d="M86.6805 40.0833H83.6083V43.1167H86.6805V40.0833Z" fill="#0E0E0E"/>
<path d="M92.825 40.0833H89.7528V43.1167H92.825V40.0833Z" fill="#0E0E0E"/>
<path d="M102.042 40.0833H98.9694V43.1167H102.042V40.0833Z" fill="#0E0E0E"/>
<path d="M108.186 40.0833H105.114V43.1167H108.186V40.0833Z" fill="#0E0E0E"/>
<path d="M120.475 40.0833H117.403V43.1167H120.475V40.0833Z" fill="#0E0E0E"/>
<path d="M123.547 40.0833H120.475V43.1167H123.547V40.0833Z" fill="#0E0E0E"/>
<path d="M126.619 40.0833H123.547V43.1167H126.619V40.0833Z" fill="#0E0E0E"/>
<path d="M135.836 40.0833H132.764V43.1167H135.836V40.0833Z" fill="#0E0E0E"/>
<path d="M138.908 40.0833H135.836V43.1167H138.908V40.0833Z" fill="#0E0E0E"/>
<path d="M141.981 40.0833H138.908V43.1167H141.981V40.0833Z" fill="#0E0E0E"/>
<path d="M145.053 40.0833H141.981V43.1167H145.053V40.0833Z" fill="#0E0E0E"/>
<path d="M148.125 40.0833H145.053V43.1167H148.125V40.0833Z" fill="#0E0E0E"/>
<path d="M16.0194 43.1167H12.9472V46.15H16.0194V43.1167Z" fill="#0E0E0E"/>
<path d="M25.2361 43.1167H22.1639V46.15H25.2361V43.1167Z" fill="#0E0E0E"/>
<path d="M37.525 43.1167H34.4528V46.15H37.525V43.1167Z" fill="#0E0E0E"/>
<path d="M43.6694 43.1167H40.5972V46.15H43.6694V43.1167Z" fill="#0E0E0E"/>
<path d="M46.7417 43.1167H43.6694V46.15H46.7417V43.1167Z" fill="#0E0E0E"/>
<path d="M49.8139 43.1167H46.7417V46.15H49.8139V43.1167Z" fill="#0E0E0E"/>
<path d="M52.8861 43.1167H49.8139V46.15H52.8861V43.1167Z" fill="#0E0E0E"/>
<path d="M59.0306 43.1167H55.9583V46.15H59.0306V43.1167Z" fill="#0E0E0E"/>
<path d="M62.1028 43.1167H59.0306V46.15H62.1028V43.1167Z" fill="#0E0E0E"/>
<path d="M65.175 43.1167H62.1028V46.15H65.175V43.1167Z" fill="#0E0E0E"/>
<path d="M68.2472 43.1167H65.175V46.15H68.2472V43.1167Z" fill="#0E0E0E"/>
<path d="M80.5361 43.1167H77.4639V46.15H80.5361V43.1167Z" fill="#0E0E0E"/>
<path d="M83.6083 43.1167H80.5361V46.15H83.6083V43.1167Z" fill="#0E0E0E"/>
<path d="M89.7528 43.1167H86.6805V46.15H89.7528V43.1167Z" fill="#0E0E0E"/>
<path d="M98.9694 43.1167H95.8972V46.15H98.9694V43.1167Z" fill="#0E0E0E"/>
<path d="M102.042 43.1167H98.9694V46.15H102.042V43.1167Z" fill="#0E0E0E"/>
<path d="M111.258 43.1167H108.186V46.15H111.258V43.1167Z" fill="#0E0E0E"/>
<path d="M117.403 43.1167H114.331V46.15H117.403V43.1167Z" fill="#0E0E0E"/>
<path d="M120.475 43.1167H117.403V46.15H120.475V43.1167Z" fill="#0E0E0E"/>
<path d="M126.619 43.1167H123.547V46.15H126.619V43.1167Z" fill="#0E0E0E"/>
<path d="M132.764 43.1167H129.692V46.15H132.764V43.1167Z" fill="#0E0E0E"/>
<path d="M135.836 43.1167H132.764V46.15H135.836V43.1167Z" fill="#0E0E0E"/>
<path d="M145.053 43.1167H141.981V46.15H145.053V43.1167Z" fill="#0E0E0E"/>
<path d="M12.9472 46.15H9.875V49.1833H12.9472V46.15Z" fill="#0E0E0E"/>
<path d="M19.0917 46.15H16.0194V49.1833H19.0917V46.15Z" fill="#0E0E0E"/>
<path d="M22.1639 46.15H19.0917V49.1833H22.1639V46.15Z" fill="#0E0E0E"/>
<path d="M28.3083 46.15H25.2361V49.1833H28.3083V46.15Z" fill="#0E0E0E"/>
<path d="M31.3806 46.15H28.3083V49.1833H31.3806V46.15Z" fill="#0E0E0E"/>
<path d="M34.4528 46.15H31.3806V49.1833H34.4528V46.15Z" fill="#0E0E0E"/>
<path d="M40.5972 46.15H37.525V49.1833H40.5972V46.15Z" fill="#0E0E0E"/>
<path d="M43.6694 46.15H40.5972V49.1833H43.6694V46.15Z" fill="#0E0E0E"/>
<path d="M49.8139 46.15H46.7417V49.1833H49.8139V46.15Z" fill="#0E0E0E"/>
<path d="M52.8861 46.15H49.8139V49.1833H52.8861V46.15Z" fill="#0E0E0E"/>
<path d="M55.9583 46.15H52.8861V49.1833H55.9583V46.15Z" fill="#0E0E0E"/>
<path d="M59.0306 46.15H55.9583V49.1833H59.0306V46.15Z" fill="#0E0E0E"/>
<path d="M62.1028 46.15H59.0306V49.1833H62.1028V46.15Z" fill="#0E0E0E"/>
<path d="M65.175 46.15H62.1028V49.1833H65.175V46.15Z" fill="#0E0E0E"/>
<path d="M68.2472 46.15H65.175V49.1833H68.2472V46.15Z" fill="#0E0E0E"/>
<path d="M71.3194 46.15H68.2472V49.1833H71.3194V46.15Z" fill="#0E0E0E"/>
<path d="M74.3917 46.15H71.3194V49.1833H74.3917V46.15Z" fill="#0E0E0E"/>
<path d="M89.7528 46.15H86.6805V49.1833H89.7528V46.15Z" fill="#0E0E0E"/>
<path d="M92.825 46.15H89.7528V49.1833H92.825V46.15Z" fill="#0E0E0E"/>
<path d="M95.8972 46.15H92.825V49.1833H95.8972V46.15Z" fill="#0E0E0E"/>
<path d="M98.9694 46.15H95.8972V49.1833H98.9694V46.15Z" fill="#0E0E0E"/>
<path d="M105.114 46.15H102.042V49.1833H105.114V46.15Z" fill="#0E0E0E"/>
<path d="M108.186 46.15H105.114V49.1833H108.186V46.15Z" fill="#0E0E0E"/>
<path d="M114.331 46.15H111.258V49.1833H114.331V46.15Z" fill="#0E0E0E"/>
<path d="M129.692 46.15H126.619V49.1833H129.692V46.15Z" fill="#0E0E0E"/>
<path d="M135.836 46.15H132.764V49.1833H135.836V46.15Z" fill="#0E0E0E"/>
<path d="M138.908 46.15H135.836V49.1833H138.908V46.15Z" fill="#0E0E0E"/>
<path d="M12.9472 49.1833H9.875V52.2167H12.9472V49.1833Z" fill="#0E0E0E"/>
<path d="M19.0917 49.1833H16.0194V52.2167H19.0917V49.1833Z" fill="#0E0E0E"/>
<path d="M40.5972 49.1833H37.525V52.2167H40.5972V49.1833Z" fill="#0E0E0E"/>
<path d="M46.7417 49.1833H43.6694V52.2167H46.7417V49.1833Z" fill="#0E0E0E"/>
<path d="M52.8861 49.1833H49.8139V52.2167H52.8861V49.1833Z" fill="#0E0E0E"/>
<path d="M62.1028 49.1833H59.0306V52.2167H62.1028V49.1833Z" fill="#0E0E0E"/>
<path d="M65.175 49.1833H62.1028V52.2167H65.175V49.1833Z" fill="#0E0E0E"/>
<path d="M68.2472 49.1833H65.175V52.2167H68.2472V49.1833Z" fill="#0E0E0E"/>
<path d="M71.3194 49.1833H68.2472V52.2167H71.3194V49.1833Z" fill="#0E0E0E"/>
<path d="M74.3917 49.1833H71.3194V52.2167H74.3917V49.1833Z" fill="#0E0E0E"/>
<path d="M102.042 49.1833H98.9694V52.2167H102.042V49.1833Z" fill="#0E0E0E"/>
<path d="M105.114 49.1833H102.042V52.2167H105.114V49.1833Z" fill="#0E0E0E"/>
<path d="M108.186 49.1833H105.114V52.2167H108.186V49.1833Z" fill="#0E0E0E"/>
<path d="M114.331 49.1833H111.258V52.2167H114.331V49.1833Z" fill="#0E0E0E"/>
<path d="M117.403 49.1833H114.331V52.2167H117.403V49.1833Z" fill="#0E0E0E"/>
<path d="M120.475 49.1833H117.403V52.2167H120.475V49.1833Z" fill="#0E0E0E"/>
<path d="M123.547 49.1833H120.475V52.2167H123.547V49.1833Z" fill="#0E0E0E"/>
<path d="M126.619 49.1833H123.547V52.2167H126.619V49.1833Z" fill="#0E0E0E"/>
<path d="M132.764 49.1833H129.692V52.2167H132.764V49.1833Z" fill="#0E0E0E"/>
<path d="M145.053 49.1833H141.981V52.2167H145.053V49.1833Z" fill="#0E0E0E"/>
<path d="M16.0194 52.2167H12.9472V55.25H16.0194V52.2167Z" fill="#0E0E0E"/>
<path d="M19.0917 52.2167H16.0194V55.25H19.0917V52.2167Z" fill="#0E0E0E"/>
<path d="M25.2361 52.2167H22.1639V55.25H25.2361V52.2167Z" fill="#0E0E0E"/>
<path d="M28.3083 52.2167H25.2361V55.25H28.3083V52.2167Z" fill="#0E0E0E"/>
<path d="M31.3806 52.2167H28.3083V55.25H31.3806V52.2167Z" fill="#0E0E0E"/>
<path d="M34.4528 52.2167H31.3806V55.25H34.4528V52.2167Z" fill="#0E0E0E"/>
<path d="M37.525 52.2167H34.4528V55.25H37.525V52.2167Z" fill="#0E0E0E"/>
<path d="M40.5972 52.2167H37.525V55.25H40.5972V52.2167Z" fill="#0E0E0E"/>
<path d="M46.7417 52.2167H43.6694V55.25H46.7417V52.2167Z" fill="#0E0E0E"/>
<path d="M49.8139 52.2167H46.7417V55.25H49.8139V52.2167Z" fill="#0E0E0E"/>
<path d="M55.9583 52.2167H52.8861V55.25H55.9583V52.2167Z" fill="#0E0E0E"/>
<path d="M62.1028 52.2167H59.0306V55.25H62.1028V52.2167Z" fill="#0E0E0E"/>
<path d="M71.3194 52.2167H68.2472V55.25H71.3194V52.2167Z" fill="#0E0E0E"/>
<path d="M80.5361 52.2167H77.4639V55.25H80.5361V52.2167Z" fill="#0E0E0E"/>
<path d="M83.6083 52.2167H80.5361V55.25H83.6083V52.2167Z" fill="#0E0E0E"/>
<path d="M86.6805 52.2167H83.6083V55.25H86.6805V52.2167Z" fill="#0E0E0E"/>
<path d="M89.7528 52.2167H86.6805V55.25H89.7528V52.2167Z" fill="#0E0E0E"/>
<path d="M95.8972 52.2167H92.825V55.25H95.8972V52.2167Z" fill="#0E0E0E"/>
<path d="M98.9694 52.2167H95.8972V55.25H98.9694V52.2167Z" fill="#0E0E0E"/>
<path d="M102.042 52.2167H98.9694V55.25H102.042V52.2167Z" fill="#0E0E0E"/>
<path d="M105.114 52.2167H102.042V55.25H105.114V52.2167Z" fill="#0E0E0E"/>
<path d="M108.186 52.2167H105.114V55.25H108.186V52.2167Z" fill="#0E0E0E"/>
<path d="M111.258 52.2167H108.186V55.25H111.258V52.2167Z" fill="#0E0E0E"/>
<path d="M120.475 52.2167H117.403V55.25H120.475V52.2167Z" fill="#0E0E0E"/>
<path d="M123.547 52.2167H120.475V55.25H123.547V52.2167Z" fill="#0E0E0E"/>
<path d="M126.619 52.2167H123.547V55.25H126.619V52.2167Z" fill="#0E0E0E"/>
<path d="M132.764 52.2167H129.692V55.25H132.764V52.2167Z" fill="#0E0E0E"/>
<path d="M141.981 52.2167H138.908V55.25H141.981V52.2167Z" fill="#0E0E0E"/>
<path d="M145.053 52.2167H141.981V55.25H145.053V52.2167Z" fill="#0E0E0E"/>
<path d="M16.0194 55.25H12.9472V58.2833H16.0194V55.25Z" fill="#0E0E0E"/>
<path d="M34.4528 55.25H31.3806V58.2833H34.4528V55.25Z" fill="#0E0E0E"/>
<path d="M52.8861 55.25H49.8139V58.2833H52.8861V55.25Z" fill="#0E0E0E"/>
<path d="M59.0306 55.25H55.9583V58.2833H59.0306V55.25Z" fill="#0E0E0E"/>
<path d="M62.1028 55.25H59.0306V58.2833H62.1028V55.25Z" fill="#0E0E0E"/>
<path d="M68.2472 55.25H65.175V58.2833H68.2472V55.25Z" fill="#0E0E0E"/>
<path d="M71.3194 55.25H68.2472V58.2833H71.3194V55.25Z" fill="#0E0E0E"/>
<path d="M83.6083 55.25H80.5361V58.2833H83.6083V55.25Z" fill="#0E0E0E"/>
<path d="M95.8972 55.25H92.825V58.2833H95.8972V55.25Z" fill="#0E0E0E"/>
<path d="M102.042 55.25H98.9694V58.2833H102.042V55.25Z" fill="#0E0E0E"/>
<path d="M105.114 55.25H102.042V58.2833H105.114V55.25Z" fill="#0E0E0E"/>
<path d="M123.547 55.25H120.475V58.2833H123.547V55.25Z" fill="#0E0E0E"/>
<path d="M126.619 55.25H123.547V58.2833H126.619V55.25Z" fill="#0E0E0E"/>
<path d="M135.836 55.25H132.764V58.2833H135.836V55.25Z" fill="#0E0E0E"/>
<path d="M138.908 55.25H135.836V58.2833H138.908V55.25Z" fill="#0E0E0E"/>
<path d="M141.981 55.25H138.908V58.2833H141.981V55.25Z" fill="#0E0E0E"/>
<path d="M145.053 55.25H141.981V58.2833H145.053V55.25Z" fill="#0E0E0E"/>
<path d="M148.125 55.25H145.053V58.2833H148.125V55.25Z" fill="#0E0E0E"/>
<path d="M12.9472 58.2833H9.875V61.3167H12.9472V58.2833Z" fill="#0E0E0E"/>
<path d="M16.0194 58.2833H12.9472V61.3167H16.0194V58.2833Z" fill="#0E0E0E"/>
<path d="M22.1639 58.2833H19.0917V61.3167H22.1639V58.2833Z" fill="#0E0E0E"/>
<path d="M25.2361 58.2833H22.1639V61.3167H25.2361V58.2833Z" fill="#0E0E0E"/>
<path d="M31.3806 58.2833H28.3083V61.3167H31.3806V58.2833Z" fill="#0E0E0E"/>
<path d="M37.525 58.2833H34.4528V61.3167H37.525V58.2833Z" fill="#0E0E0E"/>
<path d="M40.5972 58.2833H37.525V61.3167H40.5972V58.2833Z" fill="#0E0E0E"/>
<path d="M46.7417 58.2833H43.6694V61.3167H46.7417V58.2833Z" fill="#0E0E0E"/>
<path d="M52.8861 58.2833H49.8139V61.3167H52.8861V58.2833Z" fill="#0E0E0E"/>
<path d="M59.0306 58.2833H55.9583V61.3167H59.0306V58.2833Z" fill="#0E0E0E"/>
<path d="M62.1028 58.2833H59.0306V61.3167H62.1028V58.2833Z" fill="#0E0E0E"/>
<path d="M65.175 58.2833H62.1028V61.3167H65.175V58.2833Z" fill="#0E0E0E"/>
<path d="M80.5361 58.2833H77.4639V61.3167H80.5361V58.2833Z" fill="#0E0E0E"/>
<path d="M86.6805 58.2833H83.6083V61.3167H86.6805V58.2833Z" fill="#0E0E0E"/>
<path d="M95.8972 58.2833H92.825V61.3167H95.8972V58.2833Z" fill="#0E0E0E"/>
<path d="M98.9694 58.2833H95.8972V61.3167H98.9694V58.2833Z" fill="#0E0E0E"/>
<path d="M108.186 58.2833H105.114V61.3167H108.186V58.2833Z" fill="#0E0E0E"/>
<path d="M111.258 58.2833H108.186V61.3167H111.258V58.2833Z" fill="#0E0E0E"/>
<path d="M120.475 58.2833H117.403V61.3167H120.475V58.2833Z" fill="#0E0E0E"/>
<path d="M123.547 58.2833H120.475V61.3167H123.547V58.2833Z" fill="#0E0E0E"/>
<path d="M132.764 58.2833H129.692V61.3167H132.764V58.2833Z" fill="#0E0E0E"/>
<path d="M135.836 58.2833H132.764V61.3167H135.836V58.2833Z" fill="#0E0E0E"/>
<path d="M138.908 58.2833H135.836V61.3167H138.908V58.2833Z" fill="#0E0E0E"/>
<path d="M12.9472 61.3167H9.875V64.35H12.9472V61.3167Z" fill="#0E0E0E"/>
<path d="M16.0194 61.3167H12.9472V64.35H16.0194V61.3167Z" fill="#0E0E0E"/>
<path d="M19.0917 61.3167H16.0194V64.35H19.0917V61.3167Z" fill="#0E0E0E"/>
<path d="M28.3083 61.3167H25.2361V64.35H28.3083V61.3167Z" fill="#0E0E0E"/>
<path d="M34.4528 61.3167H31.3806V64.35H34.4528V61.3167Z" fill="#0E0E0E"/>
<path d="M37.525 61.3167H34.4528V64.35H37.525V61.3167Z" fill="#0E0E0E"/>
<path d="M43.6694 61.3167H40.5972V64.35H43.6694V61.3167Z" fill="#0E0E0E"/>
<path d="M46.7417 61.3167H43.6694V64.35H46.7417V61.3167Z" fill="#0E0E0E"/>
<path d="M49.8139 61.3167H46.7417V64.35H49.8139V61.3167Z" fill="#0E0E0E"/>
<path d="M52.8861 61.3167H49.8139V64.35H52.8861V61.3167Z" fill="#0E0E0E"/>
<path d="M62.1028 61.3167H59.0306V64.35H62.1028V61.3167Z" fill="#0E0E0E"/>
<path d="M65.175 61.3167H62.1028V64.35H65.175V61.3167Z" fill="#0E0E0E"/>
<path d="M74.3917 61.3167H71.3194V64.35H74.3917V61.3167Z" fill="#0E0E0E"/>
<path d="M77.4639 61.3167H74.3917V64.35H77.4639V61.3167Z" fill="#0E0E0E"/>
<path d="M80.5361 61.3167H77.4639V64.35H80.5361V61.3167Z" fill="#0E0E0E"/>
<path d="M89.7528 61.3167H86.6805V64.35H89.7528V61.3167Z" fill="#0E0E0E"/>
<path d="M92.825 61.3167H89.7528V64.35H92.825V61.3167Z" fill="#0E0E0E"/>
<path d="M102.042 61.3167H98.9694V64.35H102.042V61.3167Z" fill="#0E0E0E"/>
<path d="M114.331 61.3167H111.258V64.35H114.331V61.3167Z" fill="#0E0E0E"/>
<path d="M123.547 61.3167H120.475V64.35H123.547V61.3167Z" fill="#0E0E0E"/>
<path d="M138.908 61.3167H135.836V64.35H138.908V61.3167Z" fill="#0E0E0E"/>
<path d="M141.981 61.3167H138.908V64.35H141.981V61.3167Z" fill="#0E0E0E"/>
<path d="M145.053 61.3167H141.981V64.35H145.053V61.3167Z" fill="#0E0E0E"/>
<path d="M148.125 61.3167H145.053V64.35H148.125V61.3167Z" fill="#0E0E0E"/>
<path d="M16.0194 64.35H12.9472V67.3833H16.0194V64.35Z" fill="#0E0E0E"/>
<path d="M31.3806 64.35H28.3083V67.3833H31.3806V64.35Z" fill="#0E0E0E"/>
<path d="M34.4528 64.35H31.3806V67.3833H34.4528V64.35Z" fill="#0E0E0E"/>
<path d="M40.5972 64.35H37.525V67.3833H40.5972V64.35Z" fill="#0E0E0E"/>
<path d="M46.7417 64.35H43.6694V67.3833H46.7417V64.35Z" fill="#0E0E0E"/>
<path d="M49.8139 64.35H46.7417V67.3833H49.8139V64.35Z" fill="#0E0E0E"/>
<path d="M52.8861 64.35H49.8139V67.3833H52.8861V64.35Z" fill="#0E0E0E"/>
<path d="M55.9583 64.35H52.8861V67.3833H55.9583V64.35Z" fill="#0E0E0E"/>
<path d="M59.0306 64.35H55.9583V67.3833H59.0306V64.35Z" fill="#0E0E0E"/>
<path d="M62.1028 64.35H59.0306V67.3833H62.1028V64.35Z" fill="#0E0E0E"/>
<path d="M74.3917 64.35H71.3194V67.3833H74.3917V64.35Z" fill="#0E0E0E"/>
<path d="M86.6805 64.35H83.6083V67.3833H86.6805V64.35Z" fill="#0E0E0E"/>
<path d="M89.7528 64.35H86.6805V67.3833H89.7528V64.35Z" fill="#0E0E0E"/>
<path d="M98.9694 64.35H95.8972V67.3833H98.9694V64.35Z" fill="#0E0E0E"/>
<path d="M102.042 64.35H98.9694V67.3833H102.042V64.35Z" fill="#0E0E0E"/>
<path d="M105.114 64.35H102.042V67.3833H105.114V64.35Z" fill="#0E0E0E"/>
<path d="M108.186 64.35H105.114V67.3833H108.186V64.35Z" fill="#0E0E0E"/>
<path d="M111.258 64.35H108.186V67.3833H111.258V64.35Z" fill="#0E0E0E"/>
<path d="M114.331 64.35H111.258V67.3833H114.331V64.35Z" fill="#0E0E0E"/>
<path d="M120.475 64.35H117.403V67.3833H120.475V64.35Z" fill="#0E0E0E"/>
<path d="M123.547 64.35H120.475V67.3833H123.547V64.35Z" fill="#0E0E0E"/>
<path d="M126.619 64.35H123.547V67.3833H126.619V64.35Z" fill="#0E0E0E"/>
<path d="M129.692 64.35H126.619V67.3833H129.692V64.35Z" fill="#0E0E0E"/>
<path d="M132.764 64.35H129.692V67.3833H132.764V64.35Z" fill="#0E0E0E"/>
<path d="M141.981 64.35H138.908V67.3833H141.981V64.35Z" fill="#0E0E0E"/>
<path d="M145.053 64.35H141.981V67.3833H145.053V64.35Z" fill="#0E0E0E"/>
<path d="M12.9472 67.3833H9.875V70.4167H12.9472V67.3833Z" fill="#0E0E0E"/>
<path d="M19.0917 67.3833H16.0194V70.4167H19.0917V67.3833Z" fill="#0E0E0E"/>
<path d="M28.3083 67.3833H25.2361V70.4167H28.3083V67.3833Z" fill="#0E0E0E"/>
<path d="M34.4528 67.3833H31.3806V70.4167H34.4528V67.3833Z" fill="#0E0E0E"/>
<path d="M40.5972 67.3833H37.525V70.4167H40.5972V67.3833Z" fill="#0E0E0E"/>
<path d="M43.6694 67.3833H40.5972V70.4167H43.6694V67.3833Z" fill="#0E0E0E"/>
<path d="M52.8861 67.3833H49.8139V70.4167H52.8861V67.3833Z" fill="#0E0E0E"/>
<path d="M59.0306 67.3833H55.9583V70.4167H59.0306V67.3833Z" fill="#0E0E0E"/>
<path d="M71.3194 67.3833H68.2472V70.4167H71.3194V67.3833Z" fill="#0E0E0E"/>
<path d="M74.3917 67.3833H71.3194V70.4167H74.3917V67.3833Z" fill="#0E0E0E"/>
<path d="M77.4639 67.3833H74.3917V70.4167H77.4639V67.3833Z" fill="#0E0E0E"/>
<path d="M89.7528 67.3833H86.6805V70.4167H89.7528V67.3833Z" fill="#0E0E0E"/>
<path d="M95.8972 67.3833H92.825V70.4167H95.8972V67.3833Z" fill="#0E0E0E"/>
<path d="M102.042 67.3833H98.9694V70.4167H102.042V67.3833Z" fill="#0E0E0E"/>
<path d="M105.114 67.3833H102.042V70.4167H105.114V67.3833Z" fill="#0E0E0E"/>
<path d="M108.186 67.3833H105.114V70.4167H108.186V67.3833Z" fill="#0E0E0E"/>
<path d="M123.547 67.3833H120.475V70.4167H123.547V67.3833Z" fill="#0E0E0E"/>
<path d="M129.692 67.3833H126.619V70.4167H129.692V67.3833Z" fill="#0E0E0E"/>
<path d="M132.764 67.3833H129.692V70.4167H132.764V67.3833Z" fill="#0E0E0E"/>
<path d="M135.836 67.3833H132.764V70.4167H135.836V67.3833Z" fill="#0E0E0E"/>
<path d="M148.125 67.3833H145.053V70.4167H148.125V67.3833Z" fill="#0E0E0E"/>
<path d="M12.9472 70.4167H9.875V73.45H12.9472V70.4167Z" fill="#0E0E0E"/>
<path d="M16.0194 70.4167H12.9472V73.45H16.0194V70.4167Z" fill="#0E0E0E"/>
<path d="M22.1639 70.4167H19.0917V73.45H22.1639V70.4167Z" fill="#0E0E0E"/>
<path d="M25.2361 70.4167H22.1639V73.45H25.2361V70.4167Z" fill="#0E0E0E"/>
<path d="M28.3083 70.4167H25.2361V73.45H28.3083V70.4167Z" fill="#0E0E0E"/>
<path d="M31.3806 70.4167H28.3083V73.45H31.3806V70.4167Z" fill="#0E0E0E"/>
<path d="M34.4528 70.4167H31.3806V73.45H34.4528V70.4167Z" fill="#0E0E0E"/>
<path d="M37.525 70.4167H34.4528V73.45H37.525V70.4167Z" fill="#0E0E0E"/>
<path d="M40.5972 70.4167H37.525V73.45H40.5972V70.4167Z" fill="#0E0E0E"/>
<path d="M49.8139 70.4167H46.7417V73.45H49.8139V70.4167Z" fill="#0E0E0E"/>
<path d="M52.8861 70.4167H49.8139V73.45H52.8861V70.4167Z" fill="#0E0E0E"/>
<path d="M55.9583 70.4167H52.8861V73.45H55.9583V70.4167Z" fill="#0E0E0E"/>
<path d="M62.1028 70.4167H59.0306V73.45H62.1028V70.4167Z" fill="#0E0E0E"/>
<path d="M68.2472 70.4167H65.175V73.45H68.2472V70.4167Z" fill="#0E0E0E"/>
<path d="M74.3917 70.4167H71.3194V73.45H74.3917V70.4167Z" fill="#0E0E0E"/>
<path d="M77.4639 70.4167H74.3917V73.45H77.4639V70.4167Z" fill="#0E0E0E"/>
<path d="M80.5361 70.4167H77.4639V73.45H80.5361V70.4167Z" fill="#0E0E0E"/>
<path d="M83.6083 70.4167H80.5361V73.45H83.6083V70.4167Z" fill="#0E0E0E"/>
<path d="M86.6805 70.4167H83.6083V73.45H86.6805V70.4167Z" fill="#0E0E0E"/>
<path d="M92.825 70.4167H89.7528V73.45H92.825V70.4167Z" fill="#0E0E0E"/>
<path d="M95.8972 70.4167H92.825V73.45H95.8972V70.4167Z" fill="#0E0E0E"/>
<path d="M98.9694 70.4167H95.8972V73.45H98.9694V70.4167Z" fill="#0E0E0E"/>
<path d="M108.186 70.4167H105.114V73.45H108.186V70.4167Z" fill="#0E0E0E"/>
<path d="M114.331 70.4167H111.258V73.45H114.331V70.4167Z" fill="#0E0E0E"/>
<path d="M117.403 70.4167H114.331V73.45H117.403V70.4167Z" fill="#0E0E0E"/>
<path d="M120.475 70.4167H117.403V73.45H120.475V70.4167Z" fill="#0E0E0E"/>
<path d="M123.547 70.4167H120.475V73.45H123.547V70.4167Z" fill="#0E0E0E"/>
<path d="M126.619 70.4167H123.547V73.45H126.619V70.4167Z" fill="#0E0E0E"/>
<path d="M129.692 70.4167H126.619V73.45H129.692V70.4167Z" fill="#0E0E0E"/>
<path d="M132.764 70.4167H129.692V73.45H132.764V70.4167Z" fill="#0E0E0E"/>
<path d="M135.836 70.4167H132.764V73.45H135.836V70.4167Z" fill="#0E0E0E"/>
<path d="M138.908 70.4167H135.836V73.45H138.908V70.4167Z" fill="#0E0E0E"/>
<path d="M141.981 70.4167H138.908V73.45H141.981V70.4167Z" fill="#0E0E0E"/>
<path d="M145.053 70.4167H141.981V73.45H145.053V70.4167Z" fill="#0E0E0E"/>
<path d="M148.125 70.4167H145.053V73.45H148.125V70.4167Z" fill="#0E0E0E"/>
<path d="M12.9472 73.45H9.875V76.4833H12.9472V73.45Z" fill="#0E0E0E"/>
<path d="M16.0194 73.45H12.9472V76.4833H16.0194V73.45Z" fill="#0E0E0E"/>
<path d="M25.2361 73.45H22.1639V76.4833H25.2361V73.45Z" fill="#0E0E0E"/>
<path d="M37.525 73.45H34.4528V76.4833H37.525V73.45Z" fill="#0E0E0E"/>
<path d="M40.5972 73.45H37.525V76.4833H40.5972V73.45Z" fill="#0E0E0E"/>
<path d="M52.8861 73.45H49.8139V76.4833H52.8861V73.45Z" fill="#0E0E0E"/>
<path d="M55.9583 73.45H52.8861V76.4833H55.9583V73.45Z" fill="#0E0E0E"/>
<path d="M65.175 73.45H62.1028V76.4833H65.175V73.45Z" fill="#0E0E0E"/>
<path d="M68.2472 73.45H65.175V76.4833H68.2472V73.45Z" fill="#0E0E0E"/>
<path d="M74.3917 73.45H71.3194V76.4833H74.3917V73.45Z" fill="#0E0E0E"/>
<path d="M86.6805 73.45H83.6083V76.4833H86.6805V73.45Z" fill="#0E0E0E"/>
<path d="M95.8972 73.45H92.825V76.4833H95.8972V73.45Z" fill="#0E0E0E"/>
<path d="M98.9694 73.45H95.8972V76.4833H98.9694V73.45Z" fill="#0E0E0E"/>
<path d="M102.042 73.45H98.9694V76.4833H102.042V73.45Z" fill="#0E0E0E"/>
<path d="M108.186 73.45H105.114V76.4833H108.186V73.45Z" fill="#0E0E0E"/>
<path d="M111.258 73.45H108.186V76.4833H111.258V73.45Z" fill="#0E0E0E"/>
<path d="M117.403 73.45H114.331V76.4833H117.403V73.45Z" fill="#0E0E0E"/>
<path d="M123.547 73.45H120.475V76.4833H123.547V73.45Z" fill="#0E0E0E"/>
<path d="M135.836 73.45H132.764V76.4833H135.836V73.45Z" fill="#0E0E0E"/>
<path d="M148.125 73.45H145.053V76.4833H148.125V73.45Z" fill="#0E0E0E"/>
<path d="M12.9472 76.4833H9.875V79.5167H12.9472V76.4833Z" fill="#0E0E0E"/>
<path d="M16.0194 76.4833H12.9472V79.5167H16.0194V76.4833Z" fill="#0E0E0E"/>
<path d="M19.0917 76.4833H16.0194V79.5167H19.0917V76.4833Z" fill="#0E0E0E"/>
<path d="M25.2361 76.4833H22.1639V79.5167H25.2361V76.4833Z" fill="#0E0E0E"/>
<path d="M31.3806 76.4833H28.3083V79.5167H31.3806V76.4833Z" fill="#0E0E0E"/>
<path d="M37.525 76.4833H34.4528V79.5167H37.525V76.4833Z" fill="#0E0E0E"/>
<path d="M40.5972 76.4833H37.525V79.5167H40.5972V76.4833Z" fill="#0E0E0E"/>
<path d="M46.7417 76.4833H43.6694V79.5167H46.7417V76.4833Z" fill="#0E0E0E"/>
<path d="M49.8139 76.4833H46.7417V79.5167H49.8139V76.4833Z" fill="#0E0E0E"/>
<path d="M52.8861 76.4833H49.8139V79.5167H52.8861V76.4833Z" fill="#0E0E0E"/>
<path d="M65.175 76.4833H62.1028V79.5167H65.175V76.4833Z" fill="#0E0E0E"/>
<path d="M68.2472 76.4833H65.175V79.5167H68.2472V76.4833Z" fill="#0E0E0E"/>
<path d="M71.3194 76.4833H68.2472V79.5167H71.3194V76.4833Z" fill="#0E0E0E"/>
<path d="M74.3917 76.4833H71.3194V79.5167H74.3917V76.4833Z" fill="#0E0E0E"/>
<path d="M80.5361 76.4833H77.4639V79.5167H80.5361V76.4833Z" fill="#0E0E0E"/>
<path d="M86.6805 76.4833H83.6083V79.5167H86.6805V76.4833Z" fill="#0E0E0E"/>
<path d="M89.7528 76.4833H86.6805V79.5167H89.7528V76.4833Z" fill="#0E0E0E"/>
<path d="M92.825 76.4833H89.7528V79.5167H92.825V76.4833Z" fill="#0E0E0E"/>
<path d="M95.8972 76.4833H92.825V79.5167H95.8972V76.4833Z" fill="#0E0E0E"/>
<path d="M102.042 76.4833H98.9694V79.5167H102.042V76.4833Z" fill="#0E0E0E"/>
<path d="M105.114 76.4833H102.042V79.5167H105.114V76.4833Z" fill="#0E0E0E"/>
<path d="M108.186 76.4833H105.114V79.5167H108.186V76.4833Z" fill="#0E0E0E"/>
<path d="M114.331 76.4833H111.258V79.5167H114.331V76.4833Z" fill="#0E0E0E"/>
<path d="M117.403 76.4833H114.331V79.5167H117.403V76.4833Z" fill="#0E0E0E"/>
<path d="M120.475 76.4833H117.403V79.5167H120.475V76.4833Z" fill="#0E0E0E"/>
<path d="M123.547 76.4833H120.475V79.5167H123.547V76.4833Z" fill="#0E0E0E"/>
<path d="M129.692 76.4833H126.619V79.5167H129.692V76.4833Z" fill="#0E0E0E"/>
<path d="M135.836 76.4833H132.764V79.5167H135.836V76.4833Z" fill="#0E0E0E"/>
<path d="M141.981 76.4833H138.908V79.5167H141.981V76.4833Z" fill="#0E0E0E"/>
<path d="M145.053 76.4833H141.981V79.5167H145.053V76.4833Z" fill="#0E0E0E"/>
<path d="M16.0194 79.5167H12.9472V82.55H16.0194V79.5167Z" fill="#0E0E0E"/>
<path d="M22.1639 79.5167H19.0917V82.55H22.1639V79.5167Z" fill="#0E0E0E"/>
<path d="M25.2361 79.5167H22.1639V82.55H25.2361V79.5167Z" fill="#0E0E0E"/>
<path d="M37.525 79.5167H34.4528V82.55H37.525V79.5167Z" fill="#0E0E0E"/>
<path d="M43.6694 79.5167H40.5972V82.55H43.6694V79.5167Z" fill="#0E0E0E"/>
<path d="M46.7417 79.5167H43.6694V82.55H46.7417V79.5167Z" fill="#0E0E0E"/>
<path d="M62.1028 79.5167H59.0306V82.55H62.1028V79.5167Z" fill="#0E0E0E"/>
<path d="M71.3194 79.5167H68.2472V82.55H71.3194V79.5167Z" fill="#0E0E0E"/>
<path d="M74.3917 79.5167H71.3194V82.55H74.3917V79.5167Z" fill="#0E0E0E"/>
<path d="M86.6805 79.5167H83.6083V82.55H86.6805V79.5167Z" fill="#0E0E0E"/>
<path d="M89.7528 79.5167H86.6805V82.55H89.7528V79.5167Z" fill="#0E0E0E"/>
<path d="M92.825 79.5167H89.7528V82.55H92.825V79.5167Z" fill="#0E0E0E"/>
<path d="M102.042 79.5167H98.9694V82.55H102.042V79.5167Z" fill="#0E0E0E"/>
<path d="M108.186 79.5167H105.114V82.55H108.186V79.5167Z" fill="#0E0E0E"/>
<path d="M111.258 79.5167H108.186V82.55H111.258V79.5167Z" fill="#0E0E0E"/>
<path d="M114.331 79.5167H111.258V82.55H114.331V79.5167Z" fill="#0E0E0E"/>
<path d="M117.403 79.5167H114.331V82.55H117.403V79.5167Z" fill="#0E0E0E"/>
<path d="M123.547 79.5167H120.475V82.55H123.547V79.5167Z" fill="#0E0E0E"/>
<path d="M135.836 79.5167H132.764V82.55H135.836V79.5167Z" fill="#0E0E0E"/>
<path d="M148.125 79.5167H145.053V82.55H148.125V79.5167Z" fill="#0E0E0E"/>
<path d="M16.0194 82.55H12.9472V85.5833H16.0194V82.55Z" fill="#0E0E0E"/>
<path d="M22.1639 82.55H19.0917V85.5833H22.1639V82.55Z" fill="#0E0E0E"/>
<path d="M25.2361 82.55H22.1639V85.5833H25.2361V82.55Z" fill="#0E0E0E"/>
<path d="M28.3083 82.55H25.2361V85.5833H28.3083V82.55Z" fill="#0E0E0E"/>
<path d="M31.3806 82.55H28.3083V85.5833H31.3806V82.55Z" fill="#0E0E0E"/>
<path d="M34.4528 82.55H31.3806V85.5833H34.4528V82.55Z" fill="#0E0E0E"/>
<path d="M37.525 82.55H34.4528V85.5833H37.525V82.55Z" fill="#0E0E0E"/>
<path d="M40.5972 82.55H37.525V85.5833H40.5972V82.55Z" fill="#0E0E0E"/>
<path d="M49.8139 82.55H46.7417V85.5833H49.8139V82.55Z" fill="#0E0E0E"/>
<path d="M74.3917 82.55H71.3194V85.5833H74.3917V82.55Z" fill="#0E0E0E"/>
<path d="M77.4639 82.55H74.3917V85.5833H77.4639V82.55Z" fill="#0E0E0E"/>
<path d="M80.5361 82.55H77.4639V85.5833H80.5361V82.55Z" fill="#0E0E0E"/>
<path d="M83.6083 82.55H80.5361V85.5833H83.6083V82.55Z" fill="#0E0E0E"/>
<path d="M86.6805 82.55H83.6083V85.5833H86.6805V82.55Z" fill="#0E0E0E"/>
<path d="M89.7528 82.55H86.6805V85.5833H89.7528V82.55Z" fill="#0E0E0E"/>
<path d="M92.825 82.55H89.7528V85.5833H92.825V82.55Z" fill="#0E0E0E"/>
<path d="M102.042 82.55H98.9694V85.5833H102.042V82.55Z" fill="#0E0E0E"/>
<path d="M105.114 82.55H102.042V85.5833H105.114V82.55Z" fill="#0E0E0E"/>
<path d="M111.258 82.55H108.186V85.5833H111.258V82.55Z" fill="#0E0E0E"/>
<path d="M117.403 82.55H114.331V85.5833H117.403V82.55Z" fill="#0E0E0E"/>
<path d="M123.547 82.55H120.475V85.5833H123.547V82.55Z" fill="#0E0E0E"/>
<path d="M126.619 82.55H123.547V85.5833H126.619V82.55Z" fill="#0E0E0E"/>
<path d="M129.692 82.55H126.619V85.5833H129.692V82.55Z" fill="#0E0E0E"/>
<path d="M132.764 82.55H129.692V85.5833H132.764V82.55Z" fill="#0E0E0E"/>
<path d="M135.836 82.55H132.764V85.5833H135.836V82.55Z" fill="#0E0E0E"/>
<path d="M145.053 82.55H141.981V85.5833H145.053V82.55Z" fill="#0E0E0E"/>
<path d="M148.125 82.55H145.053V85.5833H148.125V82.55Z" fill="#0E0E0E"/>
<path d="M12.9472 85.5833H9.875V88.6167H12.9472V85.5833Z" fill="#0E0E0E"/>
<path d="M16.0194 85.5833H12.9472V88.6167H16.0194V85.5833Z" fill="#0E0E0E"/>
<path d="M34.4528 85.5833H31.3806V88.6167H34.4528V85.5833Z" fill="#0E0E0E"/>
<path d="M49.8139 85.5833H46.7417V88.6167H49.8139V85.5833Z" fill="#0E0E0E"/>
<path d="M55.9583 85.5833H52.8861V88.6167H55.9583V85.5833Z" fill="#0E0E0E"/>
<path d="M59.0306 85.5833H55.9583V88.6167H59.0306V85.5833Z" fill="#0E0E0E"/>
<path d="M65.175 85.5833H62.1028V88.6167H65.175V85.5833Z" fill="#0E0E0E"/>
<path d="M68.2472 85.5833H65.175V88.6167H68.2472V85.5833Z" fill="#0E0E0E"/>
<path d="M74.3917 85.5833H71.3194V88.6167H74.3917V85.5833Z" fill="#0E0E0E"/>
<path d="M80.5361 85.5833H77.4639V88.6167H80.5361V85.5833Z" fill="#0E0E0E"/>
<path d="M83.6083 85.5833H80.5361V88.6167H83.6083V85.5833Z" fill="#0E0E0E"/>
<path d="M89.7528 85.5833H86.6805V88.6167H89.7528V85.5833Z" fill="#0E0E0E"/>
<path d="M98.9694 85.5833H95.8972V88.6167H98.9694V85.5833Z" fill="#0E0E0E"/>
<path d="M114.331 85.5833H111.258V88.6167H114.331V85.5833Z" fill="#0E0E0E"/>
<path d="M120.475 85.5833H117.403V88.6167H120.475V85.5833Z" fill="#0E0E0E"/>
<path d="M126.619 85.5833H123.547V88.6167H126.619V85.5833Z" fill="#0E0E0E"/>
<path d="M132.764 85.5833H129.692V88.6167H132.764V85.5833Z" fill="#0E0E0E"/>
<path d="M145.053 85.5833H141.981V88.6167H145.053V85.5833Z" fill="#0E0E0E"/>
<path d="M12.9472 88.6167H9.875V91.65H12.9472V88.6167Z" fill="#0E0E0E"/>
<path d="M19.0917 88.6167H16.0194V91.65H19.0917V88.6167Z" fill="#0E0E0E"/>
<path d="M22.1639 88.6167H19.0917V91.65H22.1639V88.6167Z" fill="#0E0E0E"/>
<path d="M25.2361 88.6167H22.1639V91.65H25.2361V88.6167Z" fill="#0E0E0E"/>
<path d="M28.3083 88.6167H25.2361V91.65H28.3083V88.6167Z" fill="#0E0E0E"/>
<path d="M31.3806 88.6167H28.3083V91.65H31.3806V88.6167Z" fill="#0E0E0E"/>
<path d="M34.4528 88.6167H31.3806V91.65H34.4528V88.6167Z" fill="#0E0E0E"/>
<path d="M40.5972 88.6167H37.525V91.65H40.5972V88.6167Z" fill="#0E0E0E"/>
<path d="M43.6694 88.6167H40.5972V91.65H43.6694V88.6167Z" fill="#0E0E0E"/>
<path d="M49.8139 88.6167H46.7417V91.65H49.8139V88.6167Z" fill="#0E0E0E"/>
<path d="M52.8861 88.6167H49.8139V91.65H52.8861V88.6167Z" fill="#0E0E0E"/>
<path d="M55.9583 88.6167H52.8861V91.65H55.9583V88.6167Z" fill="#0E0E0E"/>
<path d="M59.0306 88.6167H55.9583V91.65H59.0306V88.6167Z" fill="#0E0E0E"/>
<path d="M62.1028 88.6167H59.0306V91.65H62.1028V88.6167Z" fill="#0E0E0E"/>
<path d="M65.175 88.6167H62.1028V91.65H65.175V88.6167Z" fill="#0E0E0E"/>
<path d="M68.2472 88.6167H65.175V91.65H68.2472V88.6167Z" fill="#0E0E0E"/>
<path d="M74.3917 88.6167H71.3194V91.65H74.3917V88.6167Z" fill="#0E0E0E"/>
<path d="M77.4639 88.6167H74.3917V91.65H77.4639V88.6167Z" fill="#0E0E0E"/>
<path d="M80.5361 88.6167H77.4639V91.65H80.5361V88.6167Z" fill="#0E0E0E"/>
<path d="M83.6083 88.6167H80.5361V91.65H83.6083V88.6167Z" fill="#0E0E0E"/>
<path d="M86.6805 88.6167H83.6083V91.65H86.6805V88.6167Z" fill="#0E0E0E"/>
<path d="M89.7528 88.6167H86.6805V91.65H89.7528V88.6167Z" fill="#0E0E0E"/>
<path d="M92.825 88.6167H89.7528V91.65H92.825V88.6167Z" fill="#0E0E0E"/>
<path d="M102.042 88.6167H98.9694V91.65H102.042V88.6167Z" fill="#0E0E0E"/>
<path d="M105.114 88.6167H102.042V91.65H105.114V88.6167Z" fill="#0E0E0E"/>
<path d="M111.258 88.6167H108.186V91.65H111.258V88.6167Z" fill="#0E0E0E"/>
<path d="M114.331 88.6167H111.258V91.65H114.331V88.6167Z" fill="#0E0E0E"/>
<path d="M117.403 88.6167H114.331V91.65H117.403V88.6167Z" fill="#0E0E0E"/>
<path d="M126.619 88.6167H123.547V91.65H126.619V88.6167Z" fill="#0E0E0E"/>
<path d="M129.692 88.6167H126.619V91.65H129.692V88.6167Z" fill="#0E0E0E"/>
<path d="M132.764 88.6167H129.692V91.65H132.764V88.6167Z" fill="#0E0E0E"/>
<path d="M138.908 88.6167H135.836V91.65H138.908V88.6167Z" fill="#0E0E0E"/>
<path d="M141.981 88.6167H138.908V91.65H141.981V88.6167Z" fill="#0E0E0E"/>
<path d="M145.053 88.6167H141.981V91.65H145.053V88.6167Z" fill="#0E0E0E"/>
<path d="M25.2361 91.65H22.1639V94.6833H25.2361V91.65Z" fill="#0E0E0E"/>
<path d="M28.3083 91.65H25.2361V94.6833H28.3083V91.65Z" fill="#0E0E0E"/>
<path d="M34.4528 91.65H31.3806V94.6833H34.4528V91.65Z" fill="#0E0E0E"/>
<path d="M37.525 91.65H34.4528V94.6833H37.525V91.65Z" fill="#0E0E0E"/>
<path d="M40.5972 91.65H37.525V94.6833H40.5972V91.65Z" fill="#0E0E0E"/>
<path d="M43.6694 91.65H40.5972V94.6833H43.6694V91.65Z" fill="#0E0E0E"/>
<path d="M49.8139 91.65H46.7417V94.6833H49.8139V91.65Z" fill="#0E0E0E"/>
<path d="M55.9583 91.65H52.8861V94.6833H55.9583V91.65Z" fill="#0E0E0E"/>
<path d="M65.175 91.65H62.1028V94.6833H65.175V91.65Z" fill="#0E0E0E"/>
<path d="M71.3194 91.65H68.2472V94.6833H71.3194V91.65Z" fill="#0E0E0E"/>
<path d="M80.5361 91.65H77.4639V94.6833H80.5361V91.65Z" fill="#0E0E0E"/>
<path d="M83.6083 91.65H80.5361V94.6833H83.6083V91.65Z" fill="#0E0E0E"/>
<path d="M86.6805 91.65H83.6083V94.6833H86.6805V91.65Z" fill="#0E0E0E"/>
<path d="M95.8972 91.65H92.825V94.6833H95.8972V91.65Z" fill="#0E0E0E"/>
<path d="M98.9694 91.65H95.8972V94.6833H98.9694V91.65Z" fill="#0E0E0E"/>
<path d="M102.042 91.65H98.9694V94.6833H102.042V91.65Z" fill="#0E0E0E"/>
<path d="M120.475 91.65H117.403V94.6833H120.475V91.65Z" fill="#0E0E0E"/>
<path d="M123.547 91.65H120.475V94.6833H123.547V91.65Z" fill="#0E0E0E"/>
<path d="M126.619 91.65H123.547V94.6833H126.619V91.65Z" fill="#0E0E0E"/>
<path d="M132.764 91.65H129.692V94.6833H132.764V91.65Z" fill="#0E0E0E"/>
<path d="M138.908 91.65H135.836V94.6833H138.908V91.65Z" fill="#0E0E0E"/>
<path d="M141.981 91.65H138.908V94.6833H141.981V91.65Z" fill="#0E0E0E"/>
<path d="M145.053 91.65H141.981V94.6833H145.053V91.65Z" fill="#0E0E0E"/>
<path d="M148.125 91.65H145.053V94.6833H148.125V91.65Z" fill="#0E0E0E"/>
<path d="M19.0917 94.6833H16.0194V97.7167H19.0917V94.6833Z" fill="#0E0E0E"/>
<path d="M22.1639 94.6833H19.0917V97.7167H22.1639V94.6833Z" fill="#0E0E0E"/>
<path d="M25.2361 94.6833H22.1639V97.7167H25.2361V94.6833Z" fill="#0E0E0E"/>
<path d="M28.3083 94.6833H25.2361V97.7167H28.3083V94.6833Z" fill="#0E0E0E"/>
<path d="M31.3806 94.6833H28.3083V97.7167H31.3806V94.6833Z" fill="#0E0E0E"/>
<path d="M40.5972 94.6833H37.525V97.7167H40.5972V94.6833Z" fill="#0E0E0E"/>
<path d="M43.6694 94.6833H40.5972V97.7167H43.6694V94.6833Z" fill="#0E0E0E"/>
<path d="M46.7417 94.6833H43.6694V97.7167H46.7417V94.6833Z" fill="#0E0E0E"/>
<path d="M52.8861 94.6833H49.8139V97.7167H52.8861V94.6833Z" fill="#0E0E0E"/>
<path d="M55.9583 94.6833H52.8861V97.7167H55.9583V94.6833Z" fill="#0E0E0E"/>
<path d="M77.4639 94.6833H74.3917V97.7167H77.4639V94.6833Z" fill="#0E0E0E"/>
<path d="M80.5361 94.6833H77.4639V97.7167H80.5361V94.6833Z" fill="#0E0E0E"/>
<path d="M89.7528 94.6833H86.6805V97.7167H89.7528V94.6833Z" fill="#0E0E0E"/>
<path d="M95.8972 94.6833H92.825V97.7167H95.8972V94.6833Z" fill="#0E0E0E"/>
<path d="M105.114 94.6833H102.042V97.7167H105.114V94.6833Z" fill="#0E0E0E"/>
<path d="M117.403 94.6833H114.331V97.7167H117.403V94.6833Z" fill="#0E0E0E"/>
<path d="M120.475 94.6833H117.403V97.7167H120.475V94.6833Z" fill="#0E0E0E"/>
<path d="M126.619 94.6833H123.547V97.7167H126.619V94.6833Z" fill="#0E0E0E"/>
<path d="M129.692 94.6833H126.619V97.7167H129.692V94.6833Z" fill="#0E0E0E"/>
<path d="M141.981 94.6833H138.908V97.7167H141.981V94.6833Z" fill="#0E0E0E"/>
<path d="M145.053 94.6833H141.981V97.7167H145.053V94.6833Z" fill="#0E0E0E"/>
<path d="M12.9472 97.7167H9.875V100.75H12.9472V97.7167Z" fill="#0E0E0E"/>
<path d="M19.0917 97.7167H16.0194V100.75H19.0917V97.7167Z" fill="#0E0E0E"/>
<path d="M22.1639 97.7167H19.0917V100.75H22.1639V97.7167Z" fill="#0E0E0E"/>
<path d="M28.3083 97.7167H25.2361V100.75H28.3083V97.7167Z" fill="#0E0E0E"/>
<path d="M37.525 97.7167H34.4528V100.75H37.525V97.7167Z" fill="#0E0E0E"/>
<path d="M43.6694 97.7167H40.5972V100.75H43.6694V97.7167Z" fill="#0E0E0E"/>
<path d="M52.8861 97.7167H49.8139V100.75H52.8861V97.7167Z" fill="#0E0E0E"/>
<path d="M62.1028 97.7167H59.0306V100.75H62.1028V97.7167Z" fill="#0E0E0E"/>
<path d="M65.175 97.7167H62.1028V100.75H65.175V97.7167Z" fill="#0E0E0E"/>
<path d="M68.2472 97.7167H65.175V100.75H68.2472V97.7167Z" fill="#0E0E0E"/>
<path d="M71.3194 97.7167H68.2472V100.75H71.3194V97.7167Z" fill="#0E0E0E"/>
<path d="M77.4639 97.7167H74.3917V100.75H77.4639V97.7167Z" fill="#0E0E0E"/>
<path d="M80.5361 97.7167H77.4639V100.75H80.5361V97.7167Z" fill="#0E0E0E"/>
<path d="M86.6805 97.7167H83.6083V100.75H86.6805V97.7167Z" fill="#0E0E0E"/>
<path d="M89.7528 97.7167H86.6805V100.75H89.7528V97.7167Z" fill="#0E0E0E"/>
<path d="M92.825 97.7167H89.7528V100.75H92.825V97.7167Z" fill="#0E0E0E"/>
<path d="M95.8972 97.7167H92.825V100.75H95.8972V97.7167Z" fill="#0E0E0E"/>
<path d="M102.042 97.7167H98.9694V100.75H102.042V97.7167Z" fill="#0E0E0E"/>
<path d="M105.114 97.7167H102.042V100.75H105.114V97.7167Z" fill="#0E0E0E"/>
<path d="M111.258 97.7167H108.186V100.75H111.258V97.7167Z" fill="#0E0E0E"/>
<path d="M114.331 97.7167H111.258V100.75H114.331V97.7167Z" fill="#0E0E0E"/>
<path d="M117.403 97.7167H114.331V100.75H117.403V97.7167Z" fill="#0E0E0E"/>
<path d="M120.475 97.7167H117.403V100.75H120.475V97.7167Z" fill="#0E0E0E"/>
<path d="M132.764 97.7167H129.692V100.75H132.764V97.7167Z" fill="#0E0E0E"/>
<path d="M135.836 97.7167H132.764V100.75H135.836V97.7167Z" fill="#0E0E0E"/>
<path d="M138.908 97.7167H135.836V100.75H138.908V97.7167Z" fill="#0E0E0E"/>
<path d="M141.981 97.7167H138.908V100.75H141.981V97.7167Z" fill="#0E0E0E"/>
<path d="M145.053 97.7167H141.981V100.75H145.053V97.7167Z" fill="#0E0E0E"/>
<path d="M148.125 97.7167H145.053V100.75H148.125V97.7167Z" fill="#0E0E0E"/>
<path d="M12.9472 100.75H9.875V103.783H12.9472V100.75Z" fill="#0E0E0E"/>
<path d="M19.0917 100.75H16.0194V103.783H19.0917V100.75Z" fill="#0E0E0E"/>
<path d="M25.2361 100.75H22.1639V103.783H25.2361V100.75Z" fill="#0E0E0E"/>
<path d="M31.3806 100.75H28.3083V103.783H31.3806V100.75Z" fill="#0E0E0E"/>
<path d="M37.525 100.75H34.4528V103.783H37.525V100.75Z" fill="#0E0E0E"/>
<path d="M40.5972 100.75H37.525V103.783H40.5972V100.75Z" fill="#0E0E0E"/>
<path d="M43.6694 100.75H40.5972V103.783H43.6694V100.75Z" fill="#0E0E0E"/>
<path d="M49.8139 100.75H46.7417V103.783H49.8139V100.75Z" fill="#0E0E0E"/>
<path d="M52.8861 100.75H49.8139V103.783H52.8861V100.75Z" fill="#0E0E0E"/>
<path d="M65.175 100.75H62.1028V103.783H65.175V100.75Z" fill="#0E0E0E"/>
<path d="M68.2472 100.75H65.175V103.783H68.2472V100.75Z" fill="#0E0E0E"/>
<path d="M74.3917 100.75H71.3194V103.783H74.3917V100.75Z" fill="#0E0E0E"/>
<path d="M77.4639 100.75H74.3917V103.783H77.4639V100.75Z" fill="#0E0E0E"/>
<path d="M83.6083 100.75H80.5361V103.783H83.6083V100.75Z" fill="#0E0E0E"/>
<path d="M86.6805 100.75H83.6083V103.783H86.6805V100.75Z" fill="#0E0E0E"/>
<path d="M89.7528 100.75H86.6805V103.783H89.7528V100.75Z" fill="#0E0E0E"/>
<path d="M92.825 100.75H89.7528V103.783H92.825V100.75Z" fill="#0E0E0E"/>
<path d="M95.8972 100.75H92.825V103.783H95.8972V100.75Z" fill="#0E0E0E"/>
<path d="M102.042 100.75H98.9694V103.783H102.042V100.75Z" fill="#0E0E0E"/>
<path d="M108.186 100.75H105.114V103.783H108.186V100.75Z" fill="#0E0E0E"/>
<path d="M111.258 100.75H108.186V103.783H111.258V100.75Z" fill="#0E0E0E"/>
<path d="M114.331 100.75H111.258V103.783H114.331V100.75Z" fill="#0E0E0E"/>
<path d="M117.403 100.75H114.331V103.783H117.403V100.75Z" fill="#0E0E0E"/>
<path d="M120.475 100.75H117.403V103.783H120.475V100.75Z" fill="#0E0E0E"/>
<path d="M126.619 100.75H123.547V103.783H126.619V100.75Z" fill="#0E0E0E"/>
<path d="M129.692 100.75H126.619V103.783H129.692V100.75Z" fill="#0E0E0E"/>
<path d="M132.764 100.75H129.692V103.783H132.764V100.75Z" fill="#0E0E0E"/>
<path d="M135.836 100.75H132.764V103.783H135.836V100.75Z" fill="#0E0E0E"/>
<path d="M138.908 100.75H135.836V103.783H138.908V100.75Z" fill="#0E0E0E"/>
<path d="M141.981 100.75H138.908V103.783H141.981V100.75Z" fill="#0E0E0E"/>
<path d="M145.053 100.75H141.981V103.783H145.053V100.75Z" fill="#0E0E0E"/>
<path d="M148.125 100.75H145.053V103.783H148.125V100.75Z" fill="#0E0E0E"/>
<path d="M16.0194 103.783H12.9472V106.817H16.0194V103.783Z" fill="#0E0E0E"/>
<path d="M19.0917 103.783H16.0194V106.817H19.0917V103.783Z" fill="#0E0E0E"/>
<path d="M40.5972 103.783H37.525V106.817H40.5972V103.783Z" fill="#0E0E0E"/>
<path d="M43.6694 103.783H40.5972V106.817H43.6694V103.783Z" fill="#0E0E0E"/>
<path d="M52.8861 103.783H49.8139V106.817H52.8861V103.783Z" fill="#0E0E0E"/>
<path d="M55.9583 103.783H52.8861V106.817H55.9583V103.783Z" fill="#0E0E0E"/>
<path d="M65.175 103.783H62.1028V106.817H65.175V103.783Z" fill="#0E0E0E"/>
<path d="M68.2472 103.783H65.175V106.817H68.2472V103.783Z" fill="#0E0E0E"/>
<path d="M77.4639 103.783H74.3917V106.817H77.4639V103.783Z" fill="#0E0E0E"/>
<path d="M80.5361 103.783H77.4639V106.817H80.5361V103.783Z" fill="#0E0E0E"/>
<path d="M92.825 103.783H89.7528V106.817H92.825V103.783Z" fill="#0E0E0E"/>
<path d="M102.042 103.783H98.9694V106.817H102.042V103.783Z" fill="#0E0E0E"/>
<path d="M105.114 103.783H102.042V106.817H105.114V103.783Z" fill="#0E0E0E"/>
<path d="M114.331 103.783H111.258V106.817H114.331V103.783Z" fill="#0E0E0E"/>
<path d="M117.403 103.783H114.331V106.817H117.403V103.783Z" fill="#0E0E0E"/>
<path d="M126.619 103.783H123.547V106.817H126.619V103.783Z" fill="#0E0E0E"/>
<path d="M138.908 103.783H135.836V106.817H138.908V103.783Z" fill="#0E0E0E"/>
<path d="M141.981 103.783H138.908V106.817H141.981V103.783Z" fill="#0E0E0E"/>
<path d="M145.053 103.783H141.981V106.817H145.053V103.783Z" fill="#0E0E0E"/>
<path d="M148.125 103.783H145.053V106.817H148.125V103.783Z" fill="#0E0E0E"/>
<path d="M12.9472 106.817H9.875V109.85H12.9472V106.817Z" fill="#0E0E0E"/>
<path d="M19.0917 106.817H16.0194V109.85H19.0917V106.817Z" fill="#0E0E0E"/>
<path d="M28.3083 106.817H25.2361V109.85H28.3083V106.817Z" fill="#0E0E0E"/>
<path d="M31.3806 106.817H28.3083V109.85H31.3806V106.817Z" fill="#0E0E0E"/>
<path d="M34.4528 106.817H31.3806V109.85H34.4528V106.817Z" fill="#0E0E0E"/>
<path d="M37.525 106.817H34.4528V109.85H37.525V106.817Z" fill="#0E0E0E"/>
<path d="M40.5972 106.817H37.525V109.85H40.5972V106.817Z" fill="#0E0E0E"/>
<path d="M49.8139 106.817H46.7417V109.85H49.8139V106.817Z" fill="#0E0E0E"/>
<path d="M59.0306 106.817H55.9583V109.85H59.0306V106.817Z" fill="#0E0E0E"/>
<path d="M62.1028 106.817H59.0306V109.85H62.1028V106.817Z" fill="#0E0E0E"/>
<path d="M74.3917 106.817H71.3194V109.85H74.3917V106.817Z" fill="#0E0E0E"/>
<path d="M83.6083 106.817H80.5361V109.85H83.6083V106.817Z" fill="#0E0E0E"/>
<path d="M86.6805 106.817H83.6083V109.85H86.6805V106.817Z" fill="#0E0E0E"/>
<path d="M92.825 106.817H89.7528V109.85H92.825V106.817Z" fill="#0E0E0E"/>
<path d="M98.9694 106.817H95.8972V109.85H98.9694V106.817Z" fill="#0E0E0E"/>
<path d="M108.186 106.817H105.114V109.85H108.186V106.817Z" fill="#0E0E0E"/>
<path d="M111.258 106.817H108.186V109.85H111.258V106.817Z" fill="#0E0E0E"/>
<path d="M117.403 106.817H114.331V109.85H117.403V106.817Z" fill="#0E0E0E"/>
<path d="M123.547 106.817H120.475V109.85H123.547V106.817Z" fill="#0E0E0E"/>
<path d="M132.764 106.817H129.692V109.85H132.764V106.817Z" fill="#0E0E0E"/>
<path d="M135.836 106.817H132.764V109.85H135.836V106.817Z" fill="#0E0E0E"/>
<path d="M141.981 106.817H138.908V109.85H141.981V106.817Z" fill="#0E0E0E"/>
<path d="M145.053 106.817H141.981V109.85H145.053V106.817Z" fill="#0E0E0E"/>
<path d="M148.125 106.817H145.053V109.85H148.125V106.817Z" fill="#0E0E0E"/>
<path d="M16.0194 109.85H12.9472V112.883H16.0194V109.85Z" fill="#0E0E0E"/>
<path d="M19.0917 109.85H16.0194V112.883H19.0917V109.85Z" fill="#0E0E0E"/>
<path d="M25.2361 109.85H22.1639V112.883H25.2361V109.85Z" fill="#0E0E0E"/>
<path d="M28.3083 109.85H25.2361V112.883H28.3083V109.85Z" fill="#0E0E0E"/>
<path d="M37.525 109.85H34.4528V112.883H37.525V109.85Z" fill="#0E0E0E"/>
<path d="M40.5972 109.85H37.525V112.883H40.5972V109.85Z" fill="#0E0E0E"/>
<path d="M46.7417 109.85H43.6694V112.883H46.7417V109.85Z" fill="#0E0E0E"/>
<path d="M49.8139 109.85H46.7417V112.883H49.8139V109.85Z" fill="#0E0E0E"/>
<path d="M52.8861 109.85H49.8139V112.883H52.8861V109.85Z" fill="#0E0E0E"/>
<path d="M68.2472 109.85H65.175V112.883H68.2472V109.85Z" fill="#0E0E0E"/>
<path d="M86.6805 109.85H83.6083V112.883H86.6805V109.85Z" fill="#0E0E0E"/>
<path d="M89.7528 109.85H86.6805V112.883H89.7528V109.85Z" fill="#0E0E0E"/>
<path d="M95.8972 109.85H92.825V112.883H95.8972V109.85Z" fill="#0E0E0E"/>
<path d="M102.042 109.85H98.9694V112.883H102.042V109.85Z" fill="#0E0E0E"/>
<path d="M105.114 109.85H102.042V112.883H105.114V109.85Z" fill="#0E0E0E"/>
<path d="M114.331 109.85H111.258V112.883H114.331V109.85Z" fill="#0E0E0E"/>
<path d="M117.403 109.85H114.331V112.883H117.403V109.85Z" fill="#0E0E0E"/>
<path d="M120.475 109.85H117.403V112.883H120.475V109.85Z" fill="#0E0E0E"/>
<path d="M135.836 109.85H132.764V112.883H135.836V109.85Z" fill="#0E0E0E"/>
<path d="M141.981 109.85H138.908V112.883H141.981V109.85Z" fill="#0E0E0E"/>
<path d="M145.053 109.85H141.981V112.883H145.053V109.85Z" fill="#0E0E0E"/>
<path d="M148.125 109.85H145.053V112.883H148.125V109.85Z" fill="#0E0E0E"/>
<path d="M25.2361 112.883H22.1639V115.917H25.2361V112.883Z" fill="#0E0E0E"/>
<path d="M31.3806 112.883H28.3083V115.917H31.3806V112.883Z" fill="#0E0E0E"/>
<path d="M34.4528 112.883H31.3806V115.917H34.4528V112.883Z" fill="#0E0E0E"/>
<path d="M37.525 112.883H34.4528V115.917H37.525V112.883Z" fill="#0E0E0E"/>
<path d="M46.7417 112.883H43.6694V115.917H46.7417V112.883Z" fill="#0E0E0E"/>
<path d="M55.9583 112.883H52.8861V115.917H55.9583V112.883Z" fill="#0E0E0E"/>
<path d="M62.1028 112.883H59.0306V115.917H62.1028V112.883Z" fill="#0E0E0E"/>
<path d="M71.3194 112.883H68.2472V115.917H71.3194V112.883Z" fill="#0E0E0E"/>
<path d="M83.6083 112.883H80.5361V115.917H83.6083V112.883Z" fill="#0E0E0E"/>
<path d="M86.6805 112.883H83.6083V115.917H86.6805V112.883Z" fill="#0E0E0E"/>
<path d="M105.114 112.883H102.042V115.917H105.114V112.883Z" fill="#0E0E0E"/>
<path d="M108.186 112.883H105.114V115.917H108.186V112.883Z" fill="#0E0E0E"/>
<path d="M111.258 112.883H108.186V115.917H111.258V112.883Z" fill="#0E0E0E"/>
<path d="M120.475 112.883H117.403V115.917H120.475V112.883Z" fill="#0E0E0E"/>
<path d="M132.764 112.883H129.692V115.917H132.764V112.883Z" fill="#0E0E0E"/>
<path d="M135.836 112.883H132.764V115.917H135.836V112.883Z" fill="#0E0E0E"/>
<path d="M145.053 112.883H141.981V115.917H145.053V112.883Z" fill="#0E0E0E"/>
<path d="M148.125 112.883H145.053V115.917H148.125V112.883Z" fill="#0E0E0E"/>
<path d="M16.0194 115.917H12.9472V118.95H16.0194V115.917Z" fill="#0E0E0E"/>
<path d="M19.0917 115.917H16.0194V118.95H19.0917V115.917Z" fill="#0E0E0E"/>
<path d="M22.1639 115.917H19.0917V118.95H22.1639V115.917Z" fill="#0E0E0E"/>
<path d="M25.2361 115.917H22.1639V118.95H25.2361V115.917Z" fill="#0E0E0E"/>
<path d="M34.4528 115.917H31.3806V118.95H34.4528V115.917Z" fill="#0E0E0E"/>
<path d="M40.5972 115.917H37.525V118.95H40.5972V115.917Z" fill="#0E0E0E"/>
<path d="M49.8139 115.917H46.7417V118.95H49.8139V115.917Z" fill="#0E0E0E"/>
<path d="M55.9583 115.917H52.8861V118.95H55.9583V115.917Z" fill="#0E0E0E"/>
<path d="M59.0306 115.917H55.9583V118.95H59.0306V115.917Z" fill="#0E0E0E"/>
<path d="M62.1028 115.917H59.0306V118.95H62.1028V115.917Z" fill="#0E0E0E"/>
<path d="M65.175 115.917H62.1028V118.95H65.175V115.917Z" fill="#0E0E0E"/>
<path d="M74.3917 115.917H71.3194V118.95H74.3917V115.917Z" fill="#0E0E0E"/>
<path d="M83.6083 115.917H80.5361V118.95H83.6083V115.917Z" fill="#0E0E0E"/>
<path d="M89.7528 115.917H86.6805V118.95H89.7528V115.917Z" fill="#0E0E0E"/>
<path d="M92.825 115.917H89.7528V118.95H92.825V115.917Z" fill="#0E0E0E"/>
<path d="M114.331 115.917H111.258V118.95H114.331V115.917Z" fill="#0E0E0E"/>
<path d="M117.403 115.917H114.331V118.95H117.403V115.917Z" fill="#0E0E0E"/>
<path d="M126.619 115.917H123.547V118.95H126.619V115.917Z" fill="#0E0E0E"/>
<path d="M135.836 115.917H132.764V118.95H135.836V115.917Z" fill="#0E0E0E"/>
<path d="M138.908 115.917H135.836V118.95H138.908V115.917Z" fill="#0E0E0E"/>
<path d="M145.053 115.917H141.981V118.95H145.053V115.917Z" fill="#0E0E0E"/>
<path d="M148.125 115.917H145.053V118.95H148.125V115.917Z" fill="#0E0E0E"/>
<path d="M12.9472 118.95H9.875V121.983H12.9472V118.95Z" fill="#0E0E0E"/>
<path d="M22.1639 118.95H19.0917V121.983H22.1639V118.95Z" fill="#0E0E0E"/>
<path d="M25.2361 118.95H22.1639V121.983H25.2361V118.95Z" fill="#0E0E0E"/>
<path d="M31.3806 118.95H28.3083V121.983H31.3806V118.95Z" fill="#0E0E0E"/>
<path d="M34.4528 118.95H31.3806V121.983H34.4528V118.95Z" fill="#0E0E0E"/>
<path d="M40.5972 118.95H37.525V121.983H40.5972V118.95Z" fill="#0E0E0E"/>
<path d="M43.6694 118.95H40.5972V121.983H43.6694V118.95Z" fill="#0E0E0E"/>
<path d="M52.8861 118.95H49.8139V121.983H52.8861V118.95Z" fill="#0E0E0E"/>
<path d="M55.9583 118.95H52.8861V121.983H55.9583V118.95Z" fill="#0E0E0E"/>
<path d="M65.175 118.95H62.1028V121.983H65.175V118.95Z" fill="#0E0E0E"/>
<path d="M68.2472 118.95H65.175V121.983H68.2472V118.95Z" fill="#0E0E0E"/>
<path d="M71.3194 118.95H68.2472V121.983H71.3194V118.95Z" fill="#0E0E0E"/>
<path d="M74.3917 118.95H71.3194V121.983H74.3917V118.95Z" fill="#0E0E0E"/>
<path d="M77.4639 118.95H74.3917V121.983H77.4639V118.95Z" fill="#0E0E0E"/>
<path d="M80.5361 118.95H77.4639V121.983H80.5361V118.95Z" fill="#0E0E0E"/>
<path d="M83.6083 118.95H80.5361V121.983H83.6083V118.95Z" fill="#0E0E0E"/>
<path d="M86.6805 118.95H83.6083V121.983H86.6805V118.95Z" fill="#0E0E0E"/>
<path d="M89.7528 118.95H86.6805V121.983H89.7528V118.95Z" fill="#0E0E0E"/>
<path d="M95.8972 118.95H92.825V121.983H95.8972V118.95Z" fill="#0E0E0E"/>
<path d="M102.042 118.95H98.9694V121.983H102.042V118.95Z" fill="#0E0E0E"/>
<path d="M105.114 118.95H102.042V121.983H105.114V118.95Z" fill="#0E0E0E"/>
<path d="M108.186 118.95H105.114V121.983H108.186V118.95Z" fill="#0E0E0E"/>
<path d="M114.331 118.95H111.258V121.983H114.331V118.95Z" fill="#0E0E0E"/>
<path d="M123.547 118.95H120.475V121.983H123.547V118.95Z" fill="#0E0E0E"/>
<path d="M126.619 118.95H123.547V121.983H126.619V118.95Z" fill="#0E0E0E"/>
<path d="M129.692 118.95H126.619V121.983H129.692V118.95Z" fill="#0E0E0E"/>
<path d="M132.764 118.95H129.692V121.983H132.764V118.95Z" fill="#0E0E0E"/>
<path d="M135.836 118.95H132.764V121.983H135.836V118.95Z" fill="#0E0E0E"/>
<path d="M138.908 118.95H135.836V121.983H138.908V118.95Z" fill="#0E0E0E"/>
<path d="M37.525 121.983H34.4528V125.017H37.525V121.983Z" fill="#0E0E0E"/>
<path d="M40.5972 121.983H37.525V125.017H40.5972V121.983Z" fill="#0E0E0E"/>
<path d="M43.6694 121.983H40.5972V125.017H43.6694V121.983Z" fill="#0E0E0E"/>
<path d="M55.9583 121.983H52.8861V125.017H55.9583V121.983Z" fill="#0E0E0E"/>
<path d="M59.0306 121.983H55.9583V125.017H59.0306V121.983Z" fill="#0E0E0E"/>
<path d="M68.2472 121.983H65.175V125.017H68.2472V121.983Z" fill="#0E0E0E"/>
<path d="M71.3194 121.983H68.2472V125.017H71.3194V121.983Z" fill="#0E0E0E"/>
<path d="M74.3917 121.983H71.3194V125.017H74.3917V121.983Z" fill="#0E0E0E"/>
<path d="M86.6805 121.983H83.6083V125.017H86.6805V121.983Z" fill="#0E0E0E"/>
<path d="M92.825 121.983H89.7528V125.017H92.825V121.983Z" fill="#0E0E0E"/>
<path d="M98.9694 121.983H95.8972V125.017H98.9694V121.983Z" fill="#0E0E0E"/>
<path d="M102.042 121.983H98.9694V125.017H102.042V121.983Z" fill="#0E0E0E"/>
<path d="M117.403 121.983H114.331V125.017H117.403V121.983Z" fill="#0E0E0E"/>
<path d="M123.547 121.983H120.475V125.017H123.547V121.983Z" fill="#0E0E0E"/>
<path d="M135.836 121.983H132.764V125.017H135.836V121.983Z" fill="#0E0E0E"/>
<path d="M138.908 121.983H135.836V125.017H138.908V121.983Z" fill="#0E0E0E"/>
<path d="M141.981 121.983H138.908V125.017H141.981V121.983Z" fill="#0E0E0E"/>
<path d="M145.053 121.983H141.981V125.017H145.053V121.983Z" fill="#0E0E0E"/>
<path d="M148.125 121.983H145.053V125.017H148.125V121.983Z" fill="#0E0E0E"/>
<path d="M12.9472 125.017H9.875V128.05H12.9472V125.017Z" fill="#0E0E0E"/>
<path d="M16.0194 125.017H12.9472V128.05H16.0194V125.017Z" fill="#0E0E0E"/>
<path d="M19.0917 125.017H16.0194V128.05H19.0917V125.017Z" fill="#0E0E0E"/>
<path d="M22.1639 125.017H19.0917V128.05H22.1639V125.017Z" fill="#0E0E0E"/>
<path d="M25.2361 125.017H22.1639V128.05H25.2361V125.017Z" fill="#0E0E0E"/>
<path d="M28.3083 125.017H25.2361V128.05H28.3083V125.017Z" fill="#0E0E0E"/>
<path d="M31.3806 125.017H28.3083V128.05H31.3806V125.017Z" fill="#0E0E0E"/>
<path d="M37.525 125.017H34.4528V128.05H37.525V125.017Z" fill="#0E0E0E"/>
<path d="M40.5972 125.017H37.525V128.05H40.5972V125.017Z" fill="#0E0E0E"/>
<path d="M43.6694 125.017H40.5972V128.05H43.6694V125.017Z" fill="#0E0E0E"/>
<path d="M46.7417 125.017H43.6694V128.05H46.7417V125.017Z" fill="#0E0E0E"/>
<path d="M49.8139 125.017H46.7417V128.05H49.8139V125.017Z" fill="#0E0E0E"/>
<path d="M52.8861 125.017H49.8139V128.05H52.8861V125.017Z" fill="#0E0E0E"/>
<path d="M55.9583 125.017H52.8861V128.05H55.9583V125.017Z" fill="#0E0E0E"/>
<path d="M62.1028 125.017H59.0306V128.05H62.1028V125.017Z" fill="#0E0E0E"/>
<path d="M65.175 125.017H62.1028V128.05H65.175V125.017Z" fill="#0E0E0E"/>
<path d="M68.2472 125.017H65.175V128.05H68.2472V125.017Z" fill="#0E0E0E"/>
<path d="M71.3194 125.017H68.2472V128.05H71.3194V125.017Z" fill="#0E0E0E"/>
<path d="M74.3917 125.017H71.3194V128.05H74.3917V125.017Z" fill="#0E0E0E"/>
<path d="M80.5361 125.017H77.4639V128.05H80.5361V125.017Z" fill="#0E0E0E"/>
<path d="M86.6805 125.017H83.6083V128.05H86.6805V125.017Z" fill="#0E0E0E"/>
<path d="M89.7528 125.017H86.6805V128.05H89.7528V125.017Z" fill="#0E0E0E"/>
<path d="M108.186 125.017H105.114V128.05H108.186V125.017Z" fill="#0E0E0E"/>
<path d="M111.258 125.017H108.186V128.05H111.258V125.017Z" fill="#0E0E0E"/>
<path d="M114.331 125.017H111.258V128.05H114.331V125.017Z" fill="#0E0E0E"/>
<path d="M123.547 125.017H120.475V128.05H123.547V125.017Z" fill="#0E0E0E"/>
<path d="M129.692 125.017H126.619V128.05H129.692V125.017Z" fill="#0E0E0E"/>
<path d="M135.836 125.017H132.764V128.05H135.836V125.017Z" fill="#0E0E0E"/>
<path d="M138.908 125.017H135.836V128.05H138.908V125.017Z" fill="#0E0E0E"/>
<path d="M141.981 125.017H138.908V128.05H141.981V125.017Z" fill="#0E0E0E"/>
<path d="M12.9472 128.05H9.875V131.083H12.9472V128.05Z" fill="#0E0E0E"/>
<path d="M31.3806 128.05H28.3083V131.083H31.3806V128.05Z" fill="#0E0E0E"/>
<path d="M37.525 128.05H34.4528V131.083H37.525V128.05Z" fill="#0E0E0E"/>
<path d="M40.5972 128.05H37.525V131.083H40.5972V128.05Z" fill="#0E0E0E"/>
<path d="M43.6694 128.05H40.5972V131.083H43.6694V128.05Z" fill="#0E0E0E"/>
<path d="M59.0306 128.05H55.9583V131.083H59.0306V128.05Z" fill="#0E0E0E"/>
<path d="M62.1028 128.05H59.0306V131.083H62.1028V128.05Z" fill="#0E0E0E"/>
<path d="M71.3194 128.05H68.2472V131.083H71.3194V128.05Z" fill="#0E0E0E"/>
<path d="M74.3917 128.05H71.3194V131.083H74.3917V128.05Z" fill="#0E0E0E"/>
<path d="M86.6805 128.05H83.6083V131.083H86.6805V128.05Z" fill="#0E0E0E"/>
<path d="M89.7528 128.05H86.6805V131.083H89.7528V128.05Z" fill="#0E0E0E"/>
<path d="M98.9694 128.05H95.8972V131.083H98.9694V128.05Z" fill="#0E0E0E"/>
<path d="M102.042 128.05H98.9694V131.083H102.042V128.05Z" fill="#0E0E0E"/>
<path d="M105.114 128.05H102.042V131.083H105.114V128.05Z" fill="#0E0E0E"/>
<path d="M108.186 128.05H105.114V131.083H108.186V128.05Z" fill="#0E0E0E"/>
<path d="M111.258 128.05H108.186V131.083H111.258V128.05Z" fill="#0E0E0E"/>
<path d="M114.331 128.05H111.258V131.083H114.331V128.05Z" fill="#0E0E0E"/>
<path d="M117.403 128.05H114.331V131.083H117.403V128.05Z" fill="#0E0E0E"/>
<path d="M123.547 128.05H120.475V131.083H123.547V128.05Z" fill="#0E0E0E"/>
<path d="M135.836 128.05H132.764V131.083H135.836V128.05Z" fill="#0E0E0E"/>
<path d="M148.125 128.05H145.053V131.083H148.125V128.05Z" fill="#0E0E0E"/>
<path d="M12.9472 131.083H9.875V134.117H12.9472V131.083Z" fill="#0E0E0E"/>
<path d="M19.0917 131.083H16.0194V134.117H19.0917V131.083Z" fill="#0E0E0E"/>
<path d="M22.1639 131.083H19.0917V134.117H22.1639V131.083Z" fill="#0E0E0E"/>
<path d="M25.2361 131.083H22.1639V134.117H25.2361V131.083Z" fill="#0E0E0E"/>
<path d="M31.3806 131.083H28.3083V134.117H31.3806V131.083Z" fill="#0E0E0E"/>
<path d="M37.525 131.083H34.4528V134.117H37.525V131.083Z" fill="#0E0E0E"/>
<path d="M40.5972 131.083H37.525V134.117H40.5972V131.083Z" fill="#0E0E0E"/>
<path d="M43.6694 131.083H40.5972V134.117H43.6694V131.083Z" fill="#0E0E0E"/>
<path d="M55.9583 131.083H52.8861V134.117H55.9583V131.083Z" fill="#0E0E0E"/>
<path d="M68.2472 131.083H65.175V134.117H68.2472V131.083Z" fill="#0E0E0E"/>
<path d="M74.3917 131.083H71.3194V134.117H74.3917V131.083Z" fill="#0E0E0E"/>
<path d="M77.4639 131.083H74.3917V134.117H77.4639V131.083Z" fill="#0E0E0E"/>
<path d="M80.5361 131.083H77.4639V134.117H80.5361V131.083Z" fill="#0E0E0E"/>
<path d="M83.6083 131.083H80.5361V134.117H83.6083V131.083Z" fill="#0E0E0E"/>
<path d="M86.6805 131.083H83.6083V134.117H86.6805V131.083Z" fill="#0E0E0E"/>
<path d="M92.825 131.083H89.7528V134.117H92.825V131.083Z" fill="#0E0E0E"/>
<path d="M95.8972 131.083H92.825V134.117H95.8972V131.083Z" fill="#0E0E0E"/>
<path d="M98.9694 131.083H95.8972V134.117H98.9694V131.083Z" fill="#0E0E0E"/>
<path d="M105.114 131.083H102.042V134.117H105.114V131.083Z" fill="#0E0E0E"/>
<path d="M108.186 131.083H105.114V134.117H108.186V131.083Z" fill="#0E0E0E"/>
<path d="M111.258 131.083H108.186V134.117H111.258V131.083Z" fill="#0E0E0E"/>
<path d="M120.475 131.083H117.403V134.117H120.475V131.083Z" fill="#0E0E0E"/>
<path d="M123.547 131.083H120.475V134.117H123.547V131.083Z" fill="#0E0E0E"/>
<path d="M126.619 131.083H123.547V134.117H126.619V131.083Z" fill="#0E0E0E"/>
<path d="M129.692 131.083H126.619V134.117H129.692V131.083Z" fill="#0E0E0E"/>
<path d="M132.764 131.083H129.692V134.117H132.764V131.083Z" fill="#0E0E0E"/>
<path d="M135.836 131.083H132.764V134.117H135.836V131.083Z" fill="#0E0E0E"/>
<path d="M138.908 131.083H135.836V134.117H138.908V131.083Z" fill="#0E0E0E"/>
<path d="M141.981 131.083H138.908V134.117H141.981V131.083Z" fill="#0E0E0E"/>
<path d="M145.053 131.083H141.981V134.117H145.053V131.083Z" fill="#0E0E0E"/>
<path d="M148.125 131.083H145.053V134.117H148.125V131.083Z" fill="#0E0E0E"/>
<path d="M12.9472 134.117H9.875V137.15H12.9472V134.117Z" fill="#0E0E0E"/>
<path d="M19.0917 134.117H16.0194V137.15H19.0917V134.117Z" fill="#0E0E0E"/>
<path d="M22.1639 134.117H19.0917V137.15H22.1639V134.117Z" fill="#0E0E0E"/>
<path d="M25.2361 134.117H22.1639V137.15H25.2361V134.117Z" fill="#0E0E0E"/>
<path d="M31.3806 134.117H28.3083V137.15H31.3806V134.117Z" fill="#0E0E0E"/>
<path d="M37.525 134.117H34.4528V137.15H37.525V134.117Z" fill="#0E0E0E"/>
<path d="M40.5972 134.117H37.525V137.15H40.5972V134.117Z" fill="#0E0E0E"/>
<path d="M43.6694 134.117H40.5972V137.15H43.6694V134.117Z" fill="#0E0E0E"/>
<path d="M46.7417 134.117H43.6694V137.15H46.7417V134.117Z" fill="#0E0E0E"/>
<path d="M49.8139 134.117H46.7417V137.15H49.8139V134.117Z" fill="#0E0E0E"/>
<path d="M55.9583 134.117H52.8861V137.15H55.9583V134.117Z" fill="#0E0E0E"/>
<path d="M65.175 134.117H62.1028V137.15H65.175V134.117Z" fill="#0E0E0E"/>
<path d="M77.4639 134.117H74.3917V137.15H77.4639V134.117Z" fill="#0E0E0E"/>
<path d="M80.5361 134.117H77.4639V137.15H80.5361V134.117Z" fill="#0E0E0E"/>
<path d="M86.6805 134.117H83.6083V137.15H86.6805V134.117Z" fill="#0E0E0E"/>
<path d="M92.825 134.117H89.7528V137.15H92.825V134.117Z" fill="#0E0E0E"/>
<path d="M102.042 134.117H98.9694V137.15H102.042V134.117Z" fill="#0E0E0E"/>
<path d="M108.186 134.117H105.114V137.15H108.186V134.117Z" fill="#0E0E0E"/>
<path d="M111.258 134.117H108.186V137.15H111.258V134.117Z" fill="#0E0E0E"/>
<path d="M114.331 134.117H111.258V137.15H114.331V134.117Z" fill="#0E0E0E"/>
<path d="M117.403 134.117H114.331V137.15H117.403V134.117Z" fill="#0E0E0E"/>
<path d="M120.475 134.117H117.403V137.15H120.475V134.117Z" fill="#0E0E0E"/>
<path d="M126.619 134.117H123.547V137.15H126.619V134.117Z" fill="#0E0E0E"/>
<path d="M129.692 134.117H126.619V137.15H129.692V134.117Z" fill="#0E0E0E"/>
<path d="M135.836 134.117H132.764V137.15H135.836V134.117Z" fill="#0E0E0E"/>
<path d="M138.908 134.117H135.836V137.15H138.908V134.117Z" fill="#0E0E0E"/>
<path d="M145.053 134.117H141.981V137.15H145.053V134.117Z" fill="#0E0E0E"/>
<path d="M148.125 134.117H145.053V137.15H148.125V134.117Z" fill="#0E0E0E"/>
<path d="M12.9472 137.15H9.875V140.183H12.9472V137.15Z" fill="#0E0E0E"/>
<path d="M19.0917 137.15H16.0194V140.183H19.0917V137.15Z" fill="#0E0E0E"/>
<path d="M22.1639 137.15H19.0917V140.183H22.1639V137.15Z" fill="#0E0E0E"/>
<path d="M25.2361 137.15H22.1639V140.183H25.2361V137.15Z" fill="#0E0E0E"/>
<path d="M31.3806 137.15H28.3083V140.183H31.3806V137.15Z" fill="#0E0E0E"/>
<path d="M52.8861 137.15H49.8139V140.183H52.8861V137.15Z" fill="#0E0E0E"/>
<path d="M65.175 137.15H62.1028V140.183H65.175V137.15Z" fill="#0E0E0E"/>
<path d="M68.2472 137.15H65.175V140.183H68.2472V137.15Z" fill="#0E0E0E"/>
<path d="M77.4639 137.15H74.3917V140.183H77.4639V137.15Z" fill="#0E0E0E"/>
<path d="M89.7528 137.15H86.6805V140.183H89.7528V137.15Z" fill="#0E0E0E"/>
<path d="M102.042 137.15H98.9694V140.183H102.042V137.15Z" fill="#0E0E0E"/>
<path d="M117.403 137.15H114.331V140.183H117.403V137.15Z" fill="#0E0E0E"/>
<path d="M126.619 137.15H123.547V140.183H126.619V137.15Z" fill="#0E0E0E"/>
<path d="M141.981 137.15H138.908V140.183H141.981V137.15Z" fill="#0E0E0E"/>
<path d="M12.9472 140.183H9.875V143.217H12.9472V140.183Z" fill="#0E0E0E"/>
<path d="M31.3806 140.183H28.3083V143.217H31.3806V140.183Z" fill="#0E0E0E"/>
<path d="M43.6694 140.183H40.5972V143.217H43.6694V140.183Z" fill="#0E0E0E"/>
<path d="M49.8139 140.183H46.7417V143.217H49.8139V140.183Z" fill="#0E0E0E"/>
<path d="M52.8861 140.183H49.8139V143.217H52.8861V140.183Z" fill="#0E0E0E"/>
<path d="M55.9583 140.183H52.8861V143.217H55.9583V140.183Z" fill="#0E0E0E"/>
<path d="M59.0306 140.183H55.9583V143.217H59.0306V140.183Z" fill="#0E0E0E"/>
<path d="M62.1028 140.183H59.0306V143.217H62.1028V140.183Z" fill="#0E0E0E"/>
<path d="M68.2472 140.183H65.175V143.217H68.2472V140.183Z" fill="#0E0E0E"/>
<path d="M71.3194 140.183H68.2472V143.217H71.3194V140.183Z" fill="#0E0E0E"/>
<path d="M74.3917 140.183H71.3194V143.217H74.3917V140.183Z" fill="#0E0E0E"/>
<path d="M77.4639 140.183H74.3917V143.217H77.4639V140.183Z" fill="#0E0E0E"/>
<path d="M80.5361 140.183H77.4639V143.217H80.5361V140.183Z" fill="#0E0E0E"/>
<path d="M86.6805 140.183H83.6083V143.217H86.6805V140.183Z" fill="#0E0E0E"/>
<path d="M89.7528 140.183H86.6805V143.217H89.7528V140.183Z" fill="#0E0E0E"/>
<path d="M92.825 140.183H89.7528V143.217H92.825V140.183Z" fill="#0E0E0E"/>
<path d="M102.042 140.183H98.9694V143.217H102.042V140.183Z" fill="#0E0E0E"/>
<path d="M105.114 140.183H102.042V143.217H105.114V140.183Z" fill="#0E0E0E"/>
<path d="M108.186 140.183H105.114V143.217H108.186V140.183Z" fill="#0E0E0E"/>
<path d="M111.258 140.183H108.186V143.217H111.258V140.183Z" fill="#0E0E0E"/>
<path d="M117.403 140.183H114.331V143.217H117.403V140.183Z" fill="#0E0E0E"/>
<path d="M126.619 140.183H123.547V143.217H126.619V140.183Z" fill="#0E0E0E"/>
<path d="M129.692 140.183H126.619V143.217H129.692V140.183Z" fill="#0E0E0E"/>
<path d="M135.836 140.183H132.764V143.217H135.836V140.183Z" fill="#0E0E0E"/>
<path d="M141.981 140.183H138.908V143.217H141.981V140.183Z" fill="#0E0E0E"/>
<path d="M12.9472 143.217H9.875V146.25H12.9472V143.217Z" fill="#0E0E0E"/>
<path d="M16.0194 143.217H12.9472V146.25H16.0194V143.217Z" fill="#0E0E0E"/>
<path d="M19.0917 143.217H16.0194V146.25H19.0917V143.217Z" fill="#0E0E0E"/>
<path d="M22.1639 143.217H19.0917V146.25H22.1639V143.217Z" fill="#0E0E0E"/>
<path d="M25.2361 143.217H22.1639V146.25H25.2361V143.217Z" fill="#0E0E0E"/>
<path d="M28.3083 143.217H25.2361V146.25H28.3083V143.217Z" fill="#0E0E0E"/>
<path d="M31.3806 143.217H28.3083V146.25H31.3806V143.217Z" fill="#0E0E0E"/>
<path d="M37.525 143.217H34.4528V146.25H37.525V143.217Z" fill="#0E0E0E"/>
<path d="M77.4639 143.217H74.3917V146.25H77.4639V143.217Z" fill="#0E0E0E"/>
<path d="M83.6083 143.217H80.5361V146.25H83.6083V143.217Z" fill="#0E0E0E"/>
<path d="M98.9694 143.217H95.8972V146.25H98.9694V143.217Z" fill="#0E0E0E"/>
<path d="M108.186 143.217H105.114V146.25H108.186V143.217Z" fill="#0E0E0E"/>
<path d="M111.258 143.217H108.186V146.25H111.258V143.217Z" fill="#0E0E0E"/>
<path d="M123.547 143.217H120.475V146.25H123.547V143.217Z" fill="#0E0E0E"/>
<path d="M126.619 143.217H123.547V146.25H126.619V143.217Z" fill="#0E0E0E"/>
<path d="M132.764 143.217H129.692V146.25H132.764V143.217Z" fill="#0E0E0E"/>
<path d="M148.125 143.217H145.053V146.25H148.125V143.217Z" fill="#0E0E0E"/>
</g>
<defs>
<clipPath id="clip0_15_24">
<rect width="158" height="156" rx="15" fill="white"/>
</clipPath>
</defs>
</svg>
